{
.appVersion = "895";
copyright = "Copyright 2016 Google Inc. All Rights Reserved.";
customParameters = (
{
name = description;
value = "Data unhinted. Designed by Monotype design team.";
},
{
name = license;
value = "This Font Software is licensed under the SIL Open Font License, Version 1.1. This Font Software is distributed on an \"AS IS\" BASIS, WITHOUT WARRANTIES OR CONDITIONS OF ANY KIND, either express or implied. See the SIL Open Font License for the specific language, permissions and limitations governing your use of this Font Software.";
},
{
name = licenseURL;
value = "http://scripts.sil.org/OFL";
},
{
name = vendorID;
value = GOOG;
},
{
name = panose;
value = (
2,
11,
5,
2,
4,
5,
4,
2,
2,
4
);
},
{
name = unicodeRanges;
value = (
5,
57,
88
);
},
{
name = codePageRanges;
value = (
1252
);
}
);
date = "2016-11-10 14:12:05 +0000";
designer = "Monotype Design Team";
designerURL = "http://www.monotype.com/studio";
familyName = "Noto Sans Bamum";
fontMaster = (
{
ascender = 2189;
capHeight = 2120;
customParameters = (
{
name = typoAscender;
value = 2189;
},
{
name = typoDescender;
value = -600;
},
{
name = typoLineGap;
value = 0;
},
{
name = winAscent;
value = 2189;
},
{
name = winDescent;
value = 600;
},
{
name = hheaAscender;
value = 2189;
},
{
name = hheaDescender;
value = -600;
}
);
descender = -600;
id = "71450CB2-F408-4DB3-81C5-B92F6F6BD2DF";
weightValue = 400;
widthValue = 5;
xHeight = 1484;
}
);
glyphs = (
{
glyphname = .notdef;
lastChange = "2016-11-10 14:11:51 +0000";
layers = (
{
layerId = "71450CB2-F408-4DB3-81C5-B92F6F6BD2DF";
paths = (
{
closed = 1;
nodes = (
"1034 0 LINE",
"1034 1462 LINE",
"193 1462 LINE",
"193 0 LINE"
);
},
{
closed = 1;
nodes = (
"297 1358 LINE",
"930 1358 LINE",
"930 104 LINE",
"297 104 LINE"
);
}
);
width = 1229;
}
);
note = .notdef;
},
{
glyphname = uniA6A0;
lastChange = "2016-11-10 14:11:48 +0000";
layers = (
{
layerId = "71450CB2-F408-4DB3-81C5-B92F6F6BD2DF";
paths = (
{
closed = 1;
nodes = (
"836 -20 OFFCURVE",
"987 185 OFFCURVE",
"987 594 CURVE SMOOTH",
"987 874 OFFCURVE",
"955 1054 OFFCURVE",
"883 1255 CURVE",
"912 1214 OFFCURVE",
"988 1125 OFFCURVE",
"1016 1098 CURVE SMOOTH",
"1221 895 LINE",
"1329 1008 LINE",
"862 1462 LINE",
"662 1462 LINE",
"759 1157 OFFCURVE",
"807 861 OFFCURVE",
"807 573 CURVE SMOOTH",
"807 261 OFFCURVE",
"724 125 OFFCURVE",
"539 125 CURVE SMOOTH",
"382 125 OFFCURVE",
"295 246 OFFCURVE",
"295 467 CURVE SMOOTH",
"295 538 OFFCURVE",
"301 610 OFFCURVE",
"313 684 CURVE",
"143 684 LINE",
"124 601 OFFCURVE",
"115 524 OFFCURVE",
"115 451 CURVE SMOOTH",
"115 159 OFFCURVE",
"268 -20 OFFCURVE",
"535 -20 CURVE SMOOTH"
);
}
);
width = 1352;
}
);
note = uniA6A0;
unicode = A6A0;
},
{
glyphname = uniA6A1;
lastChange = "2016-11-10 13:44:54 +0000";
layers = (
{
layerId = "71450CB2-F408-4DB3-81C5-B92F6F6BD2DF";
paths = (
{
closed = 1;
nodes = (
"406 0 LINE",
"1212 1217 LINE",
"1221 1217 LINE",
"1217 1158 OFFCURVE",
"1204 930 OFFCURVE",
"1204 795 CURVE SMOOTH",
"1204 0 LINE",
"1376 0 LINE",
"1376 1462 LINE",
"1171 1462 LINE",
"367 252 LINE",
"358 252 LINE",
"365 308 OFFCURVE",
"373 546 OFFCURVE",
"373 659 CURVE SMOOTH",
"373 1462 LINE",
"201 1462 LINE",
"201 0 LINE"
);
}
);
width = 1573;
}
);
note = uniA6A1;
unicode = A6A1;
},
{
glyphname = uniA6A2;
lastChange = "2016-11-10 13:44:54 +0000";
layers = (
{
layerId = "71450CB2-F408-4DB3-81C5-B92F6F6BD2DF";
paths = (
{
closed = 1;
nodes = (
"834 -20 OFFCURVE",
"1006 165 OFFCURVE",
"1006 481 CURVE SMOOTH",
"1006 788 OFFCURVE",
"833 981 OFFCURVE",
"561 981 CURVE SMOOTH",
"280 981 OFFCURVE",
"113 796 OFFCURVE",
"113 481 CURVE SMOOTH",
"113 176 OFFCURVE",
"288 -20 OFFCURVE",
"555 -20 CURVE SMOOTH"
);
},
{
closed = 1;
nodes = (
"387 129 OFFCURVE",
"299 253 OFFCURVE",
"299 481 CURVE SMOOTH",
"299 708 OFFCURVE",
"385 829 OFFCURVE",
"557 829 CURVE SMOOTH",
"728 829 OFFCURVE",
"819 710 OFFCURVE",
"819 481 CURVE SMOOTH",
"819 250 OFFCURVE",
"728 129 OFFCURVE",
"559 129 CURVE SMOOTH"
);
},
{
closed = 1;
nodes = (
"862 1071 LINE",
"862 1217 LINE",
"254 1217 LINE",
"254 1071 LINE"
);
},
{
closed = 1;
nodes = (
"862 1317 LINE",
"862 1462 LINE",
"254 1462 LINE",
"254 1317 LINE"
);
}
);
width = 1118;
}
);
note = uniA6A2;
unicode = A6A2;
},
{
glyphname = uniA6A3;
lastChange = "2016-11-10 14:11:48 +0000";
layers = (
{
layerId = "71450CB2-F408-4DB3-81C5-B92F6F6BD2DF";
paths = (
{
closed = 1;
nodes = (
"444 0 LINE",
"1255 1462 LINE",
"1044 1462 LINE",
"901 1204 LINE",
"769 1369 OFFCURVE",
"571 1485 OFFCURVE",
"422 1485 CURVE SMOOTH",
"247 1485 OFFCURVE",
"141 1377 OFFCURVE",
"141 1202 CURVE SMOOTH",
"141 979 OFFCURVE",
"366 731 OFFCURVE",
"590 643 CURVE",
"233 0 LINE"
);
},
{
closed = 1;
nodes = (
"538 844 OFFCURVE",
"317 1085 OFFCURVE",
"317 1202 CURVE SMOOTH",
"317 1266 OFFCURVE",
"359 1309 OFFCURVE",
"422 1309 CURVE SMOOTH",
"519 1309 OFFCURVE",
"708 1158 OFFCURVE",
"799 1018 CURVE",
"678 801 LINE"
);
},
{
closed = 1;
nodes = (
"1230 551 OFFCURVE",
"1278 605 OFFCURVE",
"1278 690 CURVE SMOOTH",
"1278 775 OFFCURVE",
"1233 827 OFFCURVE",
"1149 827 CURVE SMOOTH",
"1066 827 OFFCURVE",
"1024 781 OFFCURVE",
"1024 690 CURVE SMOOTH",
"1024 601 OFFCURVE",
"1070 551 OFFCURVE",
"1149 551 CURVE SMOOTH"
);
}
);
width = 1343;
}
);
note = uniA6A3;
unicode = A6A3;
},
{
glyphname = uniA6A4;
lastChange = "2016-11-10 14:11:48 +0000";
layers = (
{
layerId = "71450CB2-F408-4DB3-81C5-B92F6F6BD2DF";
paths = (
{
closed = 1;
nodes = (
"1279 -20 OFFCURVE",
"1460 149 OFFCURVE",
"1460 414 CURVE SMOOTH",
"1460 646 OFFCURVE",
"1331 803 OFFCURVE",
"1112 803 CURVE SMOOTH",
"916 803 OFFCURVE",
"786 648 OFFCURVE",
"786 403 CURVE SMOOTH",
"786 389 LINE",
"971 389 LINE",
"971 422 LINE SMOOTH",
"971 575 OFFCURVE",
"1021 651 OFFCURVE",
"1120 651 CURVE SMOOTH",
"1212 651 OFFCURVE",
"1278 552 OFFCURVE",
"1278 424 CURVE SMOOTH",
"1278 236 OFFCURVE",
"1172 129 OFFCURVE",
"987 129 CURVE SMOOTH",
"798 129 OFFCURVE",
"643 269 OFFCURVE",
"643 493 CURVE SMOOTH",
"643 548 OFFCURVE",
"647 620 OFFCURVE",
"655 709 CURVE SMOOTH",
"696 1098 LINE",
"512 1098 LINE",
"503 1006 OFFCURVE",
"515 160 OFFCURVE",
"102 160 CURVE SMOOTH",
"14 160 LINE",
"14 0 LINE",
"98 0 LINE SMOOTH",
"295 0 OFFCURVE",
"468 85 OFFCURVE",
"541 225 CURVE",
"644 62 OFFCURVE",
"796 -20 OFFCURVE",
"999 -20 CURVE SMOOTH"
);
},
{
closed = 1;
nodes = (
"688 1235 OFFCURVE",
"731 1278 OFFCURVE",
"731 1350 CURVE SMOOTH",
"731 1419 OFFCURVE",
"692 1464 OFFCURVE",
"627 1464 CURVE SMOOTH",
"567 1464 OFFCURVE",
"520 1429 OFFCURVE",
"520 1350 CURVE SMOOTH",
"520 1271 OFFCURVE",
"567 1235 OFFCURVE",
"627 1235 CURVE SMOOTH"
);
}
);
width = 1448;
}
);
note = uniA6A4;
unicode = A6A4;
},
{
glyphname = uniA6A5;
lastChange = "2016-11-10 14:11:48 +0000";
layers = (
{
layerId = "71450CB2-F408-4DB3-81C5-B92F6F6BD2DF";
paths = (
{
closed = 1;
nodes = (
"1163 377 LINE",
"1163 539 LINE",
"383 539 LINE",
"383 1462 LINE",
"199 1462 LINE",
"199 377 LINE"
);
},
{
closed = 1;
nodes = (
"745 0 OFFCURVE",
"788 43 OFFCURVE",
"788 115 CURVE SMOOTH",
"788 184 OFFCURVE",
"749 229 OFFCURVE",
"684 229 CURVE SMOOTH",
"624 229 OFFCURVE",
"578 194 OFFCURVE",
"578 115 CURVE SMOOTH",
"578 36 OFFCURVE",
"624 0 OFFCURVE",
"684 0 CURVE SMOOTH"
);
},
{
closed = 1;
nodes = (
"745 686 OFFCURVE",
"788 729 OFFCURVE",
"788 801 CURVE SMOOTH",
"788 870 OFFCURVE",
"749 915 OFFCURVE",
"684 915 CURVE SMOOTH",
"624 915 OFFCURVE",
"578 880 OFFCURVE",
"578 801 CURVE SMOOTH",
"578 722 OFFCURVE",
"624 686 OFFCURVE",
"684 686 CURVE SMOOTH"
);
}
);
width = 1264;
}
);
note = uniA6A5;
unicode = A6A5;
},
{
glyphname = uniA6A6;
lastChange = "2016-11-10 14:11:48 +0000";
layers = (
{
layerId = "71450CB2-F408-4DB3-81C5-B92F6F6BD2DF";
paths = (
{
closed = 1;
nodes = (
"584 403 LINE SMOOTH",
"913 403 OFFCURVE",
"1092 514 OFFCURVE",
"1092 731 CURVE SMOOTH",
"1092 951 OFFCURVE",
"931 1057 OFFCURVE",
"584 1057 CURVE SMOOTH",
"162 1057 LINE",
"162 895 LINE",
"584 895 LINE SMOOTH",
"809 895 OFFCURVE",
"905 848 OFFCURVE",
"905 731 CURVE SMOOTH",
"905 616 OFFCURVE",
"807 565 OFFCURVE",
"584 565 CURVE SMOOTH",
"162 565 LINE",
"162 403 LINE"
);
},
{
closed = 1;
nodes = (
"536 0 OFFCURVE",
"578 43 OFFCURVE",
"578 115 CURVE SMOOTH",
"578 187 OFFCURVE",
"537 229 OFFCURVE",
"473 229 CURVE SMOOTH",
"413 229 OFFCURVE",
"367 194 OFFCURVE",
"367 115 CURVE SMOOTH",
"367 36 OFFCURVE",
"413 0 OFFCURVE",
"473 0 CURVE SMOOTH"
);
},
{
closed = 1;
nodes = (
"536 1233 OFFCURVE",
"578 1276 OFFCURVE",
"578 1348 CURVE SMOOTH",
"578 1420 OFFCURVE",
"537 1462 OFFCURVE",
"473 1462 CURVE SMOOTH",
"414 1462 OFFCURVE",
"367 1427 OFFCURVE",
"367 1348 CURVE SMOOTH",
"367 1269 OFFCURVE",
"413 1233 OFFCURVE",
"473 1233 CURVE SMOOTH"
);
}
);
width = 1184;
}
);
note = uniA6A6;
unicode = A6A6;
},
{
glyphname = uniA6A7;
lastChange = "2016-11-10 14:11:48 +0000";
layers = (
{
layerId = "71450CB2-F408-4DB3-81C5-B92F6F6BD2DF";
paths = (
{
closed = 1;
nodes = (
"248 0 LINE",
"361 211 OFFCURVE",
"477 415 OFFCURVE",
"598 614 CURVE",
"632 555 OFFCURVE",
"668 499 OFFCURVE",
"705 444 CURVE SMOOTH",
"1010 0 LINE",
"1237 0 LINE",
"702 780 LINE",
"847 1008 OFFCURVE",
"984 1206 OFFCURVE",
"1114 1374 CURVE",
"1114 1462 LINE",
"156 1462 LINE",
"156 1303 LINE",
"856 1303 LINE",
"584 938 OFFCURVE",
"356 577 OFFCURVE",
"37 0 CURVE"
);
}
);
width = 1241;
}
);
note = uniA6A7;
unicode = A6A7;
},
{
glyphname = uniA6A8;
lastChange = "2016-11-10 14:11:48 +0000";
layers = (
{
layerId = "71450CB2-F408-4DB3-81C5-B92F6F6BD2DF";
paths = (
{
closed = 1;
nodes = (
"897 0 LINE",
"886 128 OFFCURVE",
"881 252 OFFCURVE",
"881 371 CURVE SMOOTH",
"881 691 OFFCURVE",
"920 1025 OFFCURVE",
"999 1374 CURVE",
"999 1462 LINE",
"41 1462 LINE",
"41 1303 LINE",
"813 1303 LINE",
"744 978 OFFCURVE",
"709 636 OFFCURVE",
"709 279 CURVE SMOOTH",
"709 189 OFFCURVE",
"711 96 OFFCURVE",
"715 0 CURVE"
);
}
);
width = 1126;
}
);
note = uniA6A8;
unicode = A6A8;
},
{
glyphname = uniA6A9;
lastChange = "2016-11-10 14:11:48 +0000";
layers = (
{
layerId = "71450CB2-F408-4DB3-81C5-B92F6F6BD2DF";
paths = (
{
closed = 1;
nodes = (
"1120 344 OFFCURVE",
"1372 583 OFFCURVE",
"1372 956 CURVE SMOOTH",
"1372 1293 OFFCURVE",
"1224 1485 OFFCURVE",
"985 1485 CURVE SMOOTH",
"768 1485 OFFCURVE",
"629 1329 OFFCURVE",
"629 1065 CURVE SMOOTH",
"629 973 OFFCURVE",
"640 883 OFFCURVE",
"662 795 CURVE",
"840 795 LINE",
"817 871 OFFCURVE",
"805 961 OFFCURVE",
"805 1065 CURVE SMOOTH",
"805 1238 OFFCURVE",
"873 1335 OFFCURVE",
"993 1335 CURVE SMOOTH",
"1114 1335 OFFCURVE",
"1190 1192 OFFCURVE",
"1190 967 CURVE SMOOTH",
"1190 655 OFFCURVE",
"1025 494 OFFCURVE",
"729 494 CURVE SMOOTH",
"458 494 OFFCURVE",
"293 661 OFFCURVE",
"293 936 CURVE SMOOTH",
"293 1091 OFFCURVE",
"332 1207 OFFCURVE",
"461 1378 CURVE",
"322 1475 LINE",
"171 1287 OFFCURVE",
"113 1130 OFFCURVE",
"113 942 CURVE SMOOTH",
"113 578 OFFCURVE",
"364 344 OFFCURVE",
"739 344 CURVE SMOOTH"
);
},
{
closed = 1;
nodes = (
"817 0 OFFCURVE",
"860 43 OFFCURVE",
"860 115 CURVE SMOOTH",
"860 184 OFFCURVE",
"821 229 OFFCURVE",
"756 229 CURVE SMOOTH",
"696 229 OFFCURVE",
"649 194 OFFCURVE",
"649 115 CURVE SMOOTH",
"649 36 OFFCURVE",
"696 0 OFFCURVE",
"756 0 CURVE SMOOTH"
);
}
);
width = 1485;
}
);
note = uniA6A9;
unicode = A6A9;
},
{
glyphname = uniA6AA;
lastChange = "2016-11-10 14:11:48 +0000";
layers = (
{
layerId = "71450CB2-F408-4DB3-81C5-B92F6F6BD2DF";
paths = (
{
closed = 1;
nodes = (
"672 0 LINE",
"672 752 LINE",
"727 747 OFFCURVE",
"774 745 OFFCURVE",
"815 745 CURVE SMOOTH",
"1088 745 OFFCURVE",
"1262 897 OFFCURVE",
"1262 1122 CURVE SMOOTH",
"1262 1345 OFFCURVE",
"1112 1485 OFFCURVE",
"877 1485 CURVE SMOOTH",
"620 1485 OFFCURVE",
"489 1315 OFFCURVE",
"489 1010 CURVE SMOOTH",
"489 942 LINE",
"373 970 OFFCURVE",
"248 1017 OFFCURVE",
"113 1083 CURVE",
"41 940 LINE",
"157 867 OFFCURVE",
"306 813 OFFCURVE",
"489 778 CURVE",
"489 0 LINE"
);
},
{
closed = 1;
nodes = (
"989 82 OFFCURVE",
"1032 124 OFFCURVE",
"1032 197 CURVE SMOOTH",
"1032 268 OFFCURVE",
"991 311 OFFCURVE",
"928 311 CURVE SMOOTH",
"868 311 OFFCURVE",
"821 276 OFFCURVE",
"821 197 CURVE SMOOTH",
"821 118 OFFCURVE",
"868 82 OFFCURVE",
"928 82 CURVE SMOOTH"
);
},
{
closed = 1;
nodes = (
"989 414 OFFCURVE",
"1032 456 OFFCURVE",
"1032 528 CURVE SMOOTH",
"1032 599 OFFCURVE",
"992 643 OFFCURVE",
"928 643 CURVE SMOOTH",
"868 643 OFFCURVE",
"821 608 OFFCURVE",
"821 528 CURVE SMOOTH",
"821 451 OFFCURVE",
"868 414 OFFCURVE",
"928 414 CURVE SMOOTH"
);
},
{
closed = 1;
nodes = (
"756 905 OFFCURVE",
"713 907 OFFCURVE",
"672 911 CURVE",
"672 1001 LINE SMOOTH",
"672 1213 OFFCURVE",
"735 1325 OFFCURVE",
"879 1325 CURVE SMOOTH",
"1000 1325 OFFCURVE",
"1079 1246 OFFCURVE",
"1079 1130 CURVE SMOOTH",
"1079 993 OFFCURVE",
"986 905 OFFCURVE",
"803 905 CURVE SMOOTH"
);
}
);
width = 1350;
}
);
note = uniA6AA;
unicode = A6AA;
},
{
glyphname = uniA6AB;
lastChange = "2016-11-10 14:11:48 +0000";
layers = (
{
layerId = "71450CB2-F408-4DB3-81C5-B92F6F6BD2DF";
paths = (
{
closed = 1;
nodes = (
"731 0 LINE",
"938 1462 LINE",
"762 1462 LINE",
"76 1036 LINE",
"168 883 LINE",
"424 1044 OFFCURVE",
"576 1141 OFFCURVE",
"625 1173 CURVE SMOOTH",
"674 1204 OFFCURVE",
"715 1237 OFFCURVE",
"748 1270 CURVE",
"716 1137 OFFCURVE",
"695 1027 OFFCURVE",
"684 940 CURVE SMOOTH",
"543 0 LINE"
);
},
{
closed = 1;
nodes = (
"497 664 OFFCURVE",
"541 707 OFFCURVE",
"541 778 CURVE SMOOTH",
"541 858 OFFCURVE",
"492 893 OFFCURVE",
"436 893 CURVE SMOOTH",
"376 893 OFFCURVE",
"330 858 OFFCURVE",
"330 778 CURVE SMOOTH",
"330 699 OFFCURVE",
"376 664 OFFCURVE",
"436 664 CURVE SMOOTH"
);
},
{
closed = 1;
nodes = (
"1139 958 OFFCURVE",
"1188 994 OFFCURVE",
"1188 1073 CURVE SMOOTH",
"1188 1153 OFFCURVE",
"1139 1188 OFFCURVE",
"1083 1188 CURVE SMOOTH",
"1023 1188 OFFCURVE",
"977 1153 OFFCURVE",
"977 1073 CURVE SMOOTH",
"977 994 OFFCURVE",
"1023 958 OFFCURVE",
"1083 958 CURVE SMOOTH"
);
}
);
width = 1229;
}
);
note = uniA6AB;
unicode = A6AB;
},
{
glyphname = uniA6AC;
lastChange = "2016-11-10 14:11:48 +0000";
layers = (
{
layerId = "71450CB2-F408-4DB3-81C5-B92F6F6BD2DF";
paths = (
{
closed = 1;
nodes = (
"545 0 LINE",
"500 324 LINE SMOOTH",
"470 534 OFFCURVE",
"455 696 OFFCURVE",
"455 811 CURVE SMOOTH",
"455 1074 OFFCURVE",
"575 1225 OFFCURVE",
"799 1225 CURVE SMOOTH",
"984 1225 OFFCURVE",
"1090 1117 OFFCURVE",
"1090 930 CURVE SMOOTH",
"1090 799 OFFCURVE",
"1024 702 OFFCURVE",
"932 702 CURVE SMOOTH",
"840 702 OFFCURVE",
"782 771 OFFCURVE",
"782 918 CURVE SMOOTH",
"782 946 LINE",
"784 965 LINE",
"602 965 LINE",
"598 913 LINE",
"598 684 OFFCURVE",
"725 551 OFFCURVE",
"924 551 CURVE SMOOTH",
"1140 551 OFFCURVE",
"1272 708 OFFCURVE",
"1272 940 CURVE SMOOTH",
"1272 1207 OFFCURVE",
"1091 1374 OFFCURVE",
"811 1374 CURVE SMOOTH",
"482 1374 OFFCURVE",
"272 1166 OFFCURVE",
"272 811 CURVE SMOOTH",
"272 666 OFFCURVE",
"289 484 OFFCURVE",
"322 264 CURVE SMOOTH",
"360 0 LINE"
);
},
{
closed = 1;
nodes = (
"311 1233 OFFCURVE",
"354 1276 OFFCURVE",
"354 1348 CURVE SMOOTH",
"354 1417 OFFCURVE",
"315 1462 OFFCURVE",
"250 1462 CURVE SMOOTH",
"190 1462 OFFCURVE",
"143 1427 OFFCURVE",
"143 1348 CURVE SMOOTH",
"143 1269 OFFCURVE",
"190 1233 OFFCURVE",
"250 1233 CURVE SMOOTH"
);
}
);
width = 1354;
}
);
note = uniA6AC;
unicode = A6AC;
},
{
glyphname = uniA6AD;
lastChange = "2016-11-10 14:11:48 +0000";
layers = (
{
layerId = "71450CB2-F408-4DB3-81C5-B92F6F6BD2DF";
paths = (
{
closed = 1;
nodes = (
"971 0 LINE",
"971 1462 LINE",
"786 1462 LINE",
"786 1024 LINE",
"109 1024 LINE",
"109 870 LINE",
"383 547 LINE",
"74 152 LINE",
"74 0 LINE"
);
},
{
closed = 1;
nodes = (
"588 549 LINE",
"319 862 LINE",
"416 860 LINE",
"786 860 LINE",
"786 162 LINE",
"610 162 LINE",
"276 160 LINE"
);
}
);
width = 1171;
}
);
note = uniA6AD;
unicode = A6AD;
},
{
glyphname = uniA6AE;
lastChange = "2016-11-10 14:11:48 +0000";
layers = (
{
layerId = "71450CB2-F408-4DB3-81C5-B92F6F6BD2DF";
paths = (
{
closed = 1;
nodes = (
"383 0 LINE",
"383 403 LINE",
"524 403 LINE SMOOTH",
"856 403 OFFCURVE",
"1032 515 OFFCURVE",
"1032 731 CURVE SMOOTH",
"1032 951 OFFCURVE",
"871 1057 OFFCURVE",
"524 1057 CURVE SMOOTH",
"383 1057 LINE",
"383 1462 LINE",
"199 1462 LINE",
"199 895 LINE",
"524 895 LINE SMOOTH",
"751 895 OFFCURVE",
"846 848 OFFCURVE",
"846 731 CURVE SMOOTH",
"846 616 OFFCURVE",
"747 565 OFFCURVE",
"524 565 CURVE SMOOTH",
"199 565 LINE",
"199 0 LINE"
);
},
{
closed = 1;
nodes = (
"715 0 OFFCURVE",
"764 36 OFFCURVE",
"764 115 CURVE SMOOTH",
"764 194 OFFCURVE",
"715 229 OFFCURVE",
"659 229 CURVE SMOOTH",
"599 229 OFFCURVE",
"553 194 OFFCURVE",
"553 115 CURVE SMOOTH",
"553 36 OFFCURVE",
"599 0 OFFCURVE",
"659 0 CURVE SMOOTH"
);
},
{
closed = 1;
nodes = (
"715 1233 OFFCURVE",
"764 1269 OFFCURVE",
"764 1348 CURVE SMOOTH",
"764 1427 OFFCURVE",
"715 1462 OFFCURVE",
"659 1462 CURVE SMOOTH",
"600 1462 OFFCURVE",
"553 1427 OFFCURVE",
"553 1348 CURVE SMOOTH",
"553 1269 OFFCURVE",
"599 1233 OFFCURVE",
"659 1233 CURVE SMOOTH"
);
}
);
width = 1124;
}
);
note = uniA6AE;
unicode = A6AE;
},
{
glyphname = uniA6AF;
lastChange = "2016-11-10 14:11:48 +0000";
layers = (
{
layerId = "71450CB2-F408-4DB3-81C5-B92F6F6BD2DF";
paths = (
{
closed = 1;
nodes = (
"465 0 LINE",
"465 467 LINE SMOOTH",
"465 562 OFFCURVE",
"461 638 OFFCURVE",
"453 694 CURVE",
"550 585 OFFCURVE",
"576 558 OFFCURVE",
"664 479 CURVE SMOOTH",
"897 281 LINE",
"1014 410 LINE",
"467 889 LINE",
"281 795 LINE",
"281 0 LINE"
);
},
{
closed = 1;
nodes = (
"851 801 OFFCURVE",
"895 844 OFFCURVE",
"895 915 CURVE SMOOTH",
"895 986 OFFCURVE",
"855 1030 OFFCURVE",
"791 1030 CURVE SMOOTH",
"731 1030 OFFCURVE",
"684 995 OFFCURVE",
"684 915 CURVE SMOOTH",
"684 838 OFFCURVE",
"731 801 OFFCURVE",
"791 801 CURVE SMOOTH"
);
},
{
closed = 1;
nodes = (
"1014 1292 LINE",
"1014 1485 LINE",
"281 1114 LINE",
"281 922 LINE"
);
}
);
width = 1229;
}
);
note = uniA6AF;
unicode = A6AF;
},
{
glyphname = uniA6B0;
lastChange = "2016-11-10 14:11:48 +0000";
layers = (
{
layerId = "71450CB2-F408-4DB3-81C5-B92F6F6BD2DF";
paths = (
{
closed = 1;
nodes = (
"383 0 LINE",
"383 582 LINE",
"1221 942 LINE",
"1221 1092 LINE",
"358 1462 LINE",
"199 1462 LINE",
"199 0 LINE"
);
},
{
closed = 1;
nodes = (
"383 1262 LINE",
"698 1133 OFFCURVE",
"871 1063 OFFCURVE",
"903 1052 CURVE SMOOTH",
"935 1041 OFFCURVE",
"972 1030 OFFCURVE",
"1014 1020 CURVE",
"1014 1016 LINE",
"933 991 OFFCURVE",
"845 961 OFFCURVE",
"750 924 CURVE SMOOTH",
"383 772 LINE"
);
}
);
width = 1305;
}
);
note = uniA6B0;
unicode = A6B0;
},
{
glyphname = uniA6B1;
lastChange = "2016-11-10 14:11:48 +0000";
layers = (
{
layerId = "71450CB2-F408-4DB3-81C5-B92F6F6BD2DF";
paths = (
{
closed = 1;
nodes = (
"383 0 LINE",
"383 682 LINE",
"1024 682 LINE",
"1024 844 LINE",
"383 844 LINE",
"383 1462 LINE",
"199 1462 LINE",
"199 0 LINE"
);
}
);
width = 1126;
}
);
note = uniA6B1;
unicode = A6B1;
},
{
glyphname = uniA6B2;
lastChange = "2016-11-10 14:11:48 +0000";
layers = (
{
layerId = "71450CB2-F408-4DB3-81C5-B92F6F6BD2DF";
paths = (
{
closed = 1;
nodes = (
"672 0 LINE",
"672 567 LINE",
"1159 1462 LINE",
"961 1462 LINE",
"580 743 LINE",
"201 1462 LINE",
"0 1462 LINE",
"487 559 LINE",
"487 0 LINE"
);
},
{
closed = 1;
nodes = (
"643 1233 OFFCURVE",
"686 1276 OFFCURVE",
"686 1348 CURVE SMOOTH",
"686 1417 OFFCURVE",
"647 1462 OFFCURVE",
"582 1462 CURVE SMOOTH",
"522 1462 OFFCURVE",
"475 1427 OFFCURVE",
"475 1348 CURVE SMOOTH",
"475 1269 OFFCURVE",
"522 1233 OFFCURVE",
"582 1233 CURVE SMOOTH"
);
}
);
width = 1159;
}
);
note = uniA6B2;
unicode = A6B2;
},
{
glyphname = uniA6B3;
lastChange = "2016-11-10 14:11:48 +0000";
layers = (
{
layerId = "71450CB2-F408-4DB3-81C5-B92F6F6BD2DF";
paths = (
{
closed = 1;
nodes = (
"1022 0 LINE",
"1022 160 LINE",
"383 160 LINE",
"383 1462 LINE",
"199 1462 LINE",
"199 0 LINE"
);
},
{
closed = 1;
nodes = (
"793 369 LINE",
"793 1462 LINE",
"608 1462 LINE",
"608 369 LINE"
);
}
);
width = 1073;
}
);
note = uniA6B3;
unicode = A6B3;
},
{
glyphname = uniA6B4;
lastChange = "2016-11-10 14:11:48 +0000";
layers = (
{
layerId = "71450CB2-F408-4DB3-81C5-B92F6F6BD2DF";
paths = (
{
closed = 1;
nodes = (
"598 0 LINE",
"768 641 LINE",
"1333 641 LINE",
"1333 803 LINE",
"811 803 LINE",
"989 1462 LINE",
"799 1462 LINE",
"580 625 LINE SMOOTH",
"542 478 OFFCURVE",
"519 366 OFFCURVE",
"510 287 CURVE",
"498 386 OFFCURVE",
"471 488 OFFCURVE",
"440 612 CURVE SMOOTH",
"221 1462 LINE",
"33 1462 LINE",
"420 0 LINE"
);
},
{
closed = 1;
nodes = (
"1159 305 OFFCURVE",
"1202 348 OFFCURVE",
"1202 420 CURVE SMOOTH",
"1202 491 OFFCURVE",
"1162 535 OFFCURVE",
"1098 535 CURVE SMOOTH",
"1038 535 OFFCURVE",
"991 500 OFFCURVE",
"991 420 CURVE SMOOTH",
"991 341 OFFCURVE",
"1038 305 OFFCURVE",
"1098 305 CURVE SMOOTH"
);
},
{
closed = 1;
nodes = (
"1159 909 OFFCURVE",
"1202 952 OFFCURVE",
"1202 1024 CURVE SMOOTH",
"1202 1095 OFFCURVE",
"1162 1139 OFFCURVE",
"1098 1139 CURVE SMOOTH",
"1038 1139 OFFCURVE",
"991 1104 OFFCURVE",
"991 1024 CURVE SMOOTH",
"991 945 OFFCURVE",
"1038 909 OFFCURVE",
"1098 909 CURVE SMOOTH"
);
}
);
width = 1415;
}
);
note = uniA6B4;
unicode = A6B4;
},
{
glyphname = uniA6B5;
lastChange = "2016-11-10 14:11:48 +0000";
layers = (
{
layerId = "71450CB2-F408-4DB3-81C5-B92F6F6BD2DF";
paths = (
{
closed = 1;
nodes = (
"694 0 LINE",
"694 514 LINE",
"918 547 OFFCURVE",
"1042 693 OFFCURVE",
"1042 928 CURVE SMOOTH",
"1042 1462 LINE",
"860 1462 LINE",
"860 940 LINE SMOOTH",
"860 753 OFFCURVE",
"784 657 OFFCURVE",
"600 657 CURVE SMOOTH",
"437 657 OFFCURVE",
"344 763 OFFCURVE",
"344 940 CURVE SMOOTH",
"344 1462 LINE",
"162 1462 LINE",
"162 928 LINE SMOOTH",
"162 689 OFFCURVE",
"285 543 OFFCURVE",
"510 512 CURVE",
"510 0 LINE"
);
}
);
width = 1204;
}
);
note = uniA6B5;
unicode = A6B5;
},
{
glyphname = uniA6B6;
lastChange = "2016-11-10 14:11:48 +0000";
layers = (
{
layerId = "71450CB2-F408-4DB3-81C5-B92F6F6BD2DF";
paths = (
{
closed = 1;
nodes = (
"1135 0 LINE",
"1135 1462 LINE",
"952 1462 LINE",
"952 162 LINE",
"383 162 LINE",
"383 1462 LINE",
"199 1462 LINE",
"199 0 LINE"
);
},
{
closed = 1;
nodes = (
"1435 346 OFFCURVE",
"1477 389 OFFCURVE",
"1477 461 CURVE SMOOTH",
"1477 533 OFFCURVE",
"1436 575 OFFCURVE",
"1372 575 CURVE SMOOTH",
"1312 575 OFFCURVE",
"1266 540 OFFCURVE",
"1266 461 CURVE SMOOTH",
"1266 382 OFFCURVE",
"1312 346 OFFCURVE",
"1372 346 CURVE SMOOTH"
);
},
{
closed = 1;
nodes = (
"1435 868 OFFCURVE",
"1477 911 OFFCURVE",
"1477 983 CURVE SMOOTH",
"1477 1052 OFFCURVE",
"1437 1098 OFFCURVE",
"1372 1098 CURVE SMOOTH",
"1312 1098 OFFCURVE",
"1266 1063 OFFCURVE",
"1266 983 CURVE SMOOTH",
"1266 904 OFFCURVE",
"1312 868 OFFCURVE",
"1372 868 CURVE SMOOTH"
);
}
);
width = 1518;
}
);
note = uniA6B6;
unicode = A6B6;
},
{
glyphname = uniA6B7;
lastChange = "2016-11-10 14:11:48 +0000";
layers = (
{
layerId = "71450CB2-F408-4DB3-81C5-B92F6F6BD2DF";
paths = (
{
closed = 1;
nodes = (
"711 0 LINE",
"571 985 LINE",
"913 1104 LINE",
"913 705 LINE",
"1004 637 LINE",
"1151 738 OFFCURVE",
"1240 774 OFFCURVE",
"1384 793 CURVE",
"1384 987 LINE",
"1273 959 OFFCURVE",
"1177 911 OFFCURVE",
"1096 844 CURVE",
"1096 1208 LINE",
"1055 1325 LINE",
"547 1149 LINE",
"504 1462 LINE",
"315 1462 LINE",
"369 1085 LINE",
"51 977 LINE",
"104 823 LINE",
"391 922 LINE",
"522 0 LINE"
);
},
{
closed = 1;
nodes = (
"904 369 OFFCURVE",
"950 406 OFFCURVE",
"950 483 CURVE SMOOTH",
"950 563 OFFCURVE",
"904 598 OFFCURVE",
"844 598 CURVE SMOOTH",
"788 598 OFFCURVE",
"739 563 OFFCURVE",
"739 483 CURVE SMOOTH",
"739 406 OFFCURVE",
"788 369 OFFCURVE",
"844 369 CURVE SMOOTH"
);
},
{
closed = 1;
nodes = (
"1332 1233 OFFCURVE",
"1378 1269 OFFCURVE",
"1378 1348 CURVE SMOOTH",
"1378 1427 OFFCURVE",
"1331 1462 OFFCURVE",
"1272 1462 CURVE SMOOTH",
"1208 1462 OFFCURVE",
"1167 1419 OFFCURVE",
"1167 1348 CURVE SMOOTH",
"1167 1276 OFFCURVE",
"1209 1233 OFFCURVE",
"1272 1233 CURVE SMOOTH"
);
}
);
width = 1466;
}
);
note = uniA6B7;
unicode = A6B7;
},
{
glyphname = uniA6B8;
lastChange = "2016-11-10 14:11:48 +0000";
layers = (
{
layerId = "71450CB2-F408-4DB3-81C5-B92F6F6BD2DF";
paths = (
{
closed = 1;
nodes = (
"1215 -13 OFFCURVE",
"1475 212 OFFCURVE",
"1475 547 CURVE SMOOTH",
"1475 862 OFFCURVE",
"1272 1061 OFFCURVE",
"907 1061 CURVE SMOOTH",
"806 1061 OFFCURVE",
"716 1043 OFFCURVE",
"588 991 CURVE",
"629 829 LINE",
"673 848 LINE SMOOTH",
"742 879 OFFCURVE",
"816 895 OFFCURVE",
"895 895 CURVE SMOOTH",
"1140 895 OFFCURVE",
"1288 761 OFFCURVE",
"1288 530 CURVE SMOOTH",
"1288 301 OFFCURVE",
"1065 139 OFFCURVE",
"809 139 CURVE",
"850 -25 LINE"
);
},
{
closed = 1;
nodes = (
"783 399 OFFCURVE",
"869 412 OFFCURVE",
"1014 469 CURVE",
"973 631 LINE",
"929 612 LINE SMOOTH",
"858 581 OFFCURVE",
"784 565 OFFCURVE",
"707 565 CURVE SMOOTH",
"459 565 OFFCURVE",
"313 706 OFFCURVE",
"313 930 CURVE SMOOTH",
"313 1158 OFFCURVE",
"532 1321 OFFCURVE",
"793 1321 CURVE",
"752 1485 LINE",
"381 1473 OFFCURVE",
"127 1245 OFFCURVE",
"127 913 CURVE SMOOTH",
"127 596 OFFCURVE",
"329 399 OFFCURVE",
"694 399 CURVE SMOOTH"
);
}
);
width = 1602;
}
);
note = uniA6B8;
unicode = A6B8;
},
{
glyphname = uniA6B9;
lastChange = "2016-11-10 14:11:48 +0000";
layers = (
{
layerId = "71450CB2-F408-4DB3-81C5-B92F6F6BD2DF";
paths = (
{
closed = 1;
nodes = (
"932 1114 LINE",
"199 1485 LINE",
"199 1292 LINE",
"932 922 LINE"
);
},
{
closed = 1;
nodes = (
"383 0 LINE",
"383 1122 LINE",
"199 1122 LINE",
"199 0 LINE"
);
}
);
width = 983;
}
);
note = uniA6B9;
unicode = A6B9;
},
{
glyphname = uniA6BA;
lastChange = "2016-11-10 14:11:48 +0000";
layers = (
{
layerId = "71450CB2-F408-4DB3-81C5-B92F6F6BD2DF";
paths = (
{
closed = 1;
nodes = (
"272 -20 LINE SMOOTH",
"773 -20 OFFCURVE",
"1040 246 OFFCURVE",
"1040 733 CURVE SMOOTH",
"1040 1216 OFFCURVE",
"781 1485 OFFCURVE",
"309 1485 CURVE SMOOTH",
"229 1485 LINE",
"229 1323 LINE",
"313 1323 LINE SMOOTH",
"527 1323 OFFCURVE",
"677 1252 OFFCURVE",
"762 1110 CURVE",
"407 1069 OFFCURVE",
"229 942 OFFCURVE",
"229 731 CURVE SMOOTH",
"229 518 OFFCURVE",
"416 391 OFFCURVE",
"760 350 CURVE",
"672 209 OFFCURVE",
"515 139 OFFCURVE",
"289 139 CURVE SMOOTH",
"229 139 LINE",
"229 -20 LINE"
);
},
{
closed = 1;
nodes = (
"786 500 LINE SMOOTH",
"542 527 OFFCURVE",
"416 604 OFFCURVE",
"416 723 CURVE SMOOTH",
"416 863 OFFCURVE",
"534 934 OFFCURVE",
"786 963 CURVE SMOOTH",
"819 967 LINE",
"837 899 OFFCURVE",
"846 821 OFFCURVE",
"846 733 CURVE SMOOTH",
"846 642 OFFCURVE",
"837 563 OFFCURVE",
"819 496 CURVE"
);
},
{
closed = 1;
nodes = (
"1225 1122 OFFCURVE",
"1272 1158 OFFCURVE",
"1272 1237 CURVE SMOOTH",
"1272 1317 OFFCURVE",
"1225 1352 OFFCURVE",
"1165 1352 CURVE SMOOTH",
"1101 1352 OFFCURVE",
"1061 1308 OFFCURVE",
"1061 1237 CURVE SMOOTH",
"1061 1164 OFFCURVE",
"1105 1122 OFFCURVE",
"1165 1122 CURVE SMOOTH"
);
}
);
width = 1272;
}
);
note = uniA6BA;
unicode = A6BA;
},
{
glyphname = uniA6BB;
lastChange = "2016-11-10 14:11:48 +0000";
layers = (
{
layerId = "71450CB2-F408-4DB3-81C5-B92F6F6BD2DF";
paths = (
{
closed = 1;
nodes = (
"401 0 LINE",
"401 989 LINE",
"709 989 LINE",
"709 530 LINE",
"1184 530 LINE",
"1184 690 LINE",
"893 690 LINE",
"893 1149 LINE",
"217 1149 LINE",
"217 0 LINE"
);
},
{
closed = 1;
nodes = (
"175 1233 OFFCURVE",
"221 1269 OFFCURVE",
"221 1348 CURVE SMOOTH",
"221 1427 OFFCURVE",
"174 1462 OFFCURVE",
"115 1462 CURVE SMOOTH",
"59 1462 OFFCURVE",
"10 1427 OFFCURVE",
"10 1348 CURVE SMOOTH",
"10 1269 OFFCURVE",
"59 1233 OFFCURVE",
"115 1233 CURVE SMOOTH"
);
}
);
width = 1266;
}
);
note = uniA6BB;
unicode = A6BB;
},
{
glyphname = uniA6BC;
lastChange = "2016-11-10 14:11:48 +0000";
layers = (
{
layerId = "71450CB2-F408-4DB3-81C5-B92F6F6BD2DF";
paths = (
{
closed = 1;
nodes = (
"1237 635 LINE",
"1237 842 LINE",
"139 1260 LINE",
"139 1067 LINE",
"786 834 LINE SMOOTH",
"911 789 OFFCURVE",
"1008 758 OFFCURVE",
"1077 741 CURVE",
"1077 733 LINE",
"1013 720 OFFCURVE",
"916 691 OFFCURVE",
"786 645 CURVE SMOOTH",
"139 412 LINE",
"139 219 LINE"
);
},
{
closed = 1;
nodes = (
"495 -20 OFFCURVE",
"539 23 OFFCURVE",
"539 94 CURVE SMOOTH",
"539 163 OFFCURVE",
"499 209 OFFCURVE",
"434 209 CURVE SMOOTH",
"374 209 OFFCURVE",
"328 174 OFFCURVE",
"328 94 CURVE SMOOTH",
"328 15 OFFCURVE",
"374 -20 OFFCURVE",
"434 -20 CURVE SMOOTH"
);
},
{
closed = 1;
nodes = (
"497 1255 OFFCURVE",
"539 1298 OFFCURVE",
"539 1370 CURVE SMOOTH",
"539 1439 OFFCURVE",
"499 1485 OFFCURVE",
"434 1485 CURVE SMOOTH",
"374 1485 OFFCURVE",
"328 1450 OFFCURVE",
"328 1370 CURVE SMOOTH",
"328 1291 OFFCURVE",
"374 1255 OFFCURVE",
"434 1255 CURVE SMOOTH"
);
}
);
width = 1309;
}
);
note = uniA6BC;
unicode = A6BC;
},
{
glyphname = uniA6BD;
lastChange = "2016-11-10 14:11:48 +0000";
layers = (
{
layerId = "71450CB2-F408-4DB3-81C5-B92F6F6BD2DF";
paths = (
{
closed = 1;
nodes = (
"894 -20 OFFCURVE",
"1130 256 OFFCURVE",
"1130 641 CURVE SMOOTH",
"1130 876 OFFCURVE",
"997 1051 OFFCURVE",
"793 1051 CURVE SMOOTH",
"721 1051 OFFCURVE",
"661 1030 OFFCURVE",
"614 987 CURVE",
"688 1153 LINE",
"819 1462 LINE",
"627 1462 LINE",
"367 848 LINE",
"530 778 LINE",
"571 861 OFFCURVE",
"644 899 OFFCURVE",
"727 899 CURVE SMOOTH",
"864 899 OFFCURVE",
"944 806 OFFCURVE",
"944 655 CURVE SMOOTH",
"944 363 OFFCURVE",
"776 129 OFFCURVE",
"567 129 CURVE SMOOTH",
"402 129 OFFCURVE",
"293 247 OFFCURVE",
"293 420 CURVE SMOOTH",
"293 500 OFFCURVE",
"305 567 OFFCURVE",
"330 621 CURVE",
"154 694 LINE",
"122 621 OFFCURVE",
"106 542 OFFCURVE",
"106 457 CURVE SMOOTH",
"106 164 OFFCURVE",
"304 -20 OFFCURVE",
"547 -20 CURVE SMOOTH"
);
}
);
width = 1229;
}
);
note = uniA6BD;
unicode = A6BD;
},
{
glyphname = uniA6BE;
lastChange = "2016-11-10 14:11:48 +0000";
layers = (
{
layerId = "71450CB2-F408-4DB3-81C5-B92F6F6BD2DF";
paths = (
{
closed = 1;
nodes = (
"850 0 LINE",
"850 682 LINE",
"1135 682 LINE",
"1135 0 LINE",
"1319 0 LINE",
"1319 844 LINE",
"850 844 LINE",
"850 1462 LINE",
"666 1462 LINE",
"666 844 LINE",
"383 844 LINE",
"383 1462 LINE",
"199 1462 LINE",
"199 682 LINE",
"666 682 LINE",
"666 0 LINE"
);
}
);
width = 1518;
}
);
note = uniA6BE;
unicode = A6BE;
},
{
glyphname = uniA6BF;
lastChange = "2016-11-10 14:11:48 +0000";
layers = (
{
layerId = "71450CB2-F408-4DB3-81C5-B92F6F6BD2DF";
paths = (
{
closed = 1;
nodes = (
"989 0 LINE",
"1058 251 OFFCURVE",
"1102 566 OFFCURVE",
"1102 819 CURVE SMOOTH",
"1102 1271 OFFCURVE",
"933 1485 OFFCURVE",
"604 1485 CURVE SMOOTH",
"355 1485 OFFCURVE",
"172 1323 OFFCURVE",
"172 1098 CURVE SMOOTH",
"172 999 OFFCURVE",
"212 901 OFFCURVE",
"276 844 CURVE",
"115 844 LINE",
"115 682 LINE",
"764 682 LINE",
"764 844 LINE",
"625 844 LINE SMOOTH",
"457 844 OFFCURVE",
"354 949 OFFCURVE",
"354 1085 CURVE SMOOTH",
"354 1234 OFFCURVE",
"463 1337 OFFCURVE",
"616 1337 CURVE SMOOTH",
"813 1337 OFFCURVE",
"920 1164 OFFCURVE",
"920 819 CURVE SMOOTH",
"920 572 OFFCURVE",
"883 299 OFFCURVE",
"809 0 CURVE"
);
}
);
width = 1268;
}
);
note = uniA6BF;
unicode = A6BF;
},
{
glyphname = uniA6C0;
lastChange = "2016-11-10 14:11:48 +0000";
layers = (
{
layerId = "71450CB2-F408-4DB3-81C5-B92F6F6BD2DF";
paths = (
{
closed = 1;
nodes = (
"989 0 LINE",
"1058 251 OFFCURVE",
"1102 566 OFFCURVE",
"1102 819 CURVE SMOOTH",
"1102 1268 OFFCURVE",
"939 1485 OFFCURVE",
"614 1485 CURVE SMOOTH",
"334 1485 OFFCURVE",
"166 1293 OFFCURVE",
"166 961 CURVE SMOOTH",
"166 682 LINE",
"764 682 LINE",
"764 844 LINE",
"348 844 LINE",
"348 950 LINE SMOOTH",
"348 1194 OFFCURVE",
"443 1337 OFFCURVE",
"614 1337 CURVE SMOOTH",
"811 1337 OFFCURVE",
"920 1166 OFFCURVE",
"920 819 CURVE SMOOTH",
"920 572 OFFCURVE",
"883 299 OFFCURVE",
"809 0 CURVE"
);
}
);
width = 1268;
}
);
note = uniA6C0;
unicode = A6C0;
},
{
glyphname = uniA6C1;
lastChange = "2016-11-10 14:11:48 +0000";
layers = (
{
layerId = "71450CB2-F408-4DB3-81C5-B92F6F6BD2DF";
paths = (
{
closed = 1;
nodes = (
"989 0 LINE",
"1058 251 OFFCURVE",
"1102 566 OFFCURVE",
"1102 819 CURVE SMOOTH",
"1102 1268 OFFCURVE",
"939 1485 OFFCURVE",
"614 1485 CURVE SMOOTH",
"334 1485 OFFCURVE",
"166 1293 OFFCURVE",
"166 961 CURVE SMOOTH",
"166 872 OFFCURVE",
"181 779 OFFCURVE",
"211 684 CURVE",
"391 684 LINE",
"362 783 OFFCURVE",
"348 871 OFFCURVE",
"348 950 CURVE SMOOTH",
"348 1194 OFFCURVE",
"443 1337 OFFCURVE",
"614 1337 CURVE SMOOTH",
"811 1337 OFFCURVE",
"920 1166 OFFCURVE",
"920 819 CURVE SMOOTH",
"920 572 OFFCURVE",
"883 299 OFFCURVE",
"809 0 CURVE"
);
}
);
width = 1268;
}
);
note = uniA6C1;
unicode = A6C1;
},
{
glyphname = uniA6C2;
lastChange = "2016-11-10 14:11:48 +0000";
layers = (
{
layerId = "71450CB2-F408-4DB3-81C5-B92F6F6BD2DF";
paths = (
{
closed = 1;
nodes = (
"356 0 LINE",
"356 1462 LINE",
"174 1462 LINE",
"174 0 LINE"
);
},
{
closed = 1;
nodes = (
"1010 979 LINE",
"1010 1151 LINE",
"455 924 LINE",
"455 752 LINE"
);
},
{
closed = 1;
nodes = (
"1010 1313 LINE",
"1010 1485 LINE",
"455 1260 LINE",
"455 1087 LINE"
);
}
);
width = 1092;
}
);
note = uniA6C2;
unicode = A6C2;
},
{
glyphname = uniA6C3;
lastChange = "2016-11-10 14:11:48 +0000";
layers = (
{
layerId = "71450CB2-F408-4DB3-81C5-B92F6F6BD2DF";
paths = (
{
closed = 1;
nodes = (
"528 0 LINE",
"651 473 LINE",
"697 666 LINE",
"719 772 LINE",
"727 772 LINE",
"799 469 LINE",
"920 0 LINE",
"1120 0 LINE",
"1194 399 OFFCURVE",
"1264 682 OFFCURVE",
"1331 850 CURVE SMOOTH",
"1397 1017 OFFCURVE",
"1476 1143 OFFCURVE",
"1567 1227 CURVE",
"1567 1454 LINE",
"1460 1370 OFFCURVE",
"1373 1278 OFFCURVE",
"1308 1178 CURVE SMOOTH",
"1177 978 OFFCURVE",
"1087 689 OFFCURVE",
"1016 184 CURVE",
"1010 184 LINE",
"999 273 OFFCURVE",
"976 381 OFFCURVE",
"942 510 CURVE SMOOTH",
"825 961 LINE",
"629 961 LINE",
"510 485 LINE",
"438 184 LINE",
"432 184 LINE",
"421 264 OFFCURVE",
"397 373 OFFCURVE",
"360 512 CURVE SMOOTH",
"244 961 LINE",
"57 961 LINE",
"324 0 LINE"
);
}
);
width = 1577;
}
);
note = uniA6C3;
unicode = A6C3;
},
{
glyphname = uniA6C4;
lastChange = "2016-11-10 14:11:48 +0000";
layers = (
{
layerId = "71450CB2-F408-4DB3-81C5-B92F6F6BD2DF";
paths = (
{
closed = 1;
nodes = (
"381 0 LINE",
"381 750 LINE",
"1159 455 LINE",
"1262 455 LINE",
"1262 1376 LINE",
"1159 1376 LINE",
"381 1079 LINE",
"381 1462 LINE",
"199 1462 LINE",
"199 0 LINE"
);
},
{
closed = 1;
nodes = (
"872 750 OFFCURVE",
"518 881 OFFCURVE",
"381 909 CURVE",
"381 918 LINE",
"485 939 OFFCURVE",
"864 1078 OFFCURVE",
"1079 1165 CURVE",
"1079 666 LINE"
);
}
);
width = 1427;
}
);
note = uniA6C4;
unicode = A6C4;
},
{
glyphname = uniA6C5;
lastChange = "2016-11-10 14:11:48 +0000";
layers = (
{
layerId = "71450CB2-F408-4DB3-81C5-B92F6F6BD2DF";
paths = (
{
closed = 1;
nodes = (
"383 -2 LINE",
"383 549 LINE",
"711 731 LINE",
"711 328 LINE",
"895 328 LINE",
"895 1462 LINE",
"711 1462 LINE",
"711 913 LINE",
"383 731 LINE",
"383 1133 LINE",
"199 1133 LINE",
"199 -2 LINE"
);
},
{
closed = 1;
nodes = (
"1189 918 OFFCURVE",
"1233 961 OFFCURVE",
"1233 1032 CURVE SMOOTH",
"1233 1112 OFFCURVE",
"1184 1147 OFFCURVE",
"1128 1147 CURVE SMOOTH",
"1068 1147 OFFCURVE",
"1022 1112 OFFCURVE",
"1022 1032 CURVE SMOOTH",
"1022 953 OFFCURVE",
"1068 918 OFFCURVE",
"1128 918 CURVE SMOOTH"
);
}
);
width = 1233;
}
);
note = uniA6C5;
unicode = A6C5;
},
{
glyphname = uniA6C6;
lastChange = "2016-11-10 14:11:48 +0000";
layers = (
{
layerId = "71450CB2-F408-4DB3-81C5-B92F6F6BD2DF";
paths = (
{
closed = 1;
nodes = (
"967 0 LINE",
"967 1462 LINE",
"782 1462 LINE",
"782 1126 LINE",
"786 971 LINE",
"782 971 LINE",
"709 1059 OFFCURVE",
"580 1116 OFFCURVE",
"401 1116 CURVE SMOOTH",
"304 1116 OFFCURVE",
"209 1095 OFFCURVE",
"136 1067 CURVE SMOOTH",
"82 1047 LINE",
"123 885 LINE",
"167 904 LINE SMOOTH",
"233 935 OFFCURVE",
"307 950 OFFCURVE",
"389 950 CURVE SMOOTH",
"634 950 OFFCURVE",
"782 817 OFFCURVE",
"782 586 CURVE SMOOTH",
"782 357 OFFCURVE",
"559 195 OFFCURVE",
"303 195 CURVE",
"344 31 LINE",
"539 35 OFFCURVE",
"674 92 OFFCURVE",
"782 209 CURVE",
"786 209 LINE",
"783 137 OFFCURVE",
"782 67 OFFCURVE",
"782 0 CURVE"
);
}
);
width = 1165;
}
);
note = uniA6C6;
unicode = A6C6;
},
{
glyphname = uniA6C7;
lastChange = "2016-11-10 14:11:48 +0000";
layers = (
{
layerId = "71450CB2-F408-4DB3-81C5-B92F6F6BD2DF";
paths = (
{
closed = 1;
nodes = (
"1182 365 LINE",
"231 874 LINE",
"231 883 LINE",
"1051 1262 LINE",
"1051 1462 LINE",
"72 979 LINE",
"72 776 LINE",
"1182 160 LINE"
);
},
{
closed = 1;
nodes = (
"1051 766 OFFCURVE",
"1100 802 OFFCURVE",
"1100 881 CURVE SMOOTH",
"1100 960 OFFCURVE",
"1051 995 OFFCURVE",
"995 995 CURVE SMOOTH",
"935 995 OFFCURVE",
"889 960 OFFCURVE",
"889 881 CURVE SMOOTH",
"889 802 OFFCURVE",
"935 766 OFFCURVE",
"995 766 CURVE SMOOTH"
);
}
);
width = 1272;
}
);
note = uniA6C7;
unicode = A6C7;
},
{
glyphname = uniA6C8;
lastChange = "2016-11-10 14:11:48 +0000";
layers = (
{
layerId = "71450CB2-F408-4DB3-81C5-B92F6F6BD2DF";
paths = (
{
closed = 1;
nodes = (
"344 690 LINE",
"344 950 LINE SMOOTH",
"344 1198 OFFCURVE",
"453 1313 OFFCURVE",
"690 1313 CURVE SMOOTH",
"905 1313 OFFCURVE",
"1028 1177 OFFCURVE",
"1028 950 CURVE SMOOTH",
"1028 690 LINE",
"1210 690 LINE",
"1210 963 LINE SMOOTH",
"1210 1282 OFFCURVE",
"1023 1462 OFFCURVE",
"696 1462 CURVE SMOOTH",
"352 1462 OFFCURVE",
"162 1282 OFFCURVE",
"162 963 CURVE SMOOTH",
"162 690 LINE"
);
},
{
closed = 1;
nodes = (
"778 0 LINE",
"778 1022 LINE",
"594 1022 LINE",
"594 0 LINE"
);
}
);
width = 1372;
}
);
note = uniA6C8;
unicode = A6C8;
},
{
glyphname = uniA6C9;
lastChange = "2016-11-10 14:11:48 +0000";
layers = (
{
layerId = "71450CB2-F408-4DB3-81C5-B92F6F6BD2DF";
paths = (
{
closed = 1;
nodes = (
"1092 0 LINE",
"1092 164 LINE",
"301 164 LINE",
"1071 1323 LINE",
"1071 1462 LINE",
"102 1462 LINE",
"102 1298 LINE",
"848 1298 LINE",
"78 139 LINE",
"78 0 LINE"
);
}
);
width = 1171;
}
);
note = uniA6C9;
unicode = A6C9;
},
{
glyphname = uniA6CA;
lastChange = "2016-11-10 14:11:48 +0000";
layers = (
{
layerId = "71450CB2-F408-4DB3-81C5-B92F6F6BD2DF";
paths = (
{
closed = 1;
nodes = (
"98 2 LINE SMOOTH",
"354 2 OFFCURVE",
"531 179 OFFCURVE",
"594 522 CURVE",
"681 414 OFFCURVE",
"832 344 OFFCURVE",
"999 344 CURVE SMOOTH",
"1279 344 OFFCURVE",
"1460 513 OFFCURVE",
"1460 778 CURVE SMOOTH",
"1460 1010 OFFCURVE",
"1331 1167 OFFCURVE",
"1112 1167 CURVE SMOOTH",
"917 1167 OFFCURVE",
"786 1012 OFFCURVE",
"786 768 CURVE SMOOTH",
"786 754 LINE",
"971 754 LINE",
"971 786 LINE SMOOTH",
"971 939 OFFCURVE",
"1021 1016 OFFCURVE",
"1120 1016 CURVE SMOOTH",
"1212 1016 OFFCURVE",
"1278 917 OFFCURVE",
"1278 788 CURVE SMOOTH",
"1278 601 OFFCURVE",
"1172 494 OFFCURVE",
"987 494 CURVE SMOOTH",
"798 494 OFFCURVE",
"643 636 OFFCURVE",
"643 857 CURVE SMOOTH",
"643 912 OFFCURVE",
"647 984 OFFCURVE",
"655 1073 CURVE SMOOTH",
"696 1462 LINE",
"512 1462 LINE",
"442 723 LINE SMOOTH",
"406 350 OFFCURVE",
"281 162 OFFCURVE",
"74 162 CURVE SMOOTH",
"14 162 LINE",
"14 2 LINE"
);
}
);
width = 1532;
}
);
note = uniA6CA;
unicode = A6CA;
},
{
glyphname = uniA6CB;
lastChange = "2016-11-10 14:11:48 +0000";
layers = (
{
layerId = "71450CB2-F408-4DB3-81C5-B92F6F6BD2DF";
paths = (
{
closed = 1;
nodes = (
"762 0 LINE",
"946 1317 LINE",
"1153 1317 LINE",
"1153 1462 LINE",
"508 1462 LINE",
"508 1317 LINE",
"743 1317 LINE",
"88 909 LINE",
"180 756 LINE",
"571 1002 LINE SMOOTH",
"656 1055 OFFCURVE",
"719 1102 OFFCURVE",
"760 1143 CURVE",
"733 1028 OFFCURVE",
"711 918 OFFCURVE",
"696 813 CURVE SMOOTH",
"573 0 LINE"
);
}
);
width = 1153;
}
);
note = uniA6CB;
unicode = A6CB;
},
{
glyphname = uniA6CC;
lastChange = "2016-11-10 14:11:48 +0000";
layers = (
{
layerId = "71450CB2-F408-4DB3-81C5-B92F6F6BD2DF";
paths = (
{
closed = 1;
nodes = (
"751 250 OFFCURVE",
"920 353 OFFCURVE",
"920 522 CURVE SMOOTH",
"920 634 OFFCURVE",
"855 708 OFFCURVE",
"676 752 CURVE",
"676 760 LINE",
"813 795 OFFCURVE",
"881 867 OFFCURVE",
"881 975 CURVE SMOOTH",
"881 1130 OFFCURVE",
"715 1223 OFFCURVE",
"459 1223 CURVE SMOOTH",
"328 1223 OFFCURVE",
"220 1204 OFFCURVE",
"88 1145 CURVE",
"156 1012 LINE",
"271 1056 OFFCURVE",
"351 1073 OFFCURVE",
"459 1073 CURVE SMOOTH",
"606 1073 OFFCURVE",
"709 1027 OFFCURVE",
"709 956 CURVE SMOOTH",
"709 873 OFFCURVE",
"604 831 OFFCURVE",
"395 831 CURVE SMOOTH",
"281 831 LINE",
"281 684 LINE",
"430 684 LINE SMOOTH",
"636 684 OFFCURVE",
"739 636 OFFCURVE",
"739 539 CURVE SMOOTH",
"739 450 OFFCURVE",
"633 397 OFFCURVE",
"449 397 CURVE SMOOTH",
"329 397 OFFCURVE",
"210 422 OFFCURVE",
"92 471 CURVE",
"92 326 LINE",
"186 275 OFFCURVE",
"308 250 OFFCURVE",
"459 250 CURVE SMOOTH"
);
},
{
closed = 1;
nodes = (
"536 -20 OFFCURVE",
"580 23 OFFCURVE",
"580 94 CURVE SMOOTH",
"580 163 OFFCURVE",
"540 209 OFFCURVE",
"475 209 CURVE SMOOTH",
"415 209 OFFCURVE",
"369 174 OFFCURVE",
"369 94 CURVE SMOOTH",
"369 15 OFFCURVE",
"415 -20 OFFCURVE",
"475 -20 CURVE SMOOTH"
);
},
{
closed = 1;
nodes = (
"538 1255 OFFCURVE",
"580 1298 OFFCURVE",
"580 1370 CURVE SMOOTH",
"580 1439 OFFCURVE",
"540 1485 OFFCURVE",
"475 1485 CURVE SMOOTH",
"415 1485 OFFCURVE",
"369 1450 OFFCURVE",
"369 1370 CURVE SMOOTH",
"369 1291 OFFCURVE",
"415 1255 OFFCURVE",
"475 1255 CURVE SMOOTH"
);
}
);
width = 989;
}
);
note = uniA6CC;
unicode = A6CC;
},
{
glyphname = uniA6CD;
lastChange = "2016-11-10 14:11:48 +0000";
layers = (
{
layerId = "71450CB2-F408-4DB3-81C5-B92F6F6BD2DF";
paths = (
{
closed = 1;
nodes = (
"649 0 LINE",
"649 295 LINE",
"965 295 LINE",
"965 440 LINE",
"649 440 LINE",
"649 598 LINE",
"869 637 OFFCURVE",
"1006 807 OFFCURVE",
"1006 1038 CURVE SMOOTH",
"1006 1299 OFFCURVE",
"824 1485 OFFCURVE",
"561 1485 CURVE SMOOTH",
"294 1485 OFFCURVE",
"116 1307 OFFCURVE",
"113 1038 CURVE",
"299 1038 LINE",
"302 1221 OFFCURVE",
"397 1333 OFFCURVE",
"557 1333 CURVE SMOOTH",
"718 1333 OFFCURVE",
"819 1215 OFFCURVE",
"819 1038 CURVE SMOOTH",
"819 857 OFFCURVE",
"724 748 OFFCURVE",
"563 741 CURVE",
"469 741 LINE",
"469 440 LINE",
"154 440 LINE",
"154 295 LINE",
"469 295 LINE",
"469 0 LINE"
);
}
);
width = 1118;
}
);
note = uniA6CD;
unicode = A6CD;
},
{
glyphname = uniA6CE;
lastChange = "2016-11-10 14:11:48 +0000";
layers = (
{
layerId = "71450CB2-F408-4DB3-81C5-B92F6F6BD2DF";
paths = (
{
closed = 1;
nodes = (
"195 0 LINE",
"522 934 LINE SMOOTH",
"563 1048 OFFCURVE",
"594 1156 OFFCURVE",
"614 1257 CURVE",
"636 1158 OFFCURVE",
"667 1052 OFFCURVE",
"707 938 CURVE SMOOTH",
"1036 0 LINE",
"1229 0 LINE",
"707 1462 LINE",
"522 1462 LINE",
"0 0 LINE"
);
}
);
width = 1229;
}
);
note = uniA6CE;
unicode = A6CE;
},
{
glyphname = uniA6CF;
lastChange = "2016-11-10 14:11:48 +0000";
layers = (
{
layerId = "71450CB2-F408-4DB3-81C5-B92F6F6BD2DF";
paths = (
{
closed = 1;
nodes = (
"272 367 LINE",
"351 677 OFFCURVE",
"396 856 OFFCURVE",
"407 904 CURVE SMOOTH",
"418 952 OFFCURVE",
"426 997 OFFCURVE",
"432 1038 CURVE",
"438 1038 LINE",
"475 883 OFFCURVE",
"501 784 OFFCURVE",
"514 743 CURVE SMOOTH",
"633 367 LINE",
"829 367 LINE",
"942 743 LINE SMOOTH",
"980 858 OFFCURVE",
"1005 955 OFFCURVE",
"1016 1036 CURVE",
"1024 1036 LINE",
"1029 992 OFFCURVE",
"1054 884 OFFCURVE",
"1098 711 CURVE SMOOTH",
"1184 367 LINE",
"1368 367 LINE",
"1130 1223 LINE",
"920 1223 LINE",
"807 846 LINE SMOOTH",
"789 791 OFFCURVE",
"764 694 OFFCURVE",
"731 555 CURVE",
"723 555 LINE",
"690 694 OFFCURVE",
"666 792 OFFCURVE",
"649 848 CURVE SMOOTH",
"528 1223 LINE",
"324 1223 LINE",
"86 367 LINE"
);
},
{
closed = 1;
nodes = (
"819 0 LINE",
"819 258 LINE",
"637 258 LINE",
"637 0 LINE"
);
},
{
closed = 1;
nodes = (
"1028 1317 LINE",
"1028 1462 LINE",
"420 1462 LINE",
"420 1317 LINE"
);
}
);
width = 1454;
}
);
note = uniA6CF;
unicode = A6CF;
},
{
glyphname = uniA6D0;
lastChange = "2016-11-10 14:11:48 +0000";
layers = (
{
layerId = "71450CB2-F408-4DB3-81C5-B92F6F6BD2DF";
paths = (
{
closed = 1;
nodes = (
"774 809 LINE",
"774 971 LINE",
"608 971 LINE SMOOTH",
"389 971 OFFCURVE",
"287 1021 OFFCURVE",
"287 1137 CURVE SMOOTH",
"287 1256 OFFCURVE",
"385 1300 OFFCURVE",
"608 1300 CURVE SMOOTH",
"774 1300 LINE",
"774 1462 LINE",
"608 1462 LINE SMOOTH",
"272 1462 OFFCURVE",
"100 1362 OFFCURVE",
"100 1137 CURVE SMOOTH",
"100 920 OFFCURVE",
"279 809 OFFCURVE",
"608 809 CURVE SMOOTH"
);
},
{
closed = 1;
nodes = (
"582 0 LINE",
"582 684 LINE",
"397 684 LINE",
"397 0 LINE"
);
}
);
width = 952;
}
);
note = uniA6D0;
unicode = A6D0;
},
{
glyphname = uniA6D1;
lastChange = "2016-11-10 13:44:54 +0000";
layers = (
{
layerId = "71450CB2-F408-4DB3-81C5-B92F6F6BD2DF";
paths = (
{
closed = 1;
nodes = (
"272 -20 LINE SMOOTH",
"773 -20 OFFCURVE",
"1040 246 OFFCURVE",
"1040 733 CURVE SMOOTH",
"1040 1216 OFFCURVE",
"781 1485 OFFCURVE",
"309 1485 CURVE SMOOTH",
"229 1485 LINE",
"229 1323 LINE",
"313 1323 LINE SMOOTH",
"669 1323 OFFCURVE",
"846 1134 OFFCURVE",
"846 733 CURVE SMOOTH",
"846 333 OFFCURVE",
"669 139 OFFCURVE",
"289 139 CURVE SMOOTH",
"229 139 LINE",
"229 -20 LINE"
);
},
{
closed = 1;
nodes = (
"1225 1122 OFFCURVE",
"1272 1158 OFFCURVE",
"1272 1237 CURVE SMOOTH",
"1272 1317 OFFCURVE",
"1225 1352 OFFCURVE",
"1165 1352 CURVE SMOOTH",
"1101 1352 OFFCURVE",
"1061 1308 OFFCURVE",
"1061 1237 CURVE SMOOTH",
"1061 1164 OFFCURVE",
"1105 1122 OFFCURVE",
"1165 1122 CURVE SMOOTH"
);
}
);
width = 1272;
}
);
note = uniA6D1;
unicode = A6D1;
},
{
glyphname = uniA6D2;
lastChange = "2016-11-10 14:11:48 +0000";
layers = (
{
layerId = "71450CB2-F408-4DB3-81C5-B92F6F6BD2DF";
paths = (
{
closed = 1;
nodes = (
"784 172 LINE",
"506 319 LINE",
"651 465 LINE SMOOTH",
"914 728 OFFCURVE",
"1006 907 OFFCURVE",
"1006 1094 CURVE SMOOTH",
"1006 1330 OFFCURVE",
"841 1483 OFFCURVE",
"596 1483 CURVE SMOOTH",
"499 1483 OFFCURVE",
"420 1464 OFFCURVE",
"360 1427 CURVE",
"418 1284 LINE",
"473 1311 OFFCURVE",
"521 1329 OFFCURVE",
"586 1329 CURVE SMOOTH",
"729 1329 OFFCURVE",
"821 1231 OFFCURVE",
"821 1083 CURVE SMOOTH",
"821 822 OFFCURVE",
"502 532 OFFCURVE",
"371 393 CURVE",
"51 563 LINE",
"51 371 LINE",
"784 -20 LINE"
);
}
);
width = 1065;
}
);
note = uniA6D2;
unicode = A6D2;
},
{
glyphname = uniA6D3;
lastChange = "2016-11-10 14:11:48 +0000";
layers = (
{
layerId = "71450CB2-F408-4DB3-81C5-B92F6F6BD2DF";
paths = (
{
closed = 1;
nodes = (
"672 0 LINE",
"672 752 LINE",
"719 748 OFFCURVE",
"768 745 OFFCURVE",
"815 745 CURVE SMOOTH",
"1088 745 OFFCURVE",
"1262 899 OFFCURVE",
"1262 1122 CURVE SMOOTH",
"1262 1342 OFFCURVE",
"1113 1485 OFFCURVE",
"877 1485 CURVE SMOOTH",
"620 1485 OFFCURVE",
"489 1315 OFFCURVE",
"489 1010 CURVE SMOOTH",
"489 942 LINE",
"352 975 OFFCURVE",
"230 1026 OFFCURVE",
"113 1083 CURVE",
"41 940 LINE",
"153 869 OFFCURVE",
"314 811 OFFCURVE",
"489 778 CURVE",
"489 0 LINE"
);
},
{
closed = 1;
nodes = (
"1190 0 LINE",
"1190 641 LINE",
"1006 641 LINE",
"1006 0 LINE"
);
},
{
closed = 1;
nodes = (
"756 905 OFFCURVE",
"713 907 OFFCURVE",
"672 911 CURVE",
"672 1001 LINE SMOOTH",
"672 1214 OFFCURVE",
"735 1325 OFFCURVE",
"879 1325 CURVE SMOOTH",
"1002 1325 OFFCURVE",
"1079 1243 OFFCURVE",
"1079 1130 CURVE SMOOTH",
"1079 993 OFFCURVE",
"986 905 OFFCURVE",
"803 905 CURVE SMOOTH"
);
}
);
width = 1391;
}
);
note = uniA6D3;
unicode = A6D3;
},
{
glyphname = uniA6D4;
lastChange = "2016-11-10 14:11:48 +0000";
layers = (
{
layerId = "71450CB2-F408-4DB3-81C5-B92F6F6BD2DF";
paths = (
{
closed = 1;
nodes = (
"350 0 LINE",
"350 391 LINE SMOOTH",
"350 627 OFFCURVE",
"426 730 OFFCURVE",
"633 754 CURVE",
"633 0 LINE",
"817 0 LINE",
"817 754 LINE",
"1038 734 OFFCURVE",
"1106 618 OFFCURVE",
"1106 395 CURVE SMOOTH",
"1106 0 LINE",
"1294 0 LINE",
"1294 393 LINE SMOOTH",
"1294 713 OFFCURVE",
"1133 891 OFFCURVE",
"817 911 CURVE",
"817 1462 LINE",
"633 1462 LINE",
"633 911 LINE",
"326 888 OFFCURVE",
"166 721 OFFCURVE",
"166 385 CURVE SMOOTH",
"166 0 LINE"
);
},
{
closed = 1;
nodes = (
"1247 1071 OFFCURVE",
"1290 1113 OFFCURVE",
"1290 1186 CURVE SMOOTH",
"1290 1257 OFFCURVE",
"1249 1300 OFFCURVE",
"1186 1300 CURVE SMOOTH",
"1126 1300 OFFCURVE",
"1079 1265 OFFCURVE",
"1079 1186 CURVE SMOOTH",
"1079 1107 OFFCURVE",
"1126 1071 OFFCURVE",
"1186 1071 CURVE SMOOTH"
);
}
);
width = 1460;
}
);
note = uniA6D4;
unicode = A6D4;
},
{
glyphname = uniA6D5;
lastChange = "2016-11-10 14:11:48 +0000";
layers = (
{
layerId = "71450CB2-F408-4DB3-81C5-B92F6F6BD2DF";
paths = (
{
closed = 1;
nodes = (
"305 0 LINE",
"932 317 LINE",
"932 510 LINE",
"609 346 OFFCURVE",
"440 260 OFFCURVE",
"425 251 CURVE SMOOTH",
"379 225 LINE",
"382 270 OFFCURVE",
"383 339 OFFCURVE",
"383 430 CURVE SMOOTH",
"383 1032 LINE SMOOTH",
"383 1124 OFFCURVE",
"382 1192 OFFCURVE",
"379 1237 CURVE",
"438 1202 OFFCURVE",
"500 1169 OFFCURVE",
"563 1137 CURVE SMOOTH",
"932 952 LINE",
"932 1145 LINE",
"305 1462 LINE",
"199 1462 LINE",
"199 0 LINE"
);
}
);
width = 1065;
}
);
note = uniA6D5;
unicode = A6D5;
},
{
glyphname = uniA6D6;
lastChange = "2016-11-10 14:11:48 +0000";
layers = (
{
layerId = "71450CB2-F408-4DB3-81C5-B92F6F6BD2DF";
paths = (
{
closed = 1;
nodes = (
"383 0 LINE",
"383 682 LINE",
"840 682 LINE",
"840 0 LINE",
"1024 0 LINE",
"1024 844 LINE",
"383 844 LINE",
"383 1462 LINE",
"199 1462 LINE",
"199 0 LINE"
);
}
);
width = 1186;
}
);
note = uniA6D6;
unicode = A6D6;
},
{
glyphname = uniA6D7;
lastChange = "2016-11-10 14:11:48 +0000";
layers = (
{
layerId = "71450CB2-F408-4DB3-81C5-B92F6F6BD2DF";
paths = (
{
closed = 1;
nodes = (
"459 0 LINE",
"385 299 OFFCURVE",
"348 572 OFFCURVE",
"348 819 CURVE SMOOTH",
"348 1170 OFFCURVE",
"446 1289 OFFCURVE",
"653 1321 CURVE",
"653 682 LINE",
"838 682 LINE",
"838 1323 LINE",
"1033 1298 OFFCURVE",
"1124 1187 OFFCURVE",
"1124 971 CURVE SMOOTH",
"1124 682 LINE",
"1307 682 LINE",
"1307 948 LINE SMOOTH",
"1307 1311 OFFCURVE",
"1129 1485 OFFCURVE",
"758 1485 CURVE SMOOTH",
"349 1485 OFFCURVE",
"166 1286 OFFCURVE",
"166 819 CURVE SMOOTH",
"166 560 OFFCURVE",
"211 245 OFFCURVE",
"279 0 CURVE"
);
}
);
width = 1473;
}
);
note = uniA6D7;
unicode = A6D7;
},
{
glyphname = uniA6D8;
lastChange = "2016-11-10 14:11:48 +0000";
layers = (
{
layerId = "71450CB2-F408-4DB3-81C5-B92F6F6BD2DF";
paths = (
{
closed = 1;
nodes = (
"465 0 LINE",
"1008 815 LINE SMOOTH",
"1055 890 OFFCURVE",
"1111 987 OFFCURVE",
"1174 1106 CURVE",
"1180 1104 LINE",
"1163 1040 OFFCURVE",
"1143 930 OFFCURVE",
"1122 774 CURVE SMOOTH",
"1006 0 LINE",
"1194 0 LINE",
"1401 1462 LINE",
"1233 1462 LINE",
"567 475 LINE SMOOTH",
"510 390 OFFCURVE",
"462 308 OFFCURVE",
"422 227 CURVE",
"419 267 OFFCURVE",
"408 357 OFFCURVE",
"389 498 CURVE SMOOTH",
"279 1235 LINE",
"649 1012 LINE",
"649 1212 LINE",
"240 1462 LINE",
"70 1462 LINE",
"276 0 LINE"
);
}
);
width = 1470;
}
);
note = uniA6D8;
unicode = A6D8;
},
{
glyphname = uniA6D9;
lastChange = "2016-11-10 14:11:48 +0000";
layers = (
{
layerId = "71450CB2-F408-4DB3-81C5-B92F6F6BD2DF";
paths = (
{
closed = 1;
nodes = (
"731 0 LINE",
"846 813 LINE",
"1229 1016 LINE",
"1163 1145 LINE",
"870 991 LINE",
"938 1462 LINE",
"762 1462 LINE",
"76 1036 LINE",
"168 883 LINE",
"424 1044 OFFCURVE",
"576 1141 OFFCURVE",
"625 1173 CURVE SMOOTH",
"674 1204 OFFCURVE",
"715 1237 OFFCURVE",
"748 1270 CURVE",
"716 1137 OFFCURVE",
"695 1027 OFFCURVE",
"684 940 CURVE SMOOTH",
"676 889 LINE",
"268 674 LINE",
"334 545 LINE",
"649 711 LINE",
"543 0 LINE"
);
}
);
width = 1229;
}
);
note = uniA6D9;
unicode = A6D9;
},
{
glyphname = uniA6DA;
lastChange = "2016-11-10 14:11:48 +0000";
layers = (
{
layerId = "71450CB2-F408-4DB3-81C5-B92F6F6BD2DF";
paths = (
{
closed = 1;
nodes = (
"1022 0 LINE",
"1022 160 LINE",
"383 160 LINE",
"383 1462 LINE",
"199 1462 LINE",
"199 0 LINE"
);
},
{
closed = 1;
nodes = (
"758 369 OFFCURVE",
"807 405 OFFCURVE",
"807 484 CURVE SMOOTH",
"807 563 OFFCURVE",
"758 598 OFFCURVE",
"702 598 CURVE SMOOTH",
"642 598 OFFCURVE",
"596 563 OFFCURVE",
"596 484 CURVE SMOOTH",
"596 405 OFFCURVE",
"642 369 OFFCURVE",
"702 369 CURVE SMOOTH"
);
}
);
width = 1073;
}
);
note = uniA6DA;
unicode = A6DA;
},
{
glyphname = uniA6DB;
lastChange = "2016-11-10 14:11:48 +0000";
layers = (
{
layerId = "71450CB2-F408-4DB3-81C5-B92F6F6BD2DF";
paths = (
{
closed = 1;
nodes = (
"383 0 LINE",
"383 1300 LINE",
"952 1300 LINE",
"952 0 LINE",
"1135 0 LINE",
"1135 1462 LINE",
"199 1462 LINE",
"199 0 LINE"
);
}
);
width = 1333;
}
);
note = uniA6DB;
unicode = A6DB;
},
{
glyphname = uniA6DC;
lastChange = "2016-11-10 14:11:48 +0000";
layers = (
{
layerId = "71450CB2-F408-4DB3-81C5-B92F6F6BD2DF";
paths = (
{
closed = 1;
nodes = (
"918 0 LINE",
"1029 185 OFFCURVE",
"1102 425 OFFCURVE",
"1102 616 CURVE SMOOTH",
"1102 1008 OFFCURVE",
"939 1196 OFFCURVE",
"614 1196 CURVE SMOOTH",
"342 1196 OFFCURVE",
"166 1027 OFFCURVE",
"166 762 CURVE SMOOTH",
"166 526 OFFCURVE",
"283 373 OFFCURVE",
"475 373 CURVE SMOOTH",
"652 373 OFFCURVE",
"766 503 OFFCURVE",
"766 735 CURVE SMOOTH",
"766 753 OFFCURVE",
"765 770 OFFCURVE",
"762 786 CURVE",
"580 786 LINE",
"582 768 LINE",
"582 739 LINE SMOOTH",
"582 594 OFFCURVE",
"539 524 OFFCURVE",
"467 524 CURVE SMOOTH",
"398 524 OFFCURVE",
"348 623 OFFCURVE",
"348 752 CURVE SMOOTH",
"348 943 OFFCURVE",
"446 1049 OFFCURVE",
"614 1049 CURVE SMOOTH",
"813 1049 OFFCURVE",
"920 905 OFFCURVE",
"920 616 CURVE SMOOTH",
"920 434 OFFCURVE",
"859 229 OFFCURVE",
"737 0 CURVE"
);
},
{
closed = 1;
nodes = (
"670 1255 OFFCURVE",
"719 1291 OFFCURVE",
"719 1370 CURVE SMOOTH",
"719 1450 OFFCURVE",
"670 1485 OFFCURVE",
"614 1485 CURVE SMOOTH",
"554 1485 OFFCURVE",
"508 1450 OFFCURVE",
"508 1370 CURVE SMOOTH",
"508 1291 OFFCURVE",
"554 1255 OFFCURVE",
"614 1255 CURVE SMOOTH"
);
}
);
width = 1268;
}
);
note = uniA6DC;
unicode = A6DC;
},
{
glyphname = uniA6DD;
lastChange = "2016-11-10 14:11:48 +0000";
layers = (
{
layerId = "71450CB2-F408-4DB3-81C5-B92F6F6BD2DF";
paths = (
{
closed = 1;
nodes = (
"879 0 LINE",
"1019 257 OFFCURVE",
"1102 566 OFFCURVE",
"1102 819 CURVE SMOOTH",
"1102 1268 OFFCURVE",
"939 1485 OFFCURVE",
"614 1485 CURVE SMOOTH",
"353 1485 OFFCURVE",
"166 1299 OFFCURVE",
"166 1004 CURVE SMOOTH",
"166 733 OFFCURVE",
"351 535 OFFCURVE",
"614 535 CURVE SMOOTH",
"726 535 OFFCURVE",
"824 573 OFFCURVE",
"907 649 CURVE",
"879 448 OFFCURVE",
"806 231 OFFCURVE",
"688 0 CURVE"
);
},
{
closed = 1;
nodes = (
"453 682 OFFCURVE",
"348 806 OFFCURVE",
"348 1006 CURVE SMOOTH",
"348 1206 OFFCURVE",
"450 1337 OFFCURVE",
"614 1337 CURVE SMOOTH",
"807 1337 OFFCURVE",
"913 1173 OFFCURVE",
"920 844 CURVE",
"829 735 OFFCURVE",
"724 682 OFFCURVE",
"621 682 CURVE SMOOTH"
);
},
{
closed = 1;
nodes = (
"1339 864 OFFCURVE",
"1382 907 OFFCURVE",
"1382 979 CURVE SMOOTH",
"1382 1050 OFFCURVE",
"1342 1094 OFFCURVE",
"1278 1094 CURVE SMOOTH",
"1218 1094 OFFCURVE",
"1171 1059 OFFCURVE",
"1171 979 CURVE SMOOTH",
"1171 900 OFFCURVE",
"1219 864 OFFCURVE",
"1278 864 CURVE SMOOTH"
);
}
);
width = 1368;
}
);
note = uniA6DD;
unicode = A6DD;
},
{
glyphname = uniA6DE;
lastChange = "2016-11-10 14:11:48 +0000";
layers = (
{
layerId = "71450CB2-F408-4DB3-81C5-B92F6F6BD2DF";
paths = (
{
closed = 1;
nodes = (
"383 0 LINE",
"383 682 LINE",
"1024 682 LINE",
"1024 1462 LINE",
"199 1462 LINE",
"199 1300 LINE",
"840 1300 LINE",
"840 844 LINE",
"199 844 LINE",
"199 0 LINE"
);
}
);
width = 1186;
}
);
note = uniA6DE;
unicode = A6DE;
},
{
glyphname = uniA6DF;
lastChange = "2016-11-10 14:11:48 +0000";
layers = (
{
layerId = "71450CB2-F408-4DB3-81C5-B92F6F6BD2DF";
paths = (
{
closed = 1;
nodes = (
"707 0 LINE",
"1229 1462 LINE",
"1034 1462 LINE",
"707 528 LINE SMOOTH",
"664 413 OFFCURVE",
"633 306 OFFCURVE",
"614 205 CURVE",
"595 299 OFFCURVE",
"564 405 OFFCURVE",
"522 524 CURVE SMOOTH",
"193 1462 LINE",
"0 1462 LINE",
"522 0 LINE"
);
}
);
width = 1229;
}
);
note = uniA6DF;
unicode = A6DF;
},
{
glyphname = uniA6E0;
lastChange = "2016-11-10 14:11:48 +0000";
layers = (
{
layerId = "71450CB2-F408-4DB3-81C5-B92F6F6BD2DF";
paths = (
{
closed = 1;
nodes = (
"641 0 LINE",
"641 573 LINE",
"1221 938 LINE",
"1221 1087 LINE",
"616 1462 LINE",
"457 1462 LINE",
"457 670 LINE",
"14 393 LINE",
"106 240 LINE",
"457 459 LINE",
"457 0 LINE"
);
},
{
closed = 1;
nodes = (
"641 1241 LINE",
"1024 1010 LINE",
"641 778 LINE"
);
}
);
width = 1305;
}
);
note = uniA6E0;
unicode = A6E0;
},
{
glyphname = uniA6E1;
lastChange = "2016-11-10 14:11:48 +0000";
layers = (
{
layerId = "71450CB2-F408-4DB3-81C5-B92F6F6BD2DF";
paths = (
{
closed = 1;
nodes = (
"665 487 OFFCURVE",
"786 545 OFFCURVE",
"886 662 CURVE SMOOTH",
"983 776 LINE",
"1100 583 OFFCURVE",
"1243 487 OFFCURVE",
"1434 487 CURVE SMOOTH",
"1618 487 OFFCURVE",
"1776 604 OFFCURVE",
"1831 772 CURVE",
"1663 842 LINE",
"1627 710 OFFCURVE",
"1541 637 OFFCURVE",
"1434 637 CURVE SMOOTH",
"1306 637 OFFCURVE",
"1208 714 OFFCURVE",
"1100 922 CURVE",
"1458 1360 LINE",
"1333 1462 LINE",
"1022 1079 LINE",
"883 1347 OFFCURVE",
"741 1462 OFFCURVE",
"532 1462 CURVE SMOOTH",
"273 1462 OFFCURVE",
"92 1270 OFFCURVE",
"92 973 CURVE SMOOTH",
"92 678 OFFCURVE",
"265 487 OFFCURVE",
"524 487 CURVE SMOOTH"
);
},
{
closed = 1;
nodes = (
"1563 141 LINE",
"1563 291 LINE",
"319 291 LINE",
"319 141 LINE"
);
},
{
closed = 1;
nodes = (
"374 637 OFFCURVE",
"274 765 OFFCURVE",
"274 973 CURVE SMOOTH",
"274 1185 OFFCURVE",
"372 1313 OFFCURVE",
"537 1313 CURVE SMOOTH",
"602 1313 OFFCURVE",
"663 1285 OFFCURVE",
"719 1230 CURVE SMOOTH",
"775 1175 OFFCURVE",
"836 1076 OFFCURVE",
"901 934 CURVE",
"901 930 LINE",
"840 853 OFFCURVE",
"706 637 OFFCURVE",
"537 637 CURVE SMOOTH"
);
}
);
width = 1882;
}
);
note = uniA6E1;
unicode = A6E1;
},
{
glyphname = uniA6E2;
lastChange = "2016-11-10 14:11:48 +0000";
layers = (
{
layerId = "71450CB2-F408-4DB3-81C5-B92F6F6BD2DF";
paths = (
{
closed = 1;
nodes = (
"833 -20 OFFCURVE",
"922 -3 OFFCURVE",
"1008 31 CURVE",
"1008 190 LINE",
"928 158 OFFCURVE",
"825 139 OFFCURVE",
"748 139 CURVE SMOOTH",
"475 139 OFFCURVE",
"319 299 OFFCURVE",
"319 578 CURVE SMOOTH",
"319 873 OFFCURVE",
"499 1047 OFFCURVE",
"811 1047 CURVE SMOOTH",
"936 1047 LINE",
"936 1219 LINE",
"168 1483 LINE",
"168 1311 LINE",
"353 1247 OFFCURVE",
"464 1209 OFFCURVE",
"503 1198 CURVE SMOOTH",
"541 1187 OFFCURVE",
"578 1176 OFFCURVE",
"614 1167 CURVE",
"614 1163 LINE",
"317 1107 OFFCURVE",
"125 874 OFFCURVE",
"125 575 CURVE SMOOTH",
"125 203 OFFCURVE",
"358 -20 OFFCURVE",
"741 -20 CURVE SMOOTH"
);
}
);
width = 1087;
}
);
note = uniA6E2;
unicode = A6E2;
},
{
glyphname = uniA6E3;
lastChange = "2016-11-10 14:11:48 +0000";
layers = (
{
layerId = "71450CB2-F408-4DB3-81C5-B92F6F6BD2DF";
paths = (
{
closed = 1;
nodes = (
"987 0 LINE",
"987 1206 LINE",
"346 1206 LINE",
"346 1462 LINE",
"162 1462 LINE",
"162 778 LINE",
"346 778 LINE",
"346 1044 LINE",
"803 1044 LINE",
"803 0 LINE"
);
}
);
width = 1186;
}
);
note = uniA6E3;
unicode = A6E3;
},
{
glyphname = uniA6E4;
lastChange = "2016-11-10 14:11:48 +0000";
layers = (
{
layerId = "71450CB2-F408-4DB3-81C5-B92F6F6BD2DF";
paths = (
{
closed = 1;
nodes = (
"393 0 LINE",
"419 141 OFFCURVE",
"432 294 OFFCURVE",
"432 461 CURVE SMOOTH",
"432 778 OFFCURVE",
"359 1111 OFFCURVE",
"213 1462 CURVE",
"33 1462 LINE",
"200 1037 OFFCURVE",
"250 761 OFFCURVE",
"250 430 CURVE SMOOTH",
"250 294 OFFCURVE",
"238 151 OFFCURVE",
"213 0 CURVE"
);
},
{
closed = 1;
nodes = (
"567 692 LINE SMOOTH",
"895 697 OFFCURVE",
"1108 857 OFFCURVE",
"1108 1081 CURVE SMOOTH",
"1108 1314 OFFCURVE",
"912 1462 OFFCURVE",
"567 1462 CURVE SMOOTH",
"477 1462 LINE",
"477 1313 LINE",
"551 1313 LINE SMOOTH",
"794 1313 OFFCURVE",
"922 1232 OFFCURVE",
"922 1087 CURVE SMOOTH",
"922 931 OFFCURVE",
"782 840 OFFCURVE",
"551 840 CURVE SMOOTH",
"477 840 LINE",
"477 690 LINE"
);
}
);
width = 1180;
}
);
note = uniA6E4;
unicode = A6E4;
},
{
glyphname = uniA6E5;
lastChange = "2016-11-10 14:11:48 +0000";
layers = (
{
layerId = "71450CB2-F408-4DB3-81C5-B92F6F6BD2DF";
paths = (
{
closed = 1;
nodes = (
"383 0 LINE",
"383 1059 LINE",
"575 1059 LINE",
"615 892 OFFCURVE",
"782 809 OFFCURVE",
"1075 809 CURVE SMOOTH",
"1221 809 LINE",
"1221 971 LINE",
"1075 971 LINE SMOOTH",
"856 971 OFFCURVE",
"754 1021 OFFCURVE",
"754 1137 CURVE SMOOTH",
"754 1256 OFFCURVE",
"851 1300 OFFCURVE",
"1075 1300 CURVE SMOOTH",
"1221 1300 LINE",
"1221 1462 LINE",
"1075 1462 LINE SMOOTH",
"778 1462 OFFCURVE",
"612 1382 OFFCURVE",
"575 1221 CURVE",
"199 1221 LINE",
"199 0 LINE"
);
}
);
width = 1321;
}
);
note = uniA6E5;
unicode = A6E5;
},
{
glyphname = uniA6E6;
lastChange = "2016-11-10 14:11:48 +0000";
layers = (
{
layerId = "71450CB2-F408-4DB3-81C5-B92F6F6BD2DF";
paths = (
{
closed = 1;
nodes = (
"805 0 LINE",
"900 120 OFFCURVE",
"961 240 OFFCURVE",
"961 373 CURVE SMOOTH",
"961 598 OFFCURVE",
"834 736 OFFCURVE",
"602 752 CURVE",
"602 1313 LINE",
"918 1313 LINE",
"918 1462 LINE",
"102 1462 LINE",
"102 1313 LINE",
"418 1313 LINE",
"418 752 LINE",
"102 752 LINE",
"102 602 LINE",
"485 602 LINE SMOOTH",
"679 602 OFFCURVE",
"776 520 OFFCURVE",
"776 356 CURVE SMOOTH",
"776 236 OFFCURVE",
"737 141 OFFCURVE",
"625 0 CURVE"
);
}
);
width = 1020;
}
);
note = uniA6E6;
unicode = A6E6;
},
{
glyphname = uniA6E7;
lastChange = "2016-11-10 14:11:48 +0000";
layers = (
{
layerId = "71450CB2-F408-4DB3-81C5-B92F6F6BD2DF";
paths = (
{
closed = 1;
nodes = (
"805 0 LINE",
"900 120 OFFCURVE",
"961 240 OFFCURVE",
"961 373 CURVE SMOOTH",
"961 598 OFFCURVE",
"834 736 OFFCURVE",
"602 752 CURVE",
"602 1462 LINE",
"102 1462 LINE",
"102 1313 LINE",
"418 1313 LINE",
"418 752 LINE",
"102 752 LINE",
"102 602 LINE",
"485 602 LINE SMOOTH",
"679 602 OFFCURVE",
"776 520 OFFCURVE",
"776 356 CURVE SMOOTH",
"776 236 OFFCURVE",
"737 141 OFFCURVE",
"625 0 CURVE"
);
}
);
width = 1020;
}
);
note = uniA6E7;
unicode = A6E7;
},
{
glyphname = uniA6E8;
lastChange = "2016-11-10 14:11:48 +0000";
layers = (
{
layerId = "71450CB2-F408-4DB3-81C5-B92F6F6BD2DF";
paths = (
{
closed = 1;
nodes = (
"963 0 LINE",
"963 150 LINE",
"645 150 LINE",
"645 1462 LINE",
"123 1462 LINE",
"123 1024 LINE",
"272 1024 LINE",
"272 1313 LINE",
"461 1313 LINE",
"461 150 LINE",
"123 150 LINE",
"123 0 LINE"
);
}
);
width = 1004;
}
);
note = uniA6E8;
unicode = A6E8;
},
{
glyphname = uniA6E9;
lastChange = "2016-11-10 14:11:48 +0000";
layers = (
{
layerId = "71450CB2-F408-4DB3-81C5-B92F6F6BD2DF";
paths = (
{
closed = 1;
nodes = (
"805 0 LINE",
"900 120 OFFCURVE",
"961 240 OFFCURVE",
"961 373 CURVE SMOOTH",
"961 598 OFFCURVE",
"834 736 OFFCURVE",
"602 752 CURVE",
"602 1462 LINE",
"418 1462 LINE",
"418 752 LINE",
"102 752 LINE",
"102 602 LINE",
"485 602 LINE SMOOTH",
"679 602 OFFCURVE",
"776 520 OFFCURVE",
"776 356 CURVE SMOOTH",
"776 236 OFFCURVE",
"737 141 OFFCURVE",
"625 0 CURVE"
);
}
);
width = 1020;
}
);
note = uniA6E9;
unicode = A6E9;
},
{
glyphname = uniA6EA;
lastChange = "2016-11-10 14:11:48 +0000";
layers = (
{
layerId = "71450CB2-F408-4DB3-81C5-B92F6F6BD2DF";
paths = (
{
closed = 1;
nodes = (
"805 0 LINE",
"900 120 OFFCURVE",
"961 240 OFFCURVE",
"961 373 CURVE SMOOTH",
"961 598 OFFCURVE",
"834 736 OFFCURVE",
"602 752 CURVE",
"602 1462 LINE",
"494 1462 LINE",
"102 1266 LINE",
"102 1098 LINE",
"240 1167 LINE",
"418 1262 LINE",
"418 752 LINE",
"102 752 LINE",
"102 602 LINE",
"485 602 LINE SMOOTH",
"679 602 OFFCURVE",
"776 520 OFFCURVE",
"776 356 CURVE SMOOTH",
"776 236 OFFCURVE",
"737 141 OFFCURVE",
"625 0 CURVE"
);
}
);
width = 1020;
}
);
note = uniA6EA;
unicode = A6EA;
},
{
glyphname = uniA6EB;
lastChange = "2016-11-10 14:11:48 +0000";
layers = (
{
layerId = "71450CB2-F408-4DB3-81C5-B92F6F6BD2DF";
paths = (
{
closed = 1;
nodes = (
"649 0 LINE",
"649 598 LINE",
"869 637 OFFCURVE",
"1006 807 OFFCURVE",
"1006 1038 CURVE SMOOTH",
"1006 1305 OFFCURVE",
"830 1485 OFFCURVE",
"541 1485 CURVE SMOOTH",
"357 1485 OFFCURVE",
"216 1416 OFFCURVE",
"76 1227 CURVE",
"195 1126 LINE",
"312 1281 OFFCURVE",
"411 1333 OFFCURVE",
"543 1333 CURVE SMOOTH",
"718 1333 OFFCURVE",
"819 1222 OFFCURVE",
"819 1038 CURVE SMOOTH",
"819 857 OFFCURVE",
"724 748 OFFCURVE",
"563 741 CURVE",
"469 741 LINE",
"469 0 LINE"
);
}
);
width = 1118;
}
);
note = uniA6EB;
unicode = A6EB;
},
{
glyphname = uniA6EC;
lastChange = "2016-11-10 14:11:48 +0000";
layers = (
{
layerId = "71450CB2-F408-4DB3-81C5-B92F6F6BD2DF";
paths = (
{
closed = 1;
nodes = (
"858 0 LINE",
"858 150 LINE",
"543 150 LINE",
"543 1262 LINE",
"721 1167 LINE",
"858 1098 LINE",
"858 1266 LINE",
"467 1462 LINE",
"358 1462 LINE",
"358 150 LINE",
"41 150 LINE",
"41 0 LINE"
);
}
);
width = 961;
}
);
note = uniA6EC;
unicode = A6EC;
},
{
glyphname = uniA6ED;
lastChange = "2016-11-10 14:11:48 +0000";
layers = (
{
layerId = "71450CB2-F408-4DB3-81C5-B92F6F6BD2DF";
paths = (
{
closed = 1;
nodes = (
"649 0 LINE",
"649 483 LINE",
"938 332 LINE",
"1004 461 LINE",
"684 627 LINE",
"885 670 OFFCURVE",
"1006 822 OFFCURVE",
"1006 1038 CURVE SMOOTH",
"1006 1305 OFFCURVE",
"830 1485 OFFCURVE",
"541 1485 CURVE SMOOTH",
"357 1485 OFFCURVE",
"216 1416 OFFCURVE",
"76 1227 CURVE",
"195 1126 LINE",
"312 1281 OFFCURVE",
"411 1333 OFFCURVE",
"543 1333 CURVE SMOOTH",
"718 1333 OFFCURVE",
"819 1222 OFFCURVE",
"819 1038 CURVE SMOOTH",
"819 857 OFFCURVE",
"724 748 OFFCURVE",
"563 741 CURVE",
"469 741 LINE",
"469 739 LINE",
"217 872 LINE",
"152 743 LINE",
"469 578 LINE",
"469 0 LINE"
);
}
);
width = 1118;
}
);
note = uniA6ED;
unicode = A6ED;
},
{
glyphname = uniA6EE;
lastChange = "2016-11-10 14:11:48 +0000";
layers = (
{
layerId = "71450CB2-F408-4DB3-81C5-B92F6F6BD2DF";
paths = (
{
closed = 1;
nodes = (
"520 0 LINE",
"520 1300 LINE",
"805 1300 LINE",
"805 0 LINE",
"989 0 LINE",
"989 1462 LINE",
"336 1462 LINE",
"336 162 LINE",
"41 162 LINE",
"41 0 LINE"
);
}
);
width = 1188;
}
);
note = uniA6EE;
unicode = A6EE;
},
{
glyphname = uniA6EF;
lastChange = "2016-11-10 14:11:48 +0000";
layers = (
{
layerId = "71450CB2-F408-4DB3-81C5-B92F6F6BD2DF";
paths = (
{
closed = 1;
nodes = (
"860 -18 OFFCURVE",
"1038 137 OFFCURVE",
"1038 389 CURVE SMOOTH",
"1038 422 OFFCURVE",
"1035 452 OFFCURVE",
"1028 479 CURVE",
"844 479 LINE",
"851 455 OFFCURVE",
"854 431 OFFCURVE",
"854 406 CURVE SMOOTH",
"854 238 OFFCURVE",
"746 141 OFFCURVE",
"565 141 CURVE SMOOTH",
"382 141 OFFCURVE",
"289 224 OFFCURVE",
"289 373 CURVE SMOOTH",
"289 524 OFFCURVE",
"378 581 OFFCURVE",
"622 676 CURVE SMOOTH",
"866 771 OFFCURVE",
"993 904 OFFCURVE",
"993 1112 CURVE SMOOTH",
"993 1344 OFFCURVE",
"835 1483 OFFCURVE",
"582 1483 CURVE SMOOTH",
"333 1483 OFFCURVE",
"172 1341 OFFCURVE",
"172 1130 CURVE",
"176 1081 LINE",
"360 1081 LINE",
"356 1128 LINE",
"356 1247 OFFCURVE",
"446 1319 OFFCURVE",
"582 1319 CURVE SMOOTH",
"722 1319 OFFCURVE",
"809 1247 OFFCURVE",
"809 1110 CURVE SMOOTH",
"809 981 OFFCURVE",
"727 907 OFFCURVE",
"545 837 CURVE SMOOTH",
"454 802 OFFCURVE",
"374 763 OFFCURVE",
"307 721 CURVE SMOOTH",
"171 637 OFFCURVE",
"104 515 OFFCURVE",
"104 360 CURVE SMOOTH",
"104 108 OFFCURVE",
"266 -18 OFFCURVE",
"563 -18 CURVE SMOOTH"
);
}
);
width = 1124;
}
);
note = uniA6EF;
unicode = A6EF;
},
{
glyphname = uniA6F0;
lastChange = "2016-11-10 14:11:48 +0000";
layers = (
{
layerId = "71450CB2-F408-4DB3-81C5-B92F6F6BD2DF";
paths = (
{
closed = 1;
nodes = (
"354 1669 LINE",
"719 1976 LINE",
"1092 1669 LINE",
"1374 1669 LINE",
"813 2120 LINE",
"629 2120 LINE",
"74 1669 LINE"
);
}
);
width = 0;
}
);
note = uniA6F0;
unicode = A6F0;
},
{
glyphname = uniA6F1;
lastChange = "2016-11-10 13:44:54 +0000";
layers = (
{
layerId = "71450CB2-F408-4DB3-81C5-B92F6F6BD2DF";
paths = (
{
closed = 1;
nodes = (
"1346 1733 LINE",
"1346 1882 LINE",
"102 1882 LINE",
"102 1733 LINE"
);
}
);
width = 0;
}
);
note = uniA6F1;
unicode = A6F1;
},
{
glyphname = uniA6F2;
lastChange = "2016-11-10 14:11:48 +0000";
layers = (
{
layerId = "71450CB2-F408-4DB3-81C5-B92F6F6BD2DF";
paths = (
{
closed = 1;
nodes = (
"920 0 OFFCURVE",
"1102 194 OFFCURVE",
"1102 502 CURVE SMOOTH",
"1102 741 OFFCURVE",
"976 976 OFFCURVE",
"748 1188 CURVE",
"541 1188 LINE",
"808 932 OFFCURVE",
"920 727 OFFCURVE",
"920 532 CURVE SMOOTH",
"920 285 OFFCURVE",
"817 147 OFFCURVE",
"625 147 CURVE SMOOTH",
"453 147 OFFCURVE",
"348 267 OFFCURVE",
"348 455 CURVE SMOOTH",
"348 532 OFFCURVE",
"362 620 OFFCURVE",
"391 719 CURVE",
"211 719 LINE",
"181 624 OFFCURVE",
"166 531 OFFCURVE",
"166 440 CURVE SMOOTH",
"166 165 OFFCURVE",
"341 0 OFFCURVE",
"625 0 CURVE SMOOTH"
);
},
{
closed = 1;
nodes = (
"696 1255 OFFCURVE",
"739 1298 OFFCURVE",
"739 1370 CURVE SMOOTH",
"739 1441 OFFCURVE",
"699 1485 OFFCURVE",
"635 1485 CURVE SMOOTH",
"575 1485 OFFCURVE",
"528 1450 OFFCURVE",
"528 1370 CURVE SMOOTH",
"528 1291 OFFCURVE",
"575 1255 OFFCURVE",
"635 1255 CURVE SMOOTH"
);
}
);
width = 1268;
}
);
note = uniA6F2;
unicode = A6F2;
},
{
glyphname = uniA6F3;
lastChange = "2016-11-10 14:11:48 +0000";
layers = (
{
layerId = "71450CB2-F408-4DB3-81C5-B92F6F6BD2DF";
paths = (
{
closed = 1;
nodes = (
"258 0 LINE",
"526 1462 LINE",
"350 1462 LINE",
"70 0 LINE"
);
},
{
closed = 1;
nodes = (
"672 596 OFFCURVE",
"721 632 OFFCURVE",
"721 711 CURVE SMOOTH",
"721 790 OFFCURVE",
"672 825 OFFCURVE",
"616 825 CURVE SMOOTH",
"556 825 OFFCURVE",
"510 790 OFFCURVE",
"510 711 CURVE SMOOTH",
"510 632 OFFCURVE",
"556 596 OFFCURVE",
"616 596 CURVE SMOOTH"
);
}
);
width = 756;
}
);
note = uniA6F3;
unicode = A6F3;
},
{
glyphname = uniA6F4;
lastChange = "2016-11-10 14:11:48 +0000";
layers = (
{
layerId = "71450CB2-F408-4DB3-81C5-B92F6F6BD2DF";
paths = (
{
closed = 1;
nodes = (
"893 0 LINE",
"1161 1462 LINE",
"985 1462 LINE",
"705 0 LINE"
);
},
{
closed = 1;
nodes = (
"258 0 LINE",
"526 1462 LINE",
"350 1462 LINE",
"70 0 LINE"
);
},
{
closed = 1;
nodes = (
"672 596 OFFCURVE",
"721 632 OFFCURVE",
"721 711 CURVE SMOOTH",
"721 790 OFFCURVE",
"672 825 OFFCURVE",
"616 825 CURVE SMOOTH",
"556 825 OFFCURVE",
"510 790 OFFCURVE",
"510 711 CURVE SMOOTH",
"510 632 OFFCURVE",
"556 596 OFFCURVE",
"616 596 CURVE SMOOTH"
);
},
{
closed = 1;
nodes = (
"1307 596 OFFCURVE",
"1356 632 OFFCURVE",
"1356 711 CURVE SMOOTH",
"1356 790 OFFCURVE",
"1307 825 OFFCURVE",
"1251 825 CURVE SMOOTH",
"1191 825 OFFCURVE",
"1145 790 OFFCURVE",
"1145 711 CURVE SMOOTH",
"1145 632 OFFCURVE",
"1191 596 OFFCURVE",
"1251 596 CURVE SMOOTH"
);
}
);
width = 1391;
}
);
note = uniA6F4;
unicode = A6F4;
},
{
glyphname = uniA6F5;
lastChange = "2016-11-10 14:11:48 +0000";
layers = (
{
layerId = "71450CB2-F408-4DB3-81C5-B92F6F6BD2DF";
paths = (
{
closed = 1;
nodes = (
"475 0 LINE",
"602 694 LINE",
"918 694 LINE",
"918 844 LINE",
"102 844 LINE",
"102 694 LINE",
"418 694 LINE",
"291 0 LINE"
);
}
);
width = 1020;
}
);
note = uniA6F5;
unicode = A6F5;
},
{
glyphname = uniA6F6;
lastChange = "2016-11-10 14:11:48 +0000";
layers = (
{
layerId = "71450CB2-F408-4DB3-81C5-B92F6F6BD2DF";
paths = (
{
closed = 1;
nodes = (
"475 0 LINE",
"602 694 LINE",
"918 694 LINE",
"918 844 LINE",
"102 844 LINE",
"102 694 LINE",
"418 694 LINE",
"291 0 LINE"
);
},
{
closed = 1;
nodes = (
"1096 0 LINE",
"1251 844 LINE",
"1069 844 LINE",
"907 0 LINE"
);
},
{
closed = 1;
nodes = (
"1460 295 OFFCURVE",
"1503 338 OFFCURVE",
"1503 410 CURVE SMOOTH",
"1503 479 OFFCURVE",
"1464 524 OFFCURVE",
"1399 524 CURVE SMOOTH",
"1339 524 OFFCURVE",
"1292 489 OFFCURVE",
"1292 410 CURVE SMOOTH",
"1292 331 OFFCURVE",
"1339 295 OFFCURVE",
"1399 295 CURVE SMOOTH"
);
}
);
width = 1544;
}
);
note = uniA6F6;
unicode = A6F6;
},
{
glyphname = uniA6F7;
lastChange = "2016-11-10 14:11:48 +0000";
layers = (
{
layerId = "71450CB2-F408-4DB3-81C5-B92F6F6BD2DF";
paths = (
{
closed = 1;
nodes = (
"813 276 LINE",
"1374 727 LINE",
"1092 727 LINE",
"813 498 LINE",
"813 1462 LINE",
"629 1462 LINE",
"629 496 LINE",
"354 727 LINE",
"74 727 LINE",
"629 276 LINE"
);
},
{
closed = 1;
nodes = (
"781 -20 OFFCURVE",
"825 23 OFFCURVE",
"825 94 CURVE SMOOTH",
"825 165 OFFCURVE",
"785 209 OFFCURVE",
"721 209 CURVE SMOOTH",
"661 209 OFFCURVE",
"614 174 OFFCURVE",
"614 94 CURVE SMOOTH",
"614 15 OFFCURVE",
"662 -20 OFFCURVE",
"721 -20 CURVE SMOOTH"
);
}
);
width = 1448;
}
);
note = uniA6F7;
unicode = A6F7;
},
{
glyphname = g92;
lastChange = "2016-11-10 14:11:51 +0000";
layers = (
{
layerId = "71450CB2-F408-4DB3-81C5-B92F6F6BD2DF";
paths = (
{
closed = 1;
nodes = (
"831 -244 LINE",
"771 -225 LINE SMOOTH",
"754 -220 OFFCURVE",
"745 -214 OFFCURVE",
"745 -209 CURVE SMOOTH",
"745 -205 OFFCURVE",
"763 -196 OFFCURVE",
"798 -183 CURVE SMOOTH",
"833 -170 OFFCURVE",
"850 -145 OFFCURVE",
"850 -109 CURVE SMOOTH",
"850 -70 OFFCURVE",
"820 -46 OFFCURVE",
"760 -35 CURVE SMOOTH",
"754 -34 OFFCURVE",
"750 -32 OFFCURVE",
"747 -31 CURVE SMOOTH",
"744 -30 OFFCURVE",
"743 -28 OFFCURVE",
"743 -27 CURVE SMOOTH",
"743 -24 OFFCURVE",
"745 -20 OFFCURVE",
"750 -16 CURVE",
"750 -18 LINE",
"1174 211 LINE",
"1193 164 OFFCURVE",
"1236 131 OFFCURVE",
"1292 131 CURVE SMOOTH",
"1364 131 OFFCURVE",
"1421 188 OFFCURVE",
"1421 260 CURVE SMOOTH",
"1421 332 OFFCURVE",
"1364 389 OFFCURVE",
"1292 389 CURVE SMOOTH",
"1247 389 OFFCURVE",
"1207 367 OFFCURVE",
"1184 332 CURVE",
"983 500 LINE",
"1176 631 LINE",
"1196 586 OFFCURVE",
"1239 557 OFFCURVE",
"1292 557 CURVE SMOOTH",
"1364 557 OFFCURVE",
"1421 614 OFFCURVE",
"1421 686 CURVE SMOOTH",
"1421 758 OFFCURVE",
"1364 815 OFFCURVE",
"1292 815 CURVE SMOOTH",
"1245 815 OFFCURVE",
"1203 788 OFFCURVE",
"1180 752 CURVE",
"989 885 LINE",
"1184 1047 LINE",
"1208 1007 OFFCURVE",
"1244 987 OFFCURVE",
"1292 987 CURVE SMOOTH",
"1364 987 OFFCURVE",
"1421 1044 OFFCURVE",
"1421 1116 CURVE SMOOTH",
"1421 1188 OFFCURVE",
"1364 1245 OFFCURVE",
"1292 1245 CURVE SMOOTH",
"1239 1245 OFFCURVE",
"1193 1212 OFFCURVE",
"1174 1167 CURVE",
"846 1346 LINE",
"869 1369 OFFCURVE",
"881 1393 OFFCURVE",
"881 1417 CURVE SMOOTH",
"881 1458 OFFCURVE",
"851 1483 OFFCURVE",
"791 1494 CURVE SMOOTH",
"785 1495 OFFCURVE",
"781 1497 OFFCURVE",
"778 1498 CURVE SMOOTH",
"775 1499 OFFCURVE",
"774 1500 OFFCURVE",
"774 1501 CURVE SMOOTH",
"774 1503 OFFCURVE",
"784 1508 OFFCURVE",
"803 1517 CURVE SMOOTH",
"841 1534 OFFCURVE",
"860 1560 OFFCURVE",
"860 1593 CURVE SMOOTH",
"860 1644 OFFCURVE",
"832 1681 OFFCURVE",
"743 1718 CURVE",
"696 1640 LINE",
"715 1633 OFFCURVE",
"731 1625 OFFCURVE",
"742 1616 CURVE SMOOTH",
"753 1607 OFFCURVE",
"758 1600 OFFCURVE",
"758 1597 CURVE SMOOTH",
"758 1591 OFFCURVE",
"741 1581 OFFCURVE",
"706 1568 CURVE SMOOTH",
"671 1555 OFFCURVE",
"653 1533 OFFCURVE",
"653 1503 CURVE SMOOTH",
"653 1467 OFFCURVE",
"684 1440 OFFCURVE",
"747 1422 CURVE",
"753 1420 OFFCURVE",
"757 1418 OFFCURVE",
"760 1417 CURVE SMOOTH",
"763 1416 OFFCURVE",
"764 1414 OFFCURVE",
"764 1413 CURVE SMOOTH",
"764 1408 OFFCURVE",
"756 1400 OFFCURVE",
"739 1391 CURVE SMOOTH",
"346 1174 LINE",
"326 1217 OFFCURVE",
"283 1245 OFFCURVE",
"231 1245 CURVE SMOOTH",
"159 1245 OFFCURVE",
"102 1188 OFFCURVE",
"102 1116 CURVE SMOOTH",
"102 1044 OFFCURVE",
"159 987 OFFCURVE",
"231 987 CURVE SMOOTH",
"273 987 OFFCURVE",
"307 1003 OFFCURVE",
"334 1036 CURVE",
"514 885 LINE",
"338 762 LINE",
"338 760 LINE",
"310 797 OFFCURVE",
"274 815 OFFCURVE",
"231 815 CURVE SMOOTH",
"159 815 OFFCURVE",
"102 758 OFFCURVE",
"102 686 CURVE SMOOTH",
"102 614 OFFCURVE",
"159 557 OFFCURVE",
"231 557 CURVE SMOOTH",
"279 557 OFFCURVE",
"319 584 OFFCURVE",
"342 621 CURVE",
"520 498 LINE",
"334 340 LINE",
"307 373 OFFCURVE",
"273 389 OFFCURVE",
"231 389 CURVE SMOOTH",
"159 389 OFFCURVE",
"102 332 OFFCURVE",
"102 260 CURVE SMOOTH",
"102 188 OFFCURVE",
"159 131 OFFCURVE",
"231 131 CURVE SMOOTH",
"283 131 OFFCURVE",
"326 160 OFFCURVE",
"346 203 CURVE",
"657 33 LINE",
"634 16 OFFCURVE",
"623 -6 OFFCURVE",
"623 -33 CURVE SMOOTH",
"623 -74 OFFCURVE",
"655 -99 OFFCURVE",
"719 -110 CURVE SMOOTH",
"725 -111 OFFCURVE",
"730 -112 OFFCURVE",
"733 -113 CURVE SMOOTH",
"736 -114 OFFCURVE",
"737 -116 OFFCURVE",
"737 -117 CURVE SMOOTH",
"737 -120 OFFCURVE",
"732 -122 OFFCURVE",
"723 -125 CURVE SMOOTH",
"670 -142 OFFCURVE",
"643 -170 OFFCURVE",
"643 -209 CURVE SMOOTH",
"643 -260 OFFCURVE",
"680 -294 OFFCURVE",
"753 -311 CURVE SMOOTH",
"803 -324 LINE"
);
},
{
closed = 1;
nodes = (
"211 223 OFFCURVE",
"195 240 OFFCURVE",
"195 260 CURVE SMOOTH",
"195 281 OFFCURVE",
"211 297 OFFCURVE",
"231 297 CURVE SMOOTH",
"252 297 OFFCURVE",
"268 281 OFFCURVE",
"268 260 CURVE SMOOTH",
"268 240 OFFCURVE",
"252 223 OFFCURVE",
"231 223 CURVE SMOOTH"
);
},
{
closed = 1;
nodes = (
"211 649 OFFCURVE",
"195 666 OFFCURVE",
"195 686 CURVE SMOOTH",
"195 707 OFFCURVE",
"211 723 OFFCURVE",
"231 723 CURVE SMOOTH",
"252 723 OFFCURVE",
"268 707 OFFCURVE",
"268 686 CURVE SMOOTH",
"268 666 OFFCURVE",
"252 649 OFFCURVE",
"231 649 CURVE SMOOTH"
);
},
{
closed = 1;
nodes = (
"826 182 OFFCURVE",
"883 239 OFFCURVE",
"883 311 CURVE SMOOTH",
"883 383 OFFCURVE",
"826 440 OFFCURVE",
"754 440 CURVE SMOOTH",
"682 440 OFFCURVE",
"625 383 OFFCURVE",
"625 311 CURVE SMOOTH",
"625 239 OFFCURVE",
"682 182 OFFCURVE",
"754 182 CURVE SMOOTH"
);
},
{
closed = 1;
nodes = (
"733 274 OFFCURVE",
"717 291 OFFCURVE",
"717 311 CURVE SMOOTH",
"717 332 OFFCURVE",
"733 348 OFFCURVE",
"754 348 CURVE SMOOTH",
"774 348 OFFCURVE",
"791 332 OFFCURVE",
"791 311 CURVE SMOOTH",
"791 291 OFFCURVE",
"774 274 OFFCURVE",
"754 274 CURVE SMOOTH"
);
},
{
closed = 1;
nodes = (
"211 1079 OFFCURVE",
"195 1096 OFFCURVE",
"195 1116 CURVE SMOOTH",
"195 1137 OFFCURVE",
"211 1153 OFFCURVE",
"231 1153 CURVE SMOOTH",
"252 1153 OFFCURVE",
"268 1137 OFFCURVE",
"268 1116 CURVE SMOOTH",
"268 1096 OFFCURVE",
"252 1079 OFFCURVE",
"231 1079 CURVE SMOOTH"
);
},
{
closed = 1;
nodes = (
"422 281 LINE",
"686 508 LINE",
"422 694 LINE",
"680 877 LINE",
"422 1098 LINE",
"750 1280 LINE",
"1085 1098 LINE",
"821 877 LINE",
"1085 694 LINE",
"815 508 LINE",
"1085 281 LINE",
"750 98 LINE"
);
},
{
closed = 1;
nodes = (
"826 557 OFFCURVE",
"883 614 OFFCURVE",
"883 686 CURVE SMOOTH",
"883 758 OFFCURVE",
"826 815 OFFCURVE",
"754 815 CURVE SMOOTH",
"682 815 OFFCURVE",
"625 758 OFFCURVE",
"625 686 CURVE SMOOTH",
"625 614 OFFCURVE",
"682 557 OFFCURVE",
"754 557 CURVE SMOOTH"
);
},
{
closed = 1;
nodes = (
"733 649 OFFCURVE",
"717 666 OFFCURVE",
"717 686 CURVE SMOOTH",
"717 707 OFFCURVE",
"733 723 OFFCURVE",
"754 723 CURVE SMOOTH",
"774 723 OFFCURVE",
"791 707 OFFCURVE",
"791 686 CURVE SMOOTH",
"791 666 OFFCURVE",
"774 649 OFFCURVE",
"754 649 CURVE SMOOTH"
);
},
{
closed = 1;
nodes = (
"1272 223 OFFCURVE",
"1255 240 OFFCURVE",
"1255 260 CURVE SMOOTH",
"1255 281 OFFCURVE",
"1272 297 OFFCURVE",
"1292 297 CURVE SMOOTH",
"1313 297 OFFCURVE",
"1329 281 OFFCURVE",
"1329 260 CURVE SMOOTH",
"1329 240 OFFCURVE",
"1313 223 OFFCURVE",
"1292 223 CURVE SMOOTH"
);
},
{
closed = 1;
nodes = (
"826 936 OFFCURVE",
"883 993 OFFCURVE",
"883 1065 CURVE SMOOTH",
"883 1137 OFFCURVE",
"826 1194 OFFCURVE",
"754 1194 CURVE SMOOTH",
"682 1194 OFFCURVE",
"625 1137 OFFCURVE",
"625 1065 CURVE SMOOTH",
"625 993 OFFCURVE",
"682 936 OFFCURVE",
"754 936 CURVE SMOOTH"
);
},
{
closed = 1;
nodes = (
"733 1028 OFFCURVE",
"717 1044 OFFCURVE",
"717 1065 CURVE SMOOTH",
"717 1085 OFFCURVE",
"733 1102 OFFCURVE",
"754 1102 CURVE SMOOTH",
"774 1102 OFFCURVE",
"791 1085 OFFCURVE",
"791 1065 CURVE SMOOTH",
"791 1044 OFFCURVE",
"774 1028 OFFCURVE",
"754 1028 CURVE SMOOTH"
);
},
{
closed = 1;
nodes = (
"1272 649 OFFCURVE",
"1255 666 OFFCURVE",
"1255 686 CURVE SMOOTH",
"1255 707 OFFCURVE",
"1272 723 OFFCURVE",
"1292 723 CURVE SMOOTH",
"1313 723 OFFCURVE",
"1329 707 OFFCURVE",
"1329 686 CURVE SMOOTH",
"1329 666 OFFCURVE",
"1313 649 OFFCURVE",
"1292 649 CURVE SMOOTH"
);
},
{
closed = 1;
nodes = (
"1272 1079 OFFCURVE",
"1255 1096 OFFCURVE",
"1255 1116 CURVE SMOOTH",
"1255 1137 OFFCURVE",
"1272 1153 OFFCURVE",
"1292 1153 CURVE SMOOTH",
"1313 1153 OFFCURVE",
"1329 1137 OFFCURVE",
"1329 1116 CURVE SMOOTH",
"1329 1096 OFFCURVE",
"1313 1079 OFFCURVE",
"1292 1079 CURVE SMOOTH"
);
}
);
width = 1524;
}
);
note = g92;
},
{
glyphname = g93;
lastChange = "2016-11-10 14:11:51 +0000";
layers = (
{
layerId = "71450CB2-F408-4DB3-81C5-B92F6F6BD2DF";
paths = (
{
closed = 1;
nodes = (
"1020 -123 OFFCURVE",
"1089 -106 OFFCURVE",
"1150 -71 CURVE SMOOTH",
"1272 -2 OFFCURVE",
"1347 120 OFFCURVE",
"1364 215 CURVE SMOOTH",
"1372 262 OFFCURVE",
"1399 290 OFFCURVE",
"1445 298 CURVE SMOOTH",
"1490 306 OFFCURVE",
"1541 328 OFFCURVE",
"1596 365 CURVE SMOOTH",
"1707 437 OFFCURVE",
"1784 564 OFFCURVE",
"1784 715 CURVE SMOOTH",
"1784 788 OFFCURVE",
"1768 854 OFFCURVE",
"1736 915 CURVE SMOOTH",
"1671 1036 OFFCURVE",
"1554 1116 OFFCURVE",
"1453 1133 CURVE SMOOTH",
"1402 1142 OFFCURVE",
"1373 1170 OFFCURVE",
"1364 1218 CURVE SMOOTH",
"1355 1266 OFFCURVE",
"1333 1317 OFFCURVE",
"1297 1371 CURVE SMOOTH",
"1224 1479 OFFCURVE",
"1095 1556 OFFCURVE",
"944 1556 CURVE SMOOTH",
"867 1556 OFFCURVE",
"797 1538 OFFCURVE",
"735 1503 CURVE SMOOTH",
"611 1431 OFFCURVE",
"539 1307 OFFCURVE",
"523 1218 CURVE SMOOTH",
"514 1173 OFFCURVE",
"484 1146 OFFCURVE",
"433 1136 CURVE SMOOTH",
"381 1125 OFFCURVE",
"329 1101 OFFCURVE",
"276 1062 CURVE SMOOTH",
"170 984 OFFCURVE",
"102 858 OFFCURVE",
"102 715 CURVE SMOOTH",
"102 643 OFFCURVE",
"118 577 OFFCURVE",
"151 517 CURVE SMOOTH",
"216 396 OFFCURVE",
"339 315 OFFCURVE",
"439 299 CURVE SMOOTH",
"488 291 OFFCURVE",
"516 265 OFFCURVE",
"522 221 CURVE SMOOTH",
"528 177 OFFCURVE",
"549 127 OFFCURVE",
"586 71 CURVE SMOOTH",
"659 -42 OFFCURVE",
"791 -123 OFFCURVE",
"944 -123 CURVE SMOOTH"
);
},
{
closed = 1;
nodes = (
"831 248 OFFCURVE",
"793 317 OFFCURVE",
"793 410 CURVE SMOOTH",
"793 482 OFFCURVE",
"831 540 OFFCURVE",
"891 563 CURVE",
"891 219 LINE"
);
},
{
closed = 1;
nodes = (
"543 563 OFFCURVE",
"473 602 OFFCURVE",
"444 662 CURVE",
"815 662 LINE",
"795 606 OFFCURVE",
"714 563 OFFCURVE",
"635 563 CURVE SMOOTH"
);
},
{
closed = 1;
nodes = (
"995 563 LINE",
"1058 543 OFFCURVE",
"1102 482 OFFCURVE",
"1102 410 CURVE SMOOTH",
"1102 321 OFFCURVE",
"1055 246 OFFCURVE",
"995 219 CURVE"
);
},
{
closed = 1;
nodes = (
"471 829 OFFCURVE",
"550 872 OFFCURVE",
"635 872 CURVE SMOOTH",
"707 872 OFFCURVE",
"794 827 OFFCURVE",
"815 766 CURVE",
"444 766 LINE"
);
},
{
closed = 1;
nodes = (
"793 -20 OFFCURVE",
"663 86 OFFCURVE",
"623 231 CURVE SMOOTH",
"607 288 LINE SMOOTH",
"591 347 OFFCURVE",
"546 383 OFFCURVE",
"471 398 CURVE SMOOTH",
"321 426 OFFCURVE",
"205 563 OFFCURVE",
"205 715 CURVE SMOOTH",
"205 866 OFFCURVE",
"312 1005 OFFCURVE",
"469 1037 CURVE SMOOTH",
"548 1053 OFFCURVE",
"597 1102 OFFCURVE",
"618 1185 CURVE SMOOTH",
"658 1349 OFFCURVE",
"793 1454 OFFCURVE",
"944 1454 CURVE SMOOTH",
"1097 1454 OFFCURVE",
"1230 1344 OFFCURVE",
"1271 1181 CURVE SMOOTH",
"1291 1099 OFFCURVE",
"1338 1051 OFFCURVE",
"1413 1038 CURVE SMOOTH",
"1562 1011 OFFCURVE",
"1681 874 OFFCURVE",
"1681 715 CURVE SMOOTH",
"1681 556 OFFCURVE",
"1563 426 OFFCURVE",
"1416 398 CURVE SMOOTH",
"1342 383 OFFCURVE",
"1297 346 OFFCURVE",
"1280 285 CURVE SMOOTH",
"1264 231 LINE SMOOTH",
"1220 86 OFFCURVE",
"1095 -20 OFFCURVE",
"944 -20 CURVE SMOOTH"
);
},
{
closed = 1;
nodes = (
"1089 102 OFFCURVE",
"1202 239 OFFCURVE",
"1202 410 CURVE SMOOTH",
"1202 433 OFFCURVE",
"1200 452 OFFCURVE",
"1196 467 CURVE",
"1212 463 OFFCURVE",
"1230 461 OFFCURVE",
"1251 461 CURVE SMOOTH",
"1424 461 OFFCURVE",
"1559 573 OFFCURVE",
"1559 717 CURVE SMOOTH",
"1559 860 OFFCURVE",
"1422 973 OFFCURVE",
"1251 973 CURVE SMOOTH",
"1236 973 OFFCURVE",
"1219 971 OFFCURVE",
"1198 967 CURVE",
"1201 982 OFFCURVE",
"1202 1001 OFFCURVE",
"1202 1024 CURVE SMOOTH",
"1202 1195 OFFCURVE",
"1089 1331 OFFCURVE",
"946 1331 CURVE SMOOTH",
"803 1331 OFFCURVE",
"690 1195 OFFCURVE",
"690 1024 CURVE SMOOTH",
"690 996 OFFCURVE",
"691 976 OFFCURVE",
"694 963 CURVE",
"681 970 OFFCURVE",
"661 973 OFFCURVE",
"635 973 CURVE SMOOTH",
"464 973 OFFCURVE",
"328 860 OFFCURVE",
"328 717 CURVE SMOOTH",
"328 574 OFFCURVE",
"460 461 OFFCURVE",
"635 461 CURVE SMOOTH",
"662 461 OFFCURVE",
"681 464 OFFCURVE",
"694 469 CURVE",
"691 453 OFFCURVE",
"690 433 OFFCURVE",
"690 410 CURVE SMOOTH",
"690 239 OFFCURVE",
"803 102 OFFCURVE",
"946 102 CURVE SMOOTH"
);
},
{
closed = 1;
nodes = (
"1172 563 OFFCURVE",
"1096 606 OFFCURVE",
"1075 662 CURVE",
"1442 662 LINE",
"1413 602 OFFCURVE",
"1343 563 OFFCURVE",
"1251 563 CURVE SMOOTH"
);
},
{
closed = 1;
nodes = (
"831 893 OFFCURVE",
"793 952 OFFCURVE",
"793 1024 CURVE SMOOTH",
"793 1116 OFFCURVE",
"831 1186 OFFCURVE",
"891 1214 CURVE",
"891 870 LINE"
);
},
{
closed = 1;
nodes = (
"1095 826 OFFCURVE",
"1178 872 OFFCURVE",
"1251 872 CURVE SMOOTH",
"1338 872 OFFCURVE",
"1415 827 OFFCURVE",
"1442 766 CURVE",
"1075 766 LINE"
);
},
{
closed = 1;
nodes = (
"995 1214 LINE",
"1058 1187 OFFCURVE",
"1102 1111 OFFCURVE",
"1102 1024 CURVE SMOOTH",
"1102 952 OFFCURVE",
"1058 891 OFFCURVE",
"995 870 CURVE"
);
}
);
width = 1886;
}
);
note = g93;
},
{
glyphname = g94;
lastChange = "2016-11-10 14:11:51 +0000";
layers = (
{
layerId = "71450CB2-F408-4DB3-81C5-B92F6F6BD2DF";
paths = (
{
closed = 1;
nodes = (
"1142 94 OFFCURVE",
"1409 281 OFFCURVE",
"1409 481 CURVE SMOOTH",
"1409 552 OFFCURVE",
"1371 590 OFFCURVE",
"1311 590 CURVE SMOOTH",
"1285 590 OFFCURVE",
"1234 569 OFFCURVE",
"1159 528 CURVE SMOOTH",
"1083 486 OFFCURVE",
"1019 457 OFFCURVE",
"967 440 CURVE",
"1024 521 OFFCURVE",
"1053 614 OFFCURVE",
"1053 721 CURVE SMOOTH",
"1053 820 OFFCURVE",
"1028 908 OFFCURVE",
"977 985 CURVE",
"1044 962 OFFCURVE",
"1117 935 OFFCURVE",
"1194 903 CURVE SMOOTH",
"1271 870 OFFCURVE",
"1325 854 OFFCURVE",
"1358 854 CURVE SMOOTH",
"1386 854 OFFCURVE",
"1411 873 OFFCURVE",
"1411 920 CURVE SMOOTH",
"1411 950 OFFCURVE",
"1375 1005 OFFCURVE",
"1304 1084 CURVE SMOOTH",
"1160 1242 OFFCURVE",
"948 1348 OFFCURVE",
"727 1348 CURVE SMOOTH",
"366 1348 OFFCURVE",
"104 1158 OFFCURVE",
"104 961 CURVE SMOOTH",
"104 890 OFFCURVE",
"143 852 OFFCURVE",
"203 852 CURVE SMOOTH",
"229 852 OFFCURVE",
"280 873 OFFCURVE",
"355 914 CURVE SMOOTH",
"430 955 OFFCURVE",
"494 984 OFFCURVE",
"547 1001 CURVE",
"490 923 OFFCURVE",
"461 830 OFFCURVE",
"461 721 CURVE SMOOTH",
"461 618 OFFCURVE",
"486 530 OFFCURVE",
"537 457 CURVE",
"482 474 OFFCURVE",
"413 500 OFFCURVE",
"330 535 CURVE SMOOTH",
"247 570 OFFCURVE",
"192 588 OFFCURVE",
"164 588 CURVE SMOOTH",
"123 588 OFFCURVE",
"102 569 OFFCURVE",
"102 532 CURVE SMOOTH",
"102 497 OFFCURVE",
"137 441 OFFCURVE",
"206 362 CURVE SMOOTH",
"345 204 OFFCURVE",
"561 94 OFFCURVE",
"786 94 CURVE SMOOTH"
);
},
{
closed = 1;
nodes = (
"573 197 OFFCURVE",
"358 310 OFFCURVE",
"231 463 CURVE",
"236 469 LINE",
"501 348 OFFCURVE",
"639 315 OFFCURVE",
"770 315 CURVE SMOOTH",
"939 315 OFFCURVE",
"1090 371 OFFCURVE",
"1205 436 CURVE SMOOTH",
"1262 469 OFFCURVE",
"1292 485 OFFCURVE",
"1294 485 CURVE SMOOTH",
"1303 485 OFFCURVE",
"1307 480 OFFCURVE",
"1307 469 CURVE SMOOTH",
"1307 345 OFFCURVE",
"1073 197 OFFCURVE",
"786 197 CURVE SMOOTH"
);
},
{
closed = 1;
nodes = (
"644 418 OFFCURVE",
"563 558 OFFCURVE",
"563 721 CURVE SMOOTH",
"563 882 OFFCURVE",
"645 1019 OFFCURVE",
"750 1024 CURVE",
"869 1024 OFFCURVE",
"950 884 OFFCURVE",
"950 721 CURVE SMOOTH",
"950 560 OFFCURVE",
"868 423 OFFCURVE",
"764 418 CURVE"
);
},
{
closed = 1;
nodes = (
"211 956 OFFCURVE",
"207 962 OFFCURVE",
"207 973 CURVE SMOOTH",
"207 1100 OFFCURVE",
"440 1245 OFFCURVE",
"727 1245 CURVE SMOOTH",
"932 1245 OFFCURVE",
"1147 1144 OFFCURVE",
"1280 981 CURVE",
"1278 975 LINE",
"1053 1076 OFFCURVE",
"875 1126 OFFCURVE",
"743 1126 CURVE SMOOTH",
"579 1126 OFFCURVE",
"422 1072 OFFCURVE",
"307 1005 CURVE SMOOTH",
"219 956 LINE"
);
}
);
width = 1513;
}
);
note = g94;
},
{
glyphname = g95;
lastChange = "2016-11-10 14:11:51 +0000";
layers = (
{
layerId = "71450CB2-F408-4DB3-81C5-B92F6F6BD2DF";
paths = (
{
closed = 1;
nodes = (
"438 -47 OFFCURVE",
"484 -8 OFFCURVE",
"507 17 CURVE SMOOTH",
"552 68 OFFCURVE",
"610 162 OFFCURVE",
"618 305 CURVE",
"897 401 LINE",
"897 207 LINE",
"999 207 LINE",
"999 537 LINE",
"715 436 LINE",
"752 514 OFFCURVE",
"770 601 OFFCURVE",
"770 698 CURVE SMOOTH",
"770 791 OFFCURVE",
"754 873 OFFCURVE",
"721 946 CURVE",
"981 858 LINE",
"999 1155 LINE",
"897 1155 LINE",
"887 991 LINE",
"694 1047 LINE",
"733 1077 OFFCURVE",
"752 1117 OFFCURVE",
"752 1167 CURVE SMOOTH",
"752 1238 OFFCURVE",
"667 1345 OFFCURVE",
"551 1405 CURVE",
"434 1344 OFFCURVE",
"350 1238 OFFCURVE",
"350 1167 CURVE SMOOTH",
"350 1117 OFFCURVE",
"369 1077 OFFCURVE",
"408 1047 CURVE",
"215 991 LINE",
"205 1155 LINE",
"102 1155 LINE",
"121 858 LINE",
"381 946 LINE",
"348 871 OFFCURVE",
"332 788 OFFCURVE",
"332 698 CURVE SMOOTH",
"332 601 OFFCURVE",
"350 514 OFFCURVE",
"387 436 CURVE",
"102 537 LINE",
"102 207 LINE",
"205 207 LINE",
"205 401 LINE",
"500 299 LINE",
"500 292 LINE SMOOTH",
"500 241 OFFCURVE",
"491 198 OFFCURVE",
"474 162 CURVE SMOOTH",
"438 89 OFFCURVE",
"420 67 OFFCURVE",
"305 -16 CURVE",
"367 -98 LINE"
);
},
{
closed = 1;
nodes = (
"527 397 OFFCURVE",
"503 423 OFFCURVE",
"476 474 CURVE SMOOTH",
"448 525 OFFCURVE",
"434 599 OFFCURVE",
"434 696 CURVE SMOOTH",
"434 788 OFFCURVE",
"449 863 OFFCURVE",
"479 920 CURVE SMOOTH",
"508 977 OFFCURVE",
"532 1006 OFFCURVE",
"549 1006 CURVE SMOOTH",
"568 1006 OFFCURVE",
"592 977 OFFCURVE",
"623 919 CURVE SMOOTH",
"653 861 OFFCURVE",
"668 787 OFFCURVE",
"668 696 CURVE SMOOTH",
"668 607 OFFCURVE",
"655 535 OFFCURVE",
"628 480 CURVE SMOOTH",
"601 425 OFFCURVE",
"574 397 OFFCURVE",
"547 397 CURVE SMOOTH"
);
},
{
closed = 1;
nodes = (
"492 1094 OFFCURVE",
"453 1127 OFFCURVE",
"453 1167 CURVE SMOOTH",
"453 1203 OFFCURVE",
"492 1255 OFFCURVE",
"551 1290 CURVE",
"616 1251 OFFCURVE",
"649 1198 OFFCURVE",
"649 1167 CURVE SMOOTH",
"649 1127 OFFCURVE",
"612 1094 OFFCURVE",
"553 1094 CURVE SMOOTH"
);
}
);
width = 1102;
}
);
note = g95;
},
{
glyphname = g96;
lastChange = "2016-11-10 14:11:51 +0000";
layers = (
{
layerId = "71450CB2-F408-4DB3-81C5-B92F6F6BD2DF";
paths = (
{
closed = 1;
nodes = (
"1663 166 LINE",
"1634 233 LINE",
"1171 694 LINE",
"1921 696 LINE",
"1987 725 LINE",
"1722 1380 LINE",
"1655 1352 LINE",
"1094 860 LINE",
"1073 1522 LINE",
"1044 1587 LINE",
"426 1331 LINE",
"455 1264 LINE",
"924 797 LINE",
"168 795 LINE",
"102 768 LINE",
"367 127 LINE",
"434 154 LINE",
"995 645 LINE",
"1016 -25 LINE",
"1044 -90 LINE"
);
},
{
closed = 1;
nodes = (
"492 403 OFFCURVE",
"516 428 OFFCURVE",
"516 461 CURVE SMOOTH",
"516 494 OFFCURVE",
"492 520 OFFCURVE",
"459 520 CURVE SMOOTH",
"426 520 OFFCURVE",
"399 494 OFFCURVE",
"399 461 CURVE SMOOTH",
"399 428 OFFCURVE",
"426 403 OFFCURVE",
"459 403 CURVE SMOOTH"
);
},
{
closed = 1;
nodes = (
"432 543 OFFCURVE",
"457 567 OFFCURVE",
"457 600 CURVE SMOOTH",
"457 633 OFFCURVE",
"432 659 OFFCURVE",
"399 659 CURVE SMOOTH",
"367 659 OFFCURVE",
"340 633 OFFCURVE",
"340 600 CURVE SMOOTH",
"340 567 OFFCURVE",
"367 543 OFFCURVE",
"399 543 CURVE SMOOTH"
);
},
{
closed = 1;
nodes = (
"246 690 LINE",
"899 694 LINE",
"416 274 LINE"
);
},
{
closed = 1;
nodes = (
"621 543 OFFCURVE",
"645 567 OFFCURVE",
"645 600 CURVE SMOOTH",
"645 633 OFFCURVE",
"621 659 OFFCURVE",
"588 659 CURVE SMOOTH",
"555 659 OFFCURVE",
"528 633 OFFCURVE",
"528 600 CURVE SMOOTH",
"528 567 OFFCURVE",
"555 543 OFFCURVE",
"588 543 CURVE SMOOTH"
);
},
{
closed = 1;
nodes = (
"1237 141 OFFCURVE",
"1262 168 OFFCURVE",
"1262 201 CURVE SMOOTH",
"1262 233 OFFCURVE",
"1237 258 OFFCURVE",
"1204 258 CURVE SMOOTH",
"1171 258 OFFCURVE",
"1145 233 OFFCURVE",
"1145 201 CURVE SMOOTH",
"1145 168 OFFCURVE",
"1171 141 OFFCURVE",
"1204 141 CURVE SMOOTH"
);
},
{
closed = 1;
nodes = (
"1237 330 OFFCURVE",
"1262 356 OFFCURVE",
"1262 389 CURVE SMOOTH",
"1262 422 OFFCURVE",
"1237 446 OFFCURVE",
"1204 446 CURVE SMOOTH",
"1171 446 OFFCURVE",
"1145 422 OFFCURVE",
"1145 389 CURVE SMOOTH",
"1145 356 OFFCURVE",
"1171 330 OFFCURVE",
"1204 330 CURVE SMOOTH"
);
},
{
closed = 1;
nodes = (
"1376 201 OFFCURVE",
"1401 227 OFFCURVE",
"1401 260 CURVE SMOOTH",
"1401 293 OFFCURVE",
"1376 317 OFFCURVE",
"1343 317 CURVE SMOOTH",
"1311 317 OFFCURVE",
"1284 293 OFFCURVE",
"1284 260 CURVE SMOOTH",
"1284 227 OFFCURVE",
"1311 201 OFFCURVE",
"1343 201 CURVE SMOOTH"
);
},
{
closed = 1;
nodes = (
"1100 618 LINE",
"1507 213 LINE",
"1116 51 LINE"
);
},
{
closed = 1;
nodes = (
"582 1284 LINE",
"973 1446 LINE",
"989 879 LINE"
);
},
{
closed = 1;
nodes = (
"780 1190 OFFCURVE",
"807 1214 OFFCURVE",
"807 1247 CURVE SMOOTH",
"807 1280 OFFCURVE",
"780 1307 OFFCURVE",
"748 1307 CURVE SMOOTH",
"715 1307 OFFCURVE",
"690 1280 OFFCURVE",
"690 1247 CURVE SMOOTH",
"690 1214 OFFCURVE",
"715 1190 OFFCURVE",
"748 1190 CURVE SMOOTH"
);
},
{
closed = 1;
nodes = (
"920 1061 OFFCURVE",
"946 1085 OFFCURVE",
"946 1118 CURVE SMOOTH",
"946 1151 OFFCURVE",
"920 1178 OFFCURVE",
"887 1178 CURVE SMOOTH",
"854 1178 OFFCURVE",
"829 1151 OFFCURVE",
"829 1118 CURVE SMOOTH",
"829 1085 OFFCURVE",
"854 1061 OFFCURVE",
"887 1061 CURVE SMOOTH"
);
},
{
closed = 1;
nodes = (
"920 1249 OFFCURVE",
"946 1274 OFFCURVE",
"946 1307 CURVE SMOOTH",
"946 1339 OFFCURVE",
"920 1366 OFFCURVE",
"887 1366 CURVE SMOOTH",
"854 1366 OFFCURVE",
"829 1339 OFFCURVE",
"829 1307 CURVE SMOOTH",
"829 1274 OFFCURVE",
"854 1249 OFFCURVE",
"887 1249 CURVE SMOOTH"
);
},
{
closed = 1;
nodes = (
"1528 850 OFFCURVE",
"1554 877 OFFCURVE",
"1554 909 CURVE SMOOTH",
"1554 942 OFFCURVE",
"1528 967 OFFCURVE",
"1495 967 CURVE SMOOTH",
"1462 967 OFFCURVE",
"1438 942 OFFCURVE",
"1438 909 CURVE SMOOTH",
"1438 877 OFFCURVE",
"1462 850 OFFCURVE",
"1495 850 CURVE SMOOTH"
);
},
{
closed = 1;
nodes = (
"1673 1229 LINE",
"1845 799 LINE",
"1174 797 LINE"
);
},
{
closed = 1;
nodes = (
"1716 850 OFFCURVE",
"1743 877 OFFCURVE",
"1743 909 CURVE SMOOTH",
"1743 942 OFFCURVE",
"1716 967 OFFCURVE",
"1683 967 CURVE SMOOTH",
"1651 967 OFFCURVE",
"1626 942 OFFCURVE",
"1626 909 CURVE SMOOTH",
"1626 877 OFFCURVE",
"1651 850 OFFCURVE",
"1683 850 CURVE SMOOTH"
);
},
{
closed = 1;
nodes = (
"1657 989 OFFCURVE",
"1683 1016 OFFCURVE",
"1683 1049 CURVE SMOOTH",
"1683 1081 OFFCURVE",
"1657 1106 OFFCURVE",
"1624 1106 CURVE SMOOTH",
"1591 1106 OFFCURVE",
"1567 1081 OFFCURVE",
"1567 1049 CURVE SMOOTH",
"1567 1016 OFFCURVE",
"1591 989 OFFCURVE",
"1624 989 CURVE SMOOTH"
);
}
);
width = 2089;
}
);
note = g96;
},
{
glyphname = g97;
lastChange = "2016-11-10 14:11:51 +0000";
layers = (
{
layerId = "71450CB2-F408-4DB3-81C5-B92F6F6BD2DF";
paths = (
{
closed = 1;
nodes = (
"1358 0 LINE",
"1358 72 LINE",
"1266 280 OFFCURVE",
"1167 493 OFFCURVE",
"1038 692 CURVE",
"1273 700 OFFCURVE",
"1430 802 OFFCURVE",
"1430 934 CURVE SMOOTH",
"1430 1025 OFFCURVE",
"1359 1093 OFFCURVE",
"1247 1124 CURVE",
"1292 1197 OFFCURVE",
"1315 1276 OFFCURVE",
"1315 1360 CURVE SMOOTH",
"1315 1547 OFFCURVE",
"1199 1701 OFFCURVE",
"991 1712 CURVE",
"944 1659 LINE",
"1003 1556 OFFCURVE",
"1032 1461 OFFCURVE",
"1032 1374 CURVE SMOOTH",
"1032 1265 OFFCURVE",
"956 1141 OFFCURVE",
"817 1034 CURVE SMOOTH",
"766 995 LINE",
"715 1034 LINE SMOOTH",
"576 1141 OFFCURVE",
"500 1263 OFFCURVE",
"500 1374 CURVE SMOOTH",
"500 1474 OFFCURVE",
"531 1559 OFFCURVE",
"588 1659 CURVE",
"551 1712 LINE",
"342 1707 OFFCURVE",
"217 1557 OFFCURVE",
"217 1360 CURVE SMOOTH",
"217 1276 OFFCURVE",
"240 1197 OFFCURVE",
"285 1124 CURVE",
"173 1093 OFFCURVE",
"102 1025 OFFCURVE",
"102 934 CURVE SMOOTH",
"102 807 OFFCURVE",
"255 707 OFFCURVE",
"494 692 CURVE",
"384 519 OFFCURVE",
"277 312 OFFCURVE",
"172 72 CURVE",
"172 0 LINE"
);
},
{
closed = 1;
nodes = (
"330 161 OFFCURVE",
"395 201 OFFCURVE",
"471 201 CURVE SMOOTH",
"547 201 OFFCURVE",
"614 161 OFFCURVE",
"641 102 CURVE",
"303 102 LINE"
);
},
{
closed = 1;
nodes = (
"668 424 OFFCURVE",
"698 453 OFFCURVE",
"698 489 CURVE SMOOTH",
"698 526 OFFCURVE",
"668 557 OFFCURVE",
"631 557 CURVE SMOOTH",
"594 557 OFFCURVE",
"565 526 OFFCURVE",
"565 489 CURVE SMOOTH",
"565 453 OFFCURVE",
"594 424 OFFCURVE",
"631 424 CURVE SMOOTH"
);
},
{
closed = 1;
nodes = (
"918 161 OFFCURVE",
"985 201 OFFCURVE",
"1061 201 CURVE SMOOTH",
"1137 201 OFFCURVE",
"1202 161 OFFCURVE",
"1229 102 CURVE",
"891 102 LINE"
);
},
{
closed = 1;
nodes = (
"717 222 OFFCURVE",
"604 303 OFFCURVE",
"471 303 CURVE SMOOTH",
"437 303 OFFCURVE",
"408 296 OFFCURVE",
"383 281 CURVE",
"517 556 OFFCURVE",
"645 756 OFFCURVE",
"766 879 CURVE",
"887 756 OFFCURVE",
"1015 556 OFFCURVE",
"1149 281 CURVE",
"1124 296 OFFCURVE",
"1095 303 OFFCURVE",
"1061 303 CURVE SMOOTH",
"929 303 OFFCURVE",
"815 222 OFFCURVE",
"784 102 CURVE",
"748 102 LINE"
);
},
{
closed = 1;
nodes = (
"454 793 OFFCURVE",
"368 807 OFFCURVE",
"303 836 CURVE SMOOTH",
"238 865 OFFCURVE",
"205 897 OFFCURVE",
"205 934 CURVE SMOOTH",
"205 997 OFFCURVE",
"295 1040 OFFCURVE",
"416 1040 CURVE SMOOTH",
"506 1040 OFFCURVE",
"595 1007 OFFCURVE",
"684 940 CURVE",
"647 903 OFFCURVE",
"606 854 OFFCURVE",
"561 793 CURVE"
);
},
{
closed = 1;
nodes = (
"940 424 OFFCURVE",
"971 453 OFFCURVE",
"971 489 CURVE SMOOTH",
"971 526 OFFCURVE",
"940 557 OFFCURVE",
"903 557 CURVE SMOOTH",
"866 557 OFFCURVE",
"838 526 OFFCURVE",
"838 489 CURVE SMOOTH",
"838 453 OFFCURVE",
"866 424 OFFCURVE",
"903 424 CURVE SMOOTH"
);
},
{
closed = 1;
nodes = (
"416 1143 LINE",
"395 1143 LINE",
"344 1205 OFFCURVE",
"319 1277 OFFCURVE",
"319 1360 CURVE SMOOTH",
"319 1455 OFFCURVE",
"366 1550 OFFCURVE",
"442 1595 CURVE",
"446 1591 LINE",
"413 1528 OFFCURVE",
"397 1455 OFFCURVE",
"397 1372 CURVE SMOOTH",
"397 1296 OFFCURVE",
"416 1225 OFFCURVE",
"477 1137 CURVE"
);
},
{
closed = 1;
nodes = (
"926 854 OFFCURVE",
"885 903 OFFCURVE",
"848 940 CURVE",
"937 1007 OFFCURVE",
"1026 1040 OFFCURVE",
"1116 1040 CURVE SMOOTH",
"1236 1040 OFFCURVE",
"1327 997 OFFCURVE",
"1327 934 CURVE SMOOTH",
"1327 897 OFFCURVE",
"1295 865 OFFCURVE",
"1230 836 CURVE SMOOTH",
"1165 807 OFFCURVE",
"1079 793 OFFCURVE",
"971 793 CURVE"
);
},
{
closed = 1;
nodes = (
"1116 1225 OFFCURVE",
"1135 1296 OFFCURVE",
"1135 1372 CURVE SMOOTH",
"1135 1453 OFFCURVE",
"1118 1526 OFFCURVE",
"1085 1591 CURVE",
"1090 1595 LINE",
"1162 1552 OFFCURVE",
"1212 1456 OFFCURVE",
"1212 1360 CURVE SMOOTH",
"1212 1277 OFFCURVE",
"1187 1204 OFFCURVE",
"1137 1143 CURVE",
"1116 1143 LINE",
"1055 1137 LINE"
);
}
);
width = 1532;
}
);
note = g97;
},
{
glyphname = g98;
lastChange = "2016-11-10 14:11:51 +0000";
layers = (
{
layerId = "71450CB2-F408-4DB3-81C5-B92F6F6BD2DF";
paths = (
{
closed = 1;
nodes = (
"1585 0 LINE",
"1585 72 LINE",
"1551 151 OFFCURVE",
"1436 395 OFFCURVE",
"1239 803 CURVE",
"1339 819 OFFCURVE",
"1399 890 OFFCURVE",
"1399 985 CURVE SMOOTH",
"1399 1090 OFFCURVE",
"1329 1161 OFFCURVE",
"1212 1161 CURVE SMOOTH",
"1163 1161 OFFCURVE",
"1117 1147 OFFCURVE",
"1075 1118 CURVE",
"1022 1217 LINE",
"1034 1218 OFFCURVE",
"1146 1227 OFFCURVE",
"1219 1227 CURVE SMOOTH",
"1420 1227 OFFCURVE",
"1544 1077 OFFCURVE",
"1544 868 CURVE SMOOTH",
"1544 755 OFFCURVE",
"1530 681 OFFCURVE",
"1497 565 CURVE",
"1561 528 LINE",
"1708 595 OFFCURVE",
"1817 768 OFFCURVE",
"1817 961 CURVE SMOOTH",
"1817 1280 OFFCURVE",
"1622 1483 OFFCURVE",
"1327 1483 CURVE SMOOTH",
"1195 1483 OFFCURVE",
"1084 1437 OFFCURVE",
"961 1321 CURVE",
"825 1442 OFFCURVE",
"717 1483 OFFCURVE",
"592 1483 CURVE SMOOTH",
"299 1483 OFFCURVE",
"102 1280 OFFCURVE",
"102 961 CURVE SMOOTH",
"102 773 OFFCURVE",
"210 591 OFFCURVE",
"358 528 CURVE",
"422 565 LINE",
"391 672 OFFCURVE",
"375 773 OFFCURVE",
"375 868 CURVE SMOOTH",
"375 1077 OFFCURVE",
"499 1227 OFFCURVE",
"700 1227 CURVE SMOOTH",
"791 1227 OFFCURVE",
"857 1224 OFFCURVE",
"897 1217 CURVE",
"844 1118 LINE",
"802 1147 OFFCURVE",
"756 1161 OFFCURVE",
"707 1161 CURVE SMOOTH",
"591 1161 OFFCURVE",
"520 1092 OFFCURVE",
"520 985 CURVE SMOOTH",
"520 890 OFFCURVE",
"581 816 OFFCURVE",
"680 803 CURVE",
"530 496 OFFCURVE",
"415 253 OFFCURVE",
"334 72 CURVE",
"334 0 LINE"
);
},
{
closed = 1;
nodes = (
"494 193 OFFCURVE",
"536 281 OFFCURVE",
"578 367 CURVE",
"599 384 OFFCURVE",
"629 393 OFFCURVE",
"668 393 CURVE SMOOTH",
"776 393 OFFCURVE",
"844 293 OFFCURVE",
"852 102 CURVE",
"453 102 LINE"
);
},
{
closed = 1;
nodes = (
"874 559 OFFCURVE",
"905 588 OFFCURVE",
"905 625 CURVE SMOOTH",
"905 662 OFFCURVE",
"874 692 OFFCURVE",
"838 692 CURVE SMOOTH",
"801 692 OFFCURVE",
"772 662 OFFCURVE",
"772 625 CURVE SMOOTH",
"772 588 OFFCURVE",
"801 559 OFFCURVE",
"838 559 CURVE SMOOTH"
);
},
{
closed = 1;
nodes = (
"1067 279 OFFCURVE",
"1135 393 OFFCURVE",
"1247 393 CURVE SMOOTH",
"1289 393 OFFCURVE",
"1321 382 OFFCURVE",
"1343 360 CURVE",
"1384 277 OFFCURVE",
"1429 186 OFFCURVE",
"1466 102 CURVE",
"1063 102 LINE"
);
},
{
closed = 1;
nodes = (
"237 770 OFFCURVE",
"205 874 OFFCURVE",
"205 961 CURVE SMOOTH",
"205 1208 OFFCURVE",
"359 1380 OFFCURVE",
"614 1380 CURVE SMOOTH",
"683 1380 OFFCURVE",
"767 1352 OFFCURVE",
"827 1313 CURVE",
"825 1309 LINE",
"798 1317 OFFCURVE",
"729 1329 OFFCURVE",
"700 1329 CURVE SMOOTH",
"436 1329 OFFCURVE",
"272 1137 OFFCURVE",
"272 868 CURVE SMOOTH",
"272 824 OFFCURVE",
"280 767 OFFCURVE",
"297 696 CURVE",
"289 694 LINE"
);
},
{
closed = 1;
nodes = (
"949 354 OFFCURVE",
"846 496 OFFCURVE",
"670 496 CURVE SMOOTH",
"653 496 LINE",
"637 494 LINE",
"803 827 OFFCURVE",
"911 1037 OFFCURVE",
"961 1124 CURVE",
"1024 1007 OFFCURVE",
"1131 797 OFFCURVE",
"1282 492 CURVE",
"1245 496 LINE",
"1066 496 OFFCURVE",
"964 350 OFFCURVE",
"961 102 CURVE",
"954 102 LINE"
);
},
{
closed = 1;
nodes = (
"663 899 OFFCURVE",
"623 933 OFFCURVE",
"623 985 CURVE SMOOTH",
"623 1024 OFFCURVE",
"648 1059 OFFCURVE",
"707 1059 CURVE SMOOTH",
"736 1059 OFFCURVE",
"765 1048 OFFCURVE",
"795 1026 CURVE",
"731 899 LINE"
);
},
{
closed = 1;
nodes = (
"1106 559 OFFCURVE",
"1137 588 OFFCURVE",
"1137 625 CURVE SMOOTH",
"1137 662 OFFCURVE",
"1106 692 OFFCURVE",
"1069 692 CURVE SMOOTH",
"1032 692 OFFCURVE",
"1004 662 OFFCURVE",
"1004 625 CURVE SMOOTH",
"1004 588 OFFCURVE",
"1032 559 OFFCURVE",
"1069 559 CURVE SMOOTH"
);
},
{
closed = 1;
nodes = (
"1124 1026 LINE",
"1154 1048 OFFCURVE",
"1183 1059 OFFCURVE",
"1212 1059 CURVE SMOOTH",
"1271 1059 OFFCURVE",
"1296 1024 OFFCURVE",
"1296 985 CURVE SMOOTH",
"1296 938 OFFCURVE",
"1251 901 OFFCURVE",
"1188 901 CURVE"
);
},
{
closed = 1;
nodes = (
"1622 696 LINE",
"1629 727 OFFCURVE",
"1647 824 OFFCURVE",
"1647 868 CURVE SMOOTH",
"1647 1140 OFFCURVE",
"1482 1329 OFFCURVE",
"1219 1329 CURVE SMOOTH",
"1164 1329 OFFCURVE",
"1120 1322 OFFCURVE",
"1085 1309 CURVE",
"1083 1313 LINE",
"1139 1349 OFFCURVE",
"1232 1380 OFFCURVE",
"1305 1380 CURVE SMOOTH",
"1556 1380 OFFCURVE",
"1714 1213 OFFCURVE",
"1714 961 CURVE SMOOTH",
"1714 882 OFFCURVE",
"1681 769 OFFCURVE",
"1630 694 CURVE"
);
}
);
width = 1919;
}
);
note = g98;
},
{
glyphname = g99;
lastChange = "2016-11-10 14:11:51 +0000";
layers = (
{
layerId = "71450CB2-F408-4DB3-81C5-B92F6F6BD2DF";
paths = (
{
closed = 1;
nodes = (
"848 74 LINE",
"846 498 LINE",
"1061 125 LINE",
"1110 74 LINE",
"1409 373 LINE",
"1358 424 LINE",
"977 641 LINE",
"1419 641 LINE",
"1489 659 LINE",
"1378 1067 LINE",
"1309 1049 LINE",
"932 834 LINE",
"1149 1208 LINE",
"1167 1278 LINE",
"760 1386 LINE",
"741 1317 LINE",
"743 881 LINE",
"526 1260 LINE",
"475 1311 LINE",
"178 1012 LINE",
"229 961 LINE",
"596 745 LINE",
"172 748 LINE",
"102 729 LINE",
"213 324 LINE",
"283 342 LINE",
"653 555 LINE",
"440 180 LINE",
"422 113 LINE",
"829 4 LINE"
);
},
{
closed = 1;
nodes = (
"233 645 LINE",
"602 643 LINE",
"279 459 LINE"
);
},
{
closed = 1;
nodes = (
"561 182 LINE",
"743 502 LINE",
"745 131 LINE"
);
},
{
closed = 1;
nodes = (
"932 551 LINE",
"1255 365 LINE",
"1120 229 LINE"
);
},
{
closed = 1;
nodes = (
"330 1022 LINE",
"467 1155 LINE",
"655 829 LINE"
);
},
{
closed = 1;
nodes = (
"1309 930 LINE",
"1360 745 LINE",
"985 743 LINE"
);
},
{
closed = 1;
nodes = (
"844 1260 LINE",
"1028 1208 LINE",
"844 889 LINE"
);
}
);
width = 1591;
}
);
note = g99;
},
{
glyphname = g100;
lastChange = "2016-11-10 14:11:51 +0000";
layers = (
{
layerId = "71450CB2-F408-4DB3-81C5-B92F6F6BD2DF";
paths = (
{
closed = 1;
nodes = (
"1358 0 LINE",
"1358 72 LINE",
"1155 532 OFFCURVE",
"952 862 OFFCURVE",
"763 1008 CURVE SMOOTH",
"574 1154 OFFCURVE",
"500 1246 OFFCURVE",
"500 1374 CURVE SMOOTH",
"500 1474 OFFCURVE",
"531 1559 OFFCURVE",
"588 1659 CURVE",
"551 1712 LINE",
"342 1707 OFFCURVE",
"217 1557 OFFCURVE",
"217 1360 CURVE SMOOTH",
"217 1276 OFFCURVE",
"240 1197 OFFCURVE",
"285 1124 CURVE",
"173 1093 OFFCURVE",
"102 1025 OFFCURVE",
"102 934 CURVE SMOOTH",
"102 801 OFFCURVE",
"245 709 OFFCURVE",
"494 692 CURVE",
"397 541 OFFCURVE",
"289 334 OFFCURVE",
"172 72 CURVE",
"172 0 LINE"
);
},
{
closed = 1;
nodes = (
"330 161 OFFCURVE",
"395 201 OFFCURVE",
"471 201 CURVE SMOOTH",
"547 201 OFFCURVE",
"614 161 OFFCURVE",
"641 102 CURVE",
"303 102 LINE"
);
},
{
closed = 1;
nodes = (
"668 424 OFFCURVE",
"698 453 OFFCURVE",
"698 489 CURVE SMOOTH",
"698 526 OFFCURVE",
"668 557 OFFCURVE",
"631 557 CURVE SMOOTH",
"594 557 OFFCURVE",
"565 526 OFFCURVE",
"565 489 CURVE SMOOTH",
"565 453 OFFCURVE",
"594 424 OFFCURVE",
"631 424 CURVE SMOOTH"
);
},
{
closed = 1;
nodes = (
"918 161 OFFCURVE",
"985 201 OFFCURVE",
"1061 201 CURVE SMOOTH",
"1137 201 OFFCURVE",
"1202 161 OFFCURVE",
"1229 102 CURVE",
"891 102 LINE"
);
},
{
closed = 1;
nodes = (
"717 222 OFFCURVE",
"604 303 OFFCURVE",
"471 303 CURVE SMOOTH",
"437 303 OFFCURVE",
"408 296 OFFCURVE",
"383 281 CURVE",
"528 581 OFFCURVE",
"643 752 OFFCURVE",
"760 872 CURVE",
"893 736 OFFCURVE",
"1032 522 OFFCURVE",
"1149 281 CURVE",
"1124 296 OFFCURVE",
"1095 303 OFFCURVE",
"1061 303 CURVE SMOOTH",
"929 303 OFFCURVE",
"815 222 OFFCURVE",
"784 102 CURVE",
"748 102 LINE"
);
},
{
closed = 1;
nodes = (
"454 793 OFFCURVE",
"368 807 OFFCURVE",
"303 836 CURVE SMOOTH",
"238 865 OFFCURVE",
"205 897 OFFCURVE",
"205 934 CURVE SMOOTH",
"205 997 OFFCURVE",
"295 1040 OFFCURVE",
"416 1040 CURVE SMOOTH",
"506 1040 OFFCURVE",
"595 1007 OFFCURVE",
"684 940 CURVE",
"647 903 OFFCURVE",
"606 854 OFFCURVE",
"561 793 CURVE"
);
},
{
closed = 1;
nodes = (
"940 424 OFFCURVE",
"971 453 OFFCURVE",
"971 489 CURVE SMOOTH",
"971 526 OFFCURVE",
"940 557 OFFCURVE",
"903 557 CURVE SMOOTH",
"866 557 OFFCURVE",
"838 526 OFFCURVE",
"838 489 CURVE SMOOTH",
"838 453 OFFCURVE",
"866 424 OFFCURVE",
"903 424 CURVE SMOOTH"
);
},
{
closed = 1;
nodes = (
"416 1143 LINE",
"395 1143 LINE",
"344 1205 OFFCURVE",
"319 1277 OFFCURVE",
"319 1360 CURVE SMOOTH",
"319 1455 OFFCURVE",
"366 1550 OFFCURVE",
"442 1595 CURVE",
"446 1591 LINE",
"413 1528 OFFCURVE",
"397 1455 OFFCURVE",
"397 1372 CURVE SMOOTH",
"397 1296 OFFCURVE",
"416 1225 OFFCURVE",
"477 1137 CURVE"
);
}
);
width = 1460;
}
);
note = g100;
},
{
glyphname = g101;
lastChange = "2016-11-10 14:11:51 +0000";
layers = (
{
layerId = "71450CB2-F408-4DB3-81C5-B92F6F6BD2DF";
paths = (
{
closed = 1;
nodes = (
"764 117 OFFCURVE",
"841 191 OFFCURVE",
"870 340 CURVE",
"992 395 OFFCURVE",
"1053 522 OFFCURVE",
"1053 721 CURVE SMOOTH",
"1053 820 OFFCURVE",
"1028 908 OFFCURVE",
"977 985 CURVE",
"1044 962 OFFCURVE",
"1117 935 OFFCURVE",
"1194 903 CURVE SMOOTH",
"1271 870 OFFCURVE",
"1325 854 OFFCURVE",
"1358 854 CURVE SMOOTH",
"1386 854 OFFCURVE",
"1411 873 OFFCURVE",
"1411 920 CURVE SMOOTH",
"1411 950 OFFCURVE",
"1375 1005 OFFCURVE",
"1304 1084 CURVE SMOOTH",
"1160 1242 OFFCURVE",
"948 1348 OFFCURVE",
"727 1348 CURVE SMOOTH",
"366 1348 OFFCURVE",
"104 1158 OFFCURVE",
"104 961 CURVE SMOOTH",
"104 890 OFFCURVE",
"143 852 OFFCURVE",
"203 852 CURVE SMOOTH",
"229 852 OFFCURVE",
"280 873 OFFCURVE",
"355 914 CURVE SMOOTH",
"430 955 OFFCURVE",
"494 984 OFFCURVE",
"547 1001 CURVE",
"490 923 OFFCURVE",
"461 830 OFFCURVE",
"461 721 CURVE SMOOTH",
"461 618 OFFCURVE",
"486 530 OFFCURVE",
"537 457 CURVE",
"482 474 OFFCURVE",
"413 500 OFFCURVE",
"330 535 CURVE SMOOTH",
"247 570 OFFCURVE",
"192 588 OFFCURVE",
"164 588 CURVE SMOOTH",
"123 588 OFFCURVE",
"102 569 OFFCURVE",
"102 532 CURVE SMOOTH",
"102 498 OFFCURVE",
"133 444 OFFCURVE",
"194 370 CURVE SMOOTH",
"316 222 OFFCURVE",
"490 117 OFFCURVE",
"637 117 CURVE SMOOTH"
);
},
{
closed = 1;
nodes = (
"524 217 OFFCURVE",
"358 315 OFFCURVE",
"231 463 CURVE",
"236 469 LINE",
"447 373 OFFCURVE",
"622 322 OFFCURVE",
"760 315 CURVE",
"740 256 OFFCURVE",
"693 217 OFFCURVE",
"641 217 CURVE SMOOTH"
);
},
{
closed = 1;
nodes = (
"643 418 OFFCURVE",
"563 561 OFFCURVE",
"563 721 CURVE SMOOTH",
"563 882 OFFCURVE",
"645 1019 OFFCURVE",
"750 1024 CURVE",
"869 1024 OFFCURVE",
"950 884 OFFCURVE",
"950 721 CURVE SMOOTH",
"950 556 OFFCURVE",
"865 418 OFFCURVE",
"760 418 CURVE SMOOTH"
);
},
{
closed = 1;
nodes = (
"211 956 OFFCURVE",
"207 962 OFFCURVE",
"207 973 CURVE SMOOTH",
"207 1100 OFFCURVE",
"440 1245 OFFCURVE",
"727 1245 CURVE SMOOTH",
"932 1245 OFFCURVE",
"1147 1144 OFFCURVE",
"1280 981 CURVE",
"1278 975 LINE",
"1053 1076 OFFCURVE",
"875 1126 OFFCURVE",
"743 1126 CURVE SMOOTH",
"579 1126 OFFCURVE",
"422 1072 OFFCURVE",
"307 1005 CURVE SMOOTH",
"219 956 LINE"
);
}
);
width = 1513;
}
);
note = g101;
},
{
glyphname = g102;
lastChange = "2016-11-10 14:11:51 +0000";
layers = (
{
layerId = "71450CB2-F408-4DB3-81C5-B92F6F6BD2DF";
paths = (
{
closed = 1;
nodes = (
"334 25 LINE",
"383 8 OFFCURVE",
"438 0 OFFCURVE",
"500 0 CURVE SMOOTH",
"607 0 OFFCURVE",
"703 38 OFFCURVE",
"788 113 CURVE",
"873 38 OFFCURVE",
"970 0 OFFCURVE",
"1079 0 CURVE SMOOTH",
"1137 0 OFFCURVE",
"1192 8 OFFCURVE",
"1243 25 CURVE",
"1430 -68 LINE",
"1462 10 LINE",
"1333 80 LINE",
"1365 103 OFFCURVE",
"1412 144 OFFCURVE",
"1475 205 CURVE",
"1415 262 LINE",
"1373 217 OFFCURVE",
"1331 180 OFFCURVE",
"1288 150 CURVE",
"1288 303 LINE",
"1204 303 LINE",
"1204 123 LINE",
"1159 109 OFFCURVE",
"1117 102 OFFCURVE",
"1079 102 CURVE SMOOTH",
"998 102 OFFCURVE",
"925 131 OFFCURVE",
"860 188 CURVE",
"960 321 OFFCURVE",
"1010 486 OFFCURVE",
"1010 684 CURVE SMOOTH",
"1010 781 OFFCURVE",
"993 869 OFFCURVE",
"958 946 CURVE",
"1212 862 LINE",
"1270 985 LINE",
"1454 1053 LINE",
"1425 1128 LINE",
"1300 1079 LINE",
"1358 1198 LINE",
"1282 1235 LINE",
"1231 1112 LINE",
"1186 1227 LINE",
"1110 1198 LINE",
"1180 1026 LINE",
"1159 979 LINE",
"932 1047 LINE",
"970 1076 OFFCURVE",
"989 1116 OFFCURVE",
"989 1167 CURVE SMOOTH",
"989 1240 OFFCURVE",
"903 1346 OFFCURVE",
"788 1405 CURVE",
"673 1346 OFFCURVE",
"588 1240 OFFCURVE",
"588 1167 CURVE SMOOTH",
"588 1116 OFFCURVE",
"607 1076 OFFCURVE",
"645 1047 CURVE",
"418 979 LINE",
"397 1026 LINE",
"467 1198 LINE",
"391 1227 LINE",
"346 1112 LINE",
"295 1235 LINE",
"219 1198 LINE",
"276 1079 LINE",
"152 1128 LINE",
"123 1053 LINE",
"307 985 LINE",
"365 862 LINE",
"618 946 LINE",
"587 875 OFFCURVE",
"567 768 OFFCURVE",
"567 684 CURVE SMOOTH",
"567 485 OFFCURVE",
"618 320 OFFCURVE",
"719 188 CURVE",
"651 131 OFFCURVE",
"578 102 OFFCURVE",
"500 102 CURVE SMOOTH",
"461 102 OFFCURVE",
"418 109 OFFCURVE",
"373 123 CURVE",
"373 303 LINE",
"289 303 LINE",
"289 150 LINE",
"248 178 OFFCURVE",
"205 215 OFFCURVE",
"162 262 CURVE",
"102 205 LINE",
"148 157 OFFCURVE",
"195 115 OFFCURVE",
"244 80 CURVE",
"115 10 LINE",
"147 -68 LINE"
);
},
{
closed = 1;
nodes = (
"709 377 OFFCURVE",
"670 516 OFFCURVE",
"670 684 CURVE SMOOTH",
"670 809 OFFCURVE",
"707 916 OFFCURVE",
"745 968 CURVE SMOOTH",
"764 993 OFFCURVE",
"777 1006 OFFCURVE",
"786 1006 CURVE SMOOTH",
"806 1006 OFFCURVE",
"831 975 OFFCURVE",
"862 913 CURVE SMOOTH",
"892 850 OFFCURVE",
"907 774 OFFCURVE",
"907 684 CURVE SMOOTH",
"907 517 OFFCURVE",
"867 377 OFFCURVE",
"788 266 CURVE"
);
},
{
closed = 1;
nodes = (
"731 1094 OFFCURVE",
"690 1127 OFFCURVE",
"690 1167 CURVE SMOOTH",
"690 1203 OFFCURVE",
"732 1255 OFFCURVE",
"788 1290 CURVE",
"855 1251 OFFCURVE",
"887 1198 OFFCURVE",
"887 1167 CURVE SMOOTH",
"887 1128 OFFCURVE",
"848 1094 OFFCURVE",
"791 1094 CURVE SMOOTH"
);
}
);
width = 1577;
}
);
note = g102;
},
{
glyphname = g103;
lastChange = "2016-11-10 14:11:51 +0000";
layers = (
{
layerId = "71450CB2-F408-4DB3-81C5-B92F6F6BD2DF";
paths = (
{
closed = 1;
nodes = (
"477 0 LINE",
"649 557 LINE",
"825 0 LINE",
"1133 0 LINE",
"1133 102 LINE",
"899 102 LINE",
"838 291 LINE",
"924 299 OFFCURVE",
"1020 315 OFFCURVE",
"1126 338 CURVE",
"1126 410 LINE",
"797 1057 LINE",
"813 1059 LINE",
"829 1059 LINE SMOOTH",
"930 1059 OFFCURVE",
"1023 1017 OFFCURVE",
"1108 934 CURVE",
"1182 1008 LINE",
"1080 1110 OFFCURVE",
"962 1161 OFFCURVE",
"829 1161 CURVE SMOOTH",
"807 1161 OFFCURVE",
"780 1158 OFFCURVE",
"748 1153 CURVE",
"717 1217 LINE",
"770 1252 OFFCURVE",
"809 1324 OFFCURVE",
"809 1411 CURVE SMOOTH",
"809 1531 OFFCURVE",
"733 1628 OFFCURVE",
"641 1628 CURVE SMOOTH",
"549 1628 OFFCURVE",
"475 1534 OFFCURVE",
"475 1411 CURVE SMOOTH",
"475 1324 OFFCURVE",
"511 1249 OFFCURVE",
"567 1214 CURVE",
"537 1153 LINE",
"503 1158 OFFCURVE",
"476 1161 OFFCURVE",
"455 1161 CURVE SMOOTH",
"322 1161 OFFCURVE",
"204 1110 OFFCURVE",
"102 1008 CURVE",
"176 934 LINE",
"259 1017 OFFCURVE",
"352 1059 OFFCURVE",
"455 1059 CURVE",
"489 1057 LINE",
"176 410 LINE",
"176 338 LINE",
"269 318 OFFCURVE",
"364 303 OFFCURVE",
"463 293 CURVE",
"403 102 LINE",
"170 102 LINE",
"170 0 LINE"
);
},
{
closed = 1;
nodes = (
"436 393 OFFCURVE",
"369 403 OFFCURVE",
"295 418 CURVE",
"643 1141 LINE",
"689 1044 OFFCURVE",
"749 925 OFFCURVE",
"824 782 CURVE SMOOTH",
"898 639 OFFCURVE",
"959 518 OFFCURVE",
"1008 418 CURVE",
"953 408 OFFCURVE",
"885 399 OFFCURVE",
"805 391 CURVE",
"702 705 LINE",
"600 705 LINE",
"496 389 LINE"
);
},
{
closed = 1;
nodes = (
"605 1296 OFFCURVE",
"578 1350 OFFCURVE",
"578 1411 CURVE SMOOTH",
"578 1472 OFFCURVE",
"605 1526 OFFCURVE",
"641 1526 CURVE SMOOTH",
"676 1526 OFFCURVE",
"707 1474 OFFCURVE",
"707 1411 CURVE SMOOTH",
"707 1351 OFFCURVE",
"677 1296 OFFCURVE",
"641 1296 CURVE SMOOTH"
);
}
);
width = 1284;
}
);
note = g103;
},
{
glyphname = g104;
lastChange = "2016-11-10 14:11:51 +0000";
layers = (
{
layerId = "71450CB2-F408-4DB3-81C5-B92F6F6BD2DF";
paths = (
{
closed = 1;
nodes = (
"1595 0 LINE",
"1595 262 LINE SMOOTH",
"1595 446 OFFCURVE",
"1551 597 OFFCURVE",
"1464 715 CURVE",
"1607 743 OFFCURVE",
"1714 875 OFFCURVE",
"1714 1006 CURVE SMOOTH",
"1714 1110 OFFCURVE",
"1647 1174 OFFCURVE",
"1546 1174 CURVE SMOOTH",
"1414 1174 OFFCURVE",
"1275 1062 OFFCURVE",
"1251 905 CURVE",
"1146 968 OFFCURVE",
"1032 999 OFFCURVE",
"907 999 CURVE SMOOTH",
"781 999 OFFCURVE",
"666 968 OFFCURVE",
"563 907 CURVE",
"543 1059 OFFCURVE",
"403 1174 OFFCURVE",
"270 1174 CURVE SMOOTH",
"167 1174 OFFCURVE",
"102 1109 OFFCURVE",
"102 1006 CURVE SMOOTH",
"102 885 OFFCURVE",
"202 746 OFFCURVE",
"350 715 CURVE",
"261 590 OFFCURVE",
"221 448 OFFCURVE",
"221 256 CURVE SMOOTH",
"221 0 LINE"
);
},
{
closed = 1;
nodes = (
"743 188 LINE",
"854 559 LINE",
"854 633 LINE",
"528 633 LINE",
"528 559 LINE",
"641 188 LINE"
);
},
{
closed = 1;
nodes = (
"631 541 LINE",
"754 541 LINE",
"692 334 LINE"
);
},
{
closed = 1;
nodes = (
"316 809 OFFCURVE",
"205 916 OFFCURVE",
"205 1008 CURVE SMOOTH",
"205 1050 OFFCURVE",
"226 1071 OFFCURVE",
"268 1071 CURVE SMOOTH",
"359 1071 OFFCURVE",
"467 961 OFFCURVE",
"467 872 CURVE SMOOTH",
"467 855 OFFCURVE",
"464 843 OFFCURVE",
"459 834 CURVE",
"440 817 LINE",
"431 812 OFFCURVE",
"419 809 OFFCURVE",
"403 809 CURVE SMOOTH"
);
},
{
closed = 1;
nodes = (
"324 262 LINE SMOOTH",
"324 637 OFFCURVE",
"572 897 OFFCURVE",
"907 897 CURVE SMOOTH",
"1243 897 OFFCURVE",
"1493 633 OFFCURVE",
"1493 254 CURVE SMOOTH",
"1493 102 LINE",
"324 102 LINE"
);
},
{
closed = 1;
nodes = (
"1176 188 LINE",
"1286 559 LINE",
"1286 633 LINE",
"961 633 LINE",
"961 559 LINE",
"1073 188 LINE"
);
},
{
closed = 1;
nodes = (
"1063 541 LINE",
"1186 541 LINE",
"1124 334 LINE"
);
},
{
closed = 1;
nodes = (
"1374 809 OFFCURVE",
"1350 825 OFFCURVE",
"1350 872 CURVE SMOOTH",
"1350 964 OFFCURVE",
"1460 1071 OFFCURVE",
"1548 1071 CURVE SMOOTH",
"1592 1071 OFFCURVE",
"1612 1047 OFFCURVE",
"1612 1008 CURVE SMOOTH",
"1612 920 OFFCURVE",
"1501 809 OFFCURVE",
"1413 809 CURVE SMOOTH"
);
}
);
width = 1817;
}
);
note = g104;
},
{
glyphname = g105;
lastChange = "2016-11-10 14:11:51 +0000";
layers = (
{
layerId = "71450CB2-F408-4DB3-81C5-B92F6F6BD2DF";
paths = (
{
closed = 1;
nodes = (
"1091 -92 OFFCURVE",
"1224 2 OFFCURVE",
"1257 145 CURVE",
"1212 190 LINE",
"1152 169 OFFCURVE",
"1106 158 OFFCURVE",
"1073 158 CURVE SMOOTH",
"1032 158 OFFCURVE",
"998 164 OFFCURVE",
"973 176 CURVE",
"1048 260 OFFCURVE",
"1096 387 OFFCURVE",
"1096 532 CURVE SMOOTH",
"1096 764 OFFCURVE",
"973 953 OFFCURVE",
"813 985 CURVE",
"813 1409 LINE",
"741 1496 OFFCURVE",
"652 1548 OFFCURVE",
"573 1548 CURVE SMOOTH",
"503 1548 OFFCURVE",
"437 1520 OFFCURVE",
"375 1464 CURVE",
"246 1595 LINE",
"180 1530 LINE",
"301 1407 LINE",
"102 1407 LINE",
"102 1325 LINE",
"301 1325 LINE",
"180 1204 LINE",
"246 1137 LINE",
"373 1264 LINE",
"433 1208 OFFCURVE",
"500 1180 OFFCURVE",
"573 1180 CURVE SMOOTH",
"618 1180 OFFCURVE",
"664 1194 OFFCURVE",
"711 1221 CURVE",
"711 983 LINE",
"680 976 OFFCURVE",
"653 965 OFFCURVE",
"629 948 CURVE",
"627 946 LINE",
"397 821 LINE",
"283 1018 LINE",
"193 965 LINE",
"358 682 LINE",
"477 745 LINE",
"464 709 OFFCURVE",
"455 673 OFFCURVE",
"449 637 CURVE",
"338 580 LINE",
"205 737 LINE",
"127 672 LINE",
"309 453 LINE",
"440 518 LINE",
"440 481 OFFCURVE",
"444 445 OFFCURVE",
"451 410 CURVE",
"338 324 LINE",
"199 467 LINE",
"125 397 LINE",
"328 188 LINE",
"481 305 LINE",
"496 272 OFFCURVE",
"511 243 OFFCURVE",
"528 219 CURVE",
"371 66 LINE",
"231 188 LINE",
"166 111 LINE",
"375 -72 LINE",
"594 143 LINE",
"642 4 OFFCURVE",
"787 -92 OFFCURVE",
"934 -92 CURVE SMOOTH"
);
},
{
closed = 1;
nodes = (
"870 8 OFFCURVE",
"811 31 OFFCURVE",
"762 78 CURVE",
"780 77 LINE",
"823 77 OFFCURVE",
"859 87 OFFCURVE",
"889 106 CURVE",
"938 76 OFFCURVE",
"988 61 OFFCURVE",
"1038 61 CURVE SMOOTH",
"1056 61 OFFCURVE",
"1075 63 OFFCURVE",
"1096 68 CURVE",
"1098 63 LINE",
"1053 26 OFFCURVE",
"999 8 OFFCURVE",
"938 8 CURVE SMOOTH"
);
},
{
closed = 1;
nodes = (
"643 176 OFFCURVE",
"543 336 OFFCURVE",
"543 532 CURVE SMOOTH",
"543 729 OFFCURVE",
"645 889 OFFCURVE",
"766 889 CURVE SMOOTH",
"890 889 OFFCURVE",
"993 727 OFFCURVE",
"993 532 CURVE SMOOTH",
"993 336 OFFCURVE",
"891 176 OFFCURVE",
"766 176 CURVE SMOOTH"
);
},
{
closed = 1;
nodes = (
"522 1282 OFFCURVE",
"471 1310 OFFCURVE",
"418 1366 CURVE",
"471 1419 OFFCURVE",
"523 1446 OFFCURVE",
"573 1446 CURVE SMOOTH",
"622 1446 OFFCURVE",
"672 1419 OFFCURVE",
"721 1366 CURVE",
"719 1364 LINE",
"684 1319 OFFCURVE",
"624 1282 OFFCURVE",
"573 1282 CURVE SMOOTH"
);
}
);
width = 1298;
}
);
note = g105;
},
{
glyphname = g106;
lastChange = "2016-11-10 14:11:51 +0000";
layers = (
{
layerId = "71450CB2-F408-4DB3-81C5-B92F6F6BD2DF";
paths = (
{
closed = 1;
nodes = (
"768 0 LINE",
"768 72 LINE",
"602 528 LINE",
"714 573 OFFCURVE",
"786 658 OFFCURVE",
"786 762 CURVE SMOOTH",
"786 847 OFFCURVE",
"723 938 OFFCURVE",
"627 975 CURVE",
"732 1018 OFFCURVE",
"786 1101 OFFCURVE",
"786 1186 CURVE SMOOTH",
"786 1313 OFFCURVE",
"663 1427 OFFCURVE",
"496 1446 CURVE",
"496 1599 LINE",
"393 1599 LINE",
"393 1446 LINE",
"224 1426 OFFCURVE",
"102 1315 OFFCURVE",
"102 1186 CURVE SMOOTH",
"102 1098 OFFCURVE",
"153 1018 OFFCURVE",
"260 973 CURVE",
"167 934 OFFCURVE",
"102 853 OFFCURVE",
"102 762 CURVE SMOOTH",
"102 658 OFFCURVE",
"176 573 OFFCURVE",
"285 528 CURVE",
"121 72 LINE",
"121 0 LINE"
);
}
);
width = 889;
}
);
note = g106;
},
{
glyphname = g107;
lastChange = "2016-11-10 14:11:51 +0000";
layers = (
{
layerId = "71450CB2-F408-4DB3-81C5-B92F6F6BD2DF";
paths = (
{
closed = 1;
nodes = (
"1167 -113 LINE",
"981 117 LINE",
"1006 135 OFFCURVE",
"1029 157 OFFCURVE",
"1049 182 CURVE",
"1280 45 LINE",
"1333 135 LINE",
"1102 274 LINE",
"1107 287 OFFCURVE",
"1115 315 OFFCURVE",
"1126 358 CURVE",
"1374 358 LINE",
"1374 461 LINE",
"1130 461 LINE",
"1127 500 OFFCURVE",
"1122 530 OFFCURVE",
"1116 553 CURVE",
"1335 686 LINE",
"1282 772 LINE",
"1069 643 LINE",
"1052 666 OFFCURVE",
"1025 690 OFFCURVE",
"989 715 CURVE",
"1169 895 LINE",
"1096 969 LINE",
"889 766 LINE",
"795 795 LINE",
"624 836 OFFCURVE",
"588 890 OFFCURVE",
"588 981 CURVE SMOOTH",
"588 1060 OFFCURVE",
"637 1121 OFFCURVE",
"717 1141 CURVE",
"717 1096 LINE SMOOTH",
"717 966 OFFCURVE",
"774 901 OFFCURVE",
"887 901 CURVE SMOOTH",
"970 901 OFFCURVE",
"1028 967 OFFCURVE",
"1028 1055 CURVE SMOOTH",
"1028 1155 OFFCURVE",
"950 1224 OFFCURVE",
"819 1239 CURVE",
"819 1464 LINE",
"549 1464 LINE",
"525 1567 OFFCURVE",
"431 1640 OFFCURVE",
"328 1640 CURVE SMOOTH",
"207 1640 OFFCURVE",
"102 1542 OFFCURVE",
"102 1413 CURVE SMOOTH",
"102 1286 OFFCURVE",
"204 1188 OFFCURVE",
"328 1188 CURVE SMOOTH",
"435 1188 OFFCURVE",
"525 1262 OFFCURVE",
"549 1362 CURVE",
"717 1362 LINE",
"717 1237 LINE",
"580 1214 OFFCURVE",
"485 1110 OFFCURVE",
"485 981 CURVE SMOOTH",
"485 829 OFFCURVE",
"547 750 OFFCURVE",
"746 703 CURVE SMOOTH",
"945 655 OFFCURVE",
"1030 578 OFFCURVE",
"1030 434 CURVE SMOOTH",
"1030 243 OFFCURVE",
"879 125 OFFCURVE",
"647 125 CURVE SMOOTH",
"406 125 LINE",
"264 322 LINE",
"182 260 LINE",
"317 72 LINE",
"182 -117 LINE",
"264 -174 LINE",
"401 23 LINE",
"647 23 LINE SMOOTH",
"738 23 OFFCURVE",
"820 37 OFFCURVE",
"891 66 CURVE",
"1090 -178 LINE"
);
},
{
closed = 1;
nodes = (
"263 1290 OFFCURVE",
"205 1344 OFFCURVE",
"205 1413 CURVE SMOOTH",
"205 1482 OFFCURVE",
"263 1538 OFFCURVE",
"328 1538 CURVE SMOOTH",
"393 1538 OFFCURVE",
"453 1482 OFFCURVE",
"453 1413 CURVE SMOOTH",
"453 1344 OFFCURVE",
"392 1290 OFFCURVE",
"328 1290 CURVE SMOOTH"
);
},
{
closed = 1;
nodes = (
"838 997 OFFCURVE",
"819 1026 OFFCURVE",
"819 1090 CURVE SMOOTH",
"819 1145 LINE",
"886 1137 OFFCURVE",
"936 1105 OFFCURVE",
"936 1049 CURVE SMOOTH",
"936 1026 OFFCURVE",
"922 997 OFFCURVE",
"891 997 CURVE SMOOTH"
);
}
);
width = 1477;
}
);
note = g107;
},
{
glyphname = g108;
lastChange = "2016-11-10 14:11:51 +0000";
layers = (
{
layerId = "71450CB2-F408-4DB3-81C5-B92F6F6BD2DF";
paths = (
{
closed = 1;
nodes = (
"823 0 LINE",
"823 311 LINE",
"959 476 OFFCURVE",
"1050 639 OFFCURVE",
"1096 799 CURVE",
"1118 792 OFFCURVE",
"1143 788 OFFCURVE",
"1171 788 CURVE SMOOTH",
"1324 788 OFFCURVE",
"1442 912 OFFCURVE",
"1442 1059 CURVE SMOOTH",
"1442 1206 OFFCURVE",
"1323 1329 OFFCURVE",
"1171 1329 CURVE SMOOTH",
"1099 1329 OFFCURVE",
"1036 1304 OFFCURVE",
"983 1253 CURVE",
"922 1301 OFFCURVE",
"852 1325 OFFCURVE",
"772 1325 CURVE SMOOTH",
"693 1325 OFFCURVE",
"622 1301 OFFCURVE",
"559 1253 CURVE",
"506 1304 OFFCURVE",
"444 1329 OFFCURVE",
"373 1329 CURVE SMOOTH",
"222 1329 OFFCURVE",
"102 1210 OFFCURVE",
"102 1059 CURVE SMOOTH",
"102 910 OFFCURVE",
"222 788 OFFCURVE",
"373 788 CURVE SMOOTH",
"395 788 OFFCURVE",
"419 792 OFFCURVE",
"446 799 CURVE",
"489 650 OFFCURVE",
"594 464 OFFCURVE",
"721 311 CURVE",
"721 0 LINE"
);
},
{
closed = 1;
nodes = (
"281 891 OFFCURVE",
"205 967 OFFCURVE",
"205 1059 CURVE SMOOTH",
"205 1151 OFFCURVE",
"281 1227 OFFCURVE",
"373 1227 CURVE SMOOTH",
"416 1227 OFFCURVE",
"454 1212 OFFCURVE",
"487 1182 CURVE",
"442 1119 OFFCURVE",
"420 1049 OFFCURVE",
"420 971 CURVE",
"424 899 LINE",
"411 894 OFFCURVE",
"394 891 OFFCURVE",
"373 891 CURVE SMOOTH"
);
},
{
closed = 1;
nodes = (
"608 616 OFFCURVE",
"522 818 OFFCURVE",
"522 971 CURVE SMOOTH",
"522 1111 OFFCURVE",
"635 1223 OFFCURVE",
"772 1223 CURVE SMOOTH",
"908 1223 OFFCURVE",
"1022 1112 OFFCURVE",
"1022 971 CURVE SMOOTH",
"1022 812 OFFCURVE",
"919 585 OFFCURVE",
"772 401 CURVE"
);
},
{
closed = 1;
nodes = (
"1150 891 OFFCURVE",
"1132 894 OFFCURVE",
"1118 899 CURVE",
"1122 924 OFFCURVE",
"1124 948 OFFCURVE",
"1124 971 CURVE SMOOTH",
"1124 1049 OFFCURVE",
"1102 1119 OFFCURVE",
"1057 1182 CURVE",
"1087 1212 OFFCURVE",
"1125 1227 OFFCURVE",
"1171 1227 CURVE SMOOTH",
"1260 1227 OFFCURVE",
"1339 1155 OFFCURVE",
"1339 1059 CURVE SMOOTH",
"1339 964 OFFCURVE",
"1262 891 OFFCURVE",
"1171 891 CURVE SMOOTH"
);
}
);
width = 1544;
}
);
note = g108;
},
{
glyphname = g109;
lastChange = "2016-11-10 14:11:51 +0000";
layers = (
{
layerId = "71450CB2-F408-4DB3-81C5-B92F6F6BD2DF";
paths = (
{
closed = 1;
nodes = (
"1174 0 LINE",
"1236 139 OFFCURVE",
"1296 295 OFFCURVE",
"1354 467 CURVE",
"1441 394 OFFCURVE",
"1544 358 OFFCURVE",
"1665 358 CURVE SMOOTH",
"1930 358 OFFCURVE",
"2150 575 OFFCURVE",
"2150 844 CURVE SMOOTH",
"2150 1113 OFFCURVE",
"1932 1333 OFFCURVE",
"1665 1333 CURVE SMOOTH",
"1559 1333 OFFCURVE",
"1462 1301 OFFCURVE",
"1374 1237 CURVE",
"1318 1318 OFFCURVE",
"1235 1358 OFFCURVE",
"1126 1358 CURVE SMOOTH",
"1017 1358 OFFCURVE",
"935 1318 OFFCURVE",
"879 1237 CURVE",
"791 1301 OFFCURVE",
"694 1333 OFFCURVE",
"588 1333 CURVE SMOOTH",
"317 1333 OFFCURVE",
"102 1112 OFFCURVE",
"102 844 CURVE SMOOTH",
"102 577 OFFCURVE",
"319 358 OFFCURVE",
"588 358 CURVE SMOOTH",
"709 358 OFFCURVE",
"812 394 OFFCURVE",
"899 467 CURVE",
"940 331 OFFCURVE",
"1000 175 OFFCURVE",
"1079 0 CURVE"
);
},
{
closed = 1;
nodes = (
"377 461 OFFCURVE",
"205 633 OFFCURVE",
"205 844 CURVE SMOOTH",
"205 1060 OFFCURVE",
"379 1231 OFFCURVE",
"588 1231 CURVE SMOOTH",
"681 1231 OFFCURVE",
"762 1203 OFFCURVE",
"831 1147 CURVE",
"828 1140 OFFCURVE",
"823 1124 OFFCURVE",
"817 1100 CURVE",
"775 1126 OFFCURVE",
"730 1139 OFFCURVE",
"682 1139 CURVE SMOOTH",
"535 1139 OFFCURVE",
"416 1020 OFFCURVE",
"416 872 CURVE SMOOTH",
"416 725 OFFCURVE",
"535 606 OFFCURVE",
"682 606 CURVE SMOOTH",
"744 606 OFFCURVE",
"798 624 OFFCURVE",
"844 659 CURVE",
"864 575 LINE",
"795 503 OFFCURVE",
"696 461 OFFCURVE",
"588 461 CURVE SMOOTH"
);
},
{
closed = 1;
nodes = (
"594 709 OFFCURVE",
"518 781 OFFCURVE",
"518 872 CURVE SMOOTH",
"518 964 OFFCURVE",
"594 1036 OFFCURVE",
"682 1036 CURVE SMOOTH",
"731 1036 OFFCURVE",
"771 1019 OFFCURVE",
"801 985 CURVE",
"801 940 LINE SMOOTH",
"801 892 OFFCURVE",
"806 839 OFFCURVE",
"817 780 CURVE",
"783 733 OFFCURVE",
"738 709 OFFCURVE",
"682 709 CURVE SMOOTH"
);
},
{
closed = 1;
nodes = (
"999 408 OFFCURVE",
"903 748 OFFCURVE",
"903 940 CURVE SMOOTH",
"903 1143 OFFCURVE",
"985 1255 OFFCURVE",
"1126 1255 CURVE SMOOTH",
"1269 1255 OFFCURVE",
"1350 1143 OFFCURVE",
"1350 940 CURVE SMOOTH",
"1350 752 OFFCURVE",
"1259 422 OFFCURVE",
"1126 123 CURVE"
);
},
{
closed = 1;
nodes = (
"1515 709 OFFCURVE",
"1464 737 OFFCURVE",
"1436 780 CURVE",
"1447 839 OFFCURVE",
"1452 892 OFFCURVE",
"1452 940 CURVE SMOOTH",
"1452 963 LINE",
"1450 985 LINE",
"1484 1019 OFFCURVE",
"1524 1036 OFFCURVE",
"1571 1036 CURVE SMOOTH",
"1658 1036 OFFCURVE",
"1735 964 OFFCURVE",
"1735 872 CURVE SMOOTH",
"1735 781 OFFCURVE",
"1659 709 OFFCURVE",
"1571 709 CURVE SMOOTH"
);
},
{
closed = 1;
nodes = (
"1554 461 OFFCURVE",
"1461 499 OFFCURVE",
"1386 575 CURVE",
"1409 659 LINE",
"1452 624 OFFCURVE",
"1506 606 OFFCURVE",
"1571 606 CURVE SMOOTH",
"1718 606 OFFCURVE",
"1837 725 OFFCURVE",
"1837 872 CURVE SMOOTH",
"1837 1020 OFFCURVE",
"1718 1139 OFFCURVE",
"1571 1139 CURVE SMOOTH",
"1522 1139 OFFCURVE",
"1476 1127 OFFCURVE",
"1434 1102 CURVE",
"1427 1128 OFFCURVE",
"1423 1142 OFFCURVE",
"1421 1145 CURVE",
"1492 1202 OFFCURVE",
"1574 1231 OFFCURVE",
"1665 1231 CURVE SMOOTH",
"1874 1231 OFFCURVE",
"2048 1060 OFFCURVE",
"2048 844 CURVE SMOOTH",
"2048 633 OFFCURVE",
"1876 461 OFFCURVE",
"1665 461 CURVE SMOOTH"
);
}
);
width = 2253;
}
);
note = g109;
},
{
glyphname = g110;
lastChange = "2016-11-10 14:11:51 +0000";
layers = (
{
layerId = "71450CB2-F408-4DB3-81C5-B92F6F6BD2DF";
paths = (
{
closed = 1;
nodes = (
"1013 -73 OFFCURVE",
"1053 30 OFFCURVE",
"1053 113 CURVE SMOOTH",
"1053 138 OFFCURVE",
"1046 173 OFFCURVE",
"1033 220 CURVE SMOOTH",
"1020 266 OFFCURVE",
"1013 298 OFFCURVE",
"1013 316 CURVE",
"1014 332 LINE",
"1077 433 OFFCURVE",
"1130 524 OFFCURVE",
"1171 606 CURVE",
"1238 567 OFFCURVE",
"1313 547 OFFCURVE",
"1397 547 CURVE SMOOTH",
"1633 547 OFFCURVE",
"1827 741 OFFCURVE",
"1827 977 CURVE SMOOTH",
"1827 1217 OFFCURVE",
"1630 1411 OFFCURVE",
"1397 1411 CURVE SMOOTH",
"1330 1411 OFFCURVE",
"1269 1397 OFFCURVE",
"1212 1370 CURVE",
"1146 1447 OFFCURVE",
"1064 1485 OFFCURVE",
"965 1485 CURVE SMOOTH",
"864 1485 OFFCURVE",
"781 1447 OFFCURVE",
"715 1370 CURVE",
"658 1397 OFFCURVE",
"597 1411 OFFCURVE",
"532 1411 CURVE SMOOTH",
"299 1411 OFFCURVE",
"102 1217 OFFCURVE",
"102 977 CURVE SMOOTH",
"102 742 OFFCURVE",
"296 547 OFFCURVE",
"532 547 CURVE SMOOTH",
"614 547 OFFCURVE",
"690 567 OFFCURVE",
"760 608 CURVE",
"812 511 OFFCURVE",
"862 425 OFFCURVE",
"911 350 CURVE",
"907 312 LINE",
"907 291 OFFCURVE",
"914 259 OFFCURVE",
"929 214 CURVE SMOOTH",
"943 169 OFFCURVE",
"950 136 OFFCURVE",
"950 113 CURVE SMOOTH",
"950 57 OFFCURVE",
"924 -14 OFFCURVE",
"879 -59 CURVE",
"952 -133 LINE"
);
},
{
closed = 1;
nodes = (
"351 649 OFFCURVE",
"205 798 OFFCURVE",
"205 977 CURVE SMOOTH",
"205 1160 OFFCURVE",
"349 1309 OFFCURVE",
"532 1309 CURVE SMOOTH",
"577 1309 OFFCURVE",
"620 1301 OFFCURVE",
"659 1284 CURVE",
"644 1247 OFFCURVE",
"633 1215 OFFCURVE",
"627 1188 CURVE",
"600 1199 OFFCURVE",
"573 1204 OFFCURVE",
"545 1204 CURVE SMOOTH",
"425 1204 OFFCURVE",
"326 1107 OFFCURVE",
"326 983 CURVE SMOOTH",
"326 860 OFFCURVE",
"424 764 OFFCURVE",
"545 764 CURVE SMOOTH",
"593 764 OFFCURVE",
"635 777 OFFCURVE",
"670 803 CURVE",
"713 702 LINE",
"662 667 OFFCURVE",
"601 649 OFFCURVE",
"532 649 CURVE SMOOTH"
);
},
{
closed = 1;
nodes = (
"478 866 OFFCURVE",
"428 922 OFFCURVE",
"428 983 CURVE SMOOTH",
"428 1047 OFFCURVE",
"480 1102 OFFCURVE",
"545 1102 CURVE SMOOTH",
"570 1102 OFFCURVE",
"593 1094 OFFCURVE",
"614 1079 CURVE",
"614 1063 LINE SMOOTH",
"614 1016 OFFCURVE",
"622 964 OFFCURVE",
"637 907 CURVE",
"611 880 OFFCURVE",
"580 866 OFFCURVE",
"545 866 CURVE SMOOTH"
);
},
{
closed = 1;
nodes = (
"800 709 OFFCURVE",
"717 928 OFFCURVE",
"717 1063 CURVE SMOOTH",
"717 1254 OFFCURVE",
"821 1382 OFFCURVE",
"965 1382 CURVE SMOOTH",
"1110 1382 OFFCURVE",
"1212 1252 OFFCURVE",
"1212 1063 CURVE SMOOTH",
"1212 924 OFFCURVE",
"1123 697 OFFCURVE",
"967 438 CURVE"
);
},
{
closed = 1;
nodes = (
"1345 866 OFFCURVE",
"1314 880 OFFCURVE",
"1292 907 CURVE",
"1307 966 OFFCURVE",
"1315 1018 OFFCURVE",
"1315 1063 CURVE SMOOTH",
"1315 1077 LINE",
"1336 1094 OFFCURVE",
"1359 1102 OFFCURVE",
"1384 1102 CURVE SMOOTH",
"1449 1102 OFFCURVE",
"1501 1047 OFFCURVE",
"1501 983 CURVE SMOOTH",
"1501 922 OFFCURVE",
"1449 866 OFFCURVE",
"1384 866 CURVE SMOOTH"
);
},
{
closed = 1;
nodes = (
"1331 649 OFFCURVE",
"1271 666 OFFCURVE",
"1217 700 CURVE",
"1228 724 OFFCURVE",
"1242 758 OFFCURVE",
"1257 801 CURVE",
"1291 776 OFFCURVE",
"1333 764 OFFCURVE",
"1384 764 CURVE SMOOTH",
"1505 764 OFFCURVE",
"1604 864 OFFCURVE",
"1604 983 CURVE SMOOTH",
"1604 1104 OFFCURVE",
"1507 1204 OFFCURVE",
"1384 1204 CURVE SMOOTH",
"1355 1204 OFFCURVE",
"1327 1199 OFFCURVE",
"1300 1188 CURVE",
"1292 1222 OFFCURVE",
"1281 1254 OFFCURVE",
"1268 1284 CURVE",
"1309 1301 OFFCURVE",
"1352 1309 OFFCURVE",
"1397 1309 CURVE SMOOTH",
"1577 1309 OFFCURVE",
"1724 1157 OFFCURVE",
"1724 977 CURVE SMOOTH",
"1724 800 OFFCURVE",
"1576 649 OFFCURVE",
"1397 649 CURVE SMOOTH"
);
}
);
width = 1929;
}
);
note = g110;
},
{
glyphname = g111;
lastChange = "2016-11-10 14:11:51 +0000";
layers = (
{
layerId = "71450CB2-F408-4DB3-81C5-B92F6F6BD2DF";
paths = (
{
closed = 1;
nodes = (
"287 0 LINE",
"287 385 LINE",
"981 0 LINE",
"1030 90 LINE",
"686 279 LINE",
"926 416 OFFCURVE",
"973 515 OFFCURVE",
"973 668 CURVE SMOOTH",
"973 829 OFFCURVE",
"858 980 OFFCURVE",
"678 1071 CURVE",
"727 1100 LINE SMOOTH",
"832 1160 OFFCURVE",
"881 1222 OFFCURVE",
"881 1309 CURVE SMOOTH",
"881 1436 OFFCURVE",
"686 1573 OFFCURVE",
"565 1573 CURVE SMOOTH",
"494 1573 LINE",
"494 1083 LINE",
"287 971 LINE",
"287 1397 LINE",
"184 1397 LINE",
"184 836 LINE",
"248 836 LINE",
"494 967 LINE",
"494 385 LINE",
"248 522 LINE",
"184 522 LINE",
"184 0 LINE"
);
},
{
closed = 1;
nodes = (
"596 995 LINE",
"765 926 OFFCURVE",
"870 800 OFFCURVE",
"870 668 CURVE SMOOTH",
"870 532 OFFCURVE",
"819 462 OFFCURVE",
"596 342 CURVE"
);
},
{
closed = 1;
nodes = (
"596 1462 LINE",
"688 1437 OFFCURVE",
"778 1359 OFFCURVE",
"778 1300 CURVE SMOOTH",
"778 1261 OFFCURVE",
"757 1235 OFFCURVE",
"698 1200 CURVE SMOOTH",
"596 1139 LINE"
);
}
);
width = 1133;
}
);
note = g111;
},
{
glyphname = g112;
lastChange = "2016-11-10 14:11:51 +0000";
layers = (
{
layerId = "71450CB2-F408-4DB3-81C5-B92F6F6BD2DF";
paths = (
{
closed = 1;
nodes = (
"1501 0 LINE",
"1501 838 LINE SMOOTH",
"1501 987 OFFCURVE",
"1471 1124 OFFCURVE",
"1412 1251 CURVE SMOOTH",
"1292 1504 OFFCURVE",
"1077 1659 OFFCURVE",
"844 1659 CURVE SMOOTH",
"729 1659 OFFCURVE",
"620 1623 OFFCURVE",
"519 1552 CURVE SMOOTH",
"316 1409 OFFCURVE",
"184 1139 OFFCURVE",
"184 838 CURVE SMOOTH",
"184 0 LINE"
);
},
{
closed = 1;
nodes = (
"287 305 LINE",
"489 102 LINE",
"287 102 LINE"
);
},
{
closed = 1;
nodes = (
"799 365 OFFCURVE",
"766 397 OFFCURVE",
"766 440 CURVE SMOOTH",
"766 481 OFFCURVE",
"799 516 OFFCURVE",
"842 516 CURVE SMOOTH",
"883 516 OFFCURVE",
"918 481 OFFCURVE",
"918 440 CURVE SMOOTH",
"918 397 OFFCURVE",
"883 365 OFFCURVE",
"842 365 CURVE SMOOTH"
);
},
{
closed = 1;
nodes = (
"514 774 OFFCURVE",
"481 807 OFFCURVE",
"481 850 CURVE SMOOTH",
"481 891 OFFCURVE",
"514 926 OFFCURVE",
"557 926 CURVE SMOOTH",
"598 926 OFFCURVE",
"633 891 OFFCURVE",
"633 850 CURVE SMOOTH",
"633 807 OFFCURVE",
"598 774 OFFCURVE",
"557 774 CURVE SMOOTH"
);
},
{
closed = 1;
nodes = (
"1399 305 LINE",
"1399 102 LINE",
"1196 102 LINE"
);
},
{
closed = 1;
nodes = (
"287 453 LINE",
"287 838 LINE SMOOTH",
"287 1085 OFFCURVE",
"384 1309 OFFCURVE",
"549 1444 CURVE",
"788 1245 LINE",
"788 901 LINE",
"727 901 LINE",
"707 976 OFFCURVE",
"637 1028 OFFCURVE",
"557 1028 CURVE SMOOTH",
"458 1028 OFFCURVE",
"379 951 OFFCURVE",
"379 850 CURVE SMOOTH",
"379 747 OFFCURVE",
"456 672 OFFCURVE",
"557 672 CURVE SMOOTH",
"638 672 OFFCURVE",
"706 723 OFFCURVE",
"727 799 CURVE",
"788 799 LINE",
"788 610 LINE",
"715 587 OFFCURVE",
"664 519 OFFCURVE",
"664 440 CURVE SMOOTH",
"664 337 OFFCURVE",
"741 262 OFFCURVE",
"842 262 CURVE SMOOTH",
"942 262 OFFCURVE",
"1020 341 OFFCURVE",
"1020 440 CURVE SMOOTH",
"1020 516 OFFCURVE",
"968 587 OFFCURVE",
"891 610 CURVE",
"891 799 LINE",
"956 799 LINE",
"979 724 OFFCURVE",
"1045 672 OFFCURVE",
"1128 672 CURVE SMOOTH",
"1229 672 OFFCURVE",
"1307 751 OFFCURVE",
"1307 850 CURVE SMOOTH",
"1307 950 OFFCURVE",
"1227 1028 OFFCURVE",
"1128 1028 CURVE SMOOTH",
"1047 1028 OFFCURVE",
"979 976 OFFCURVE",
"956 901 CURVE",
"891 901 LINE",
"891 1239 LINE",
"1137 1446 LINE",
"1298 1314 OFFCURVE",
"1399 1085 OFFCURVE",
"1399 838 CURVE SMOOTH",
"1399 453 LINE",
"1049 102 LINE",
"637 102 LINE"
);
},
{
closed = 1;
nodes = (
"1087 774 OFFCURVE",
"1053 807 OFFCURVE",
"1053 850 CURVE SMOOTH",
"1053 891 OFFCURVE",
"1087 926 OFFCURVE",
"1128 926 CURVE SMOOTH",
"1171 926 OFFCURVE",
"1204 891 OFFCURVE",
"1204 850 CURVE SMOOTH",
"1204 807 OFFCURVE",
"1171 774 OFFCURVE",
"1128 774 CURVE SMOOTH"
);
},
{
closed = 1;
nodes = (
"639 1505 LINE",
"687 1530 OFFCURVE",
"737 1546 OFFCURVE",
"788 1552 CURVE",
"788 1382 LINE"
);
},
{
closed = 1;
nodes = (
"891 1554 LINE",
"946 1547 OFFCURVE",
"998 1531 OFFCURVE",
"1047 1505 CURVE",
"891 1376 LINE"
);
}
);
width = 1686;
}
);
note = g112;
},
{
glyphname = g113;
lastChange = "2016-11-10 14:11:51 +0000";
layers = (
{
layerId = "71450CB2-F408-4DB3-81C5-B92F6F6BD2DF";
paths = (
{
closed = 1;
nodes = (
"707 -102 LINE",
"707 -92 LINE SMOOTH",
"707 49 OFFCURVE",
"900 297 OFFCURVE",
"1008 451 CURVE SMOOTH",
"1116 605 OFFCURVE",
"1194 780 OFFCURVE",
"1194 948 CURVE SMOOTH",
"1194 1265 OFFCURVE",
"968 1485 OFFCURVE",
"647 1485 CURVE SMOOTH",
"318 1485 OFFCURVE",
"102 1272 OFFCURVE",
"102 948 CURVE SMOOTH",
"102 780 OFFCURVE",
"148 632 OFFCURVE",
"395 332 CURVE SMOOTH",
"463 244 LINE SMOOTH",
"544 139 OFFCURVE",
"604 17 OFFCURVE",
"604 -84 CURVE SMOOTH",
"604 -102 LINE"
);
},
{
closed = 1;
nodes = (
"628 186 OFFCURVE",
"569 275 OFFCURVE",
"486 378 CURVE SMOOTH",
"403 481 OFFCURVE",
"346 557 OFFCURVE",
"317 606 CURVE",
"649 725 LINE",
"983 604 LINE",
"953 550 OFFCURVE",
"900 471 OFFCURVE",
"825 367 CURVE SMOOTH",
"736 239 LINE SMOOTH",
"708 199 OFFCURVE",
"683 157 OFFCURVE",
"662 113 CURVE"
);
},
{
closed = 1;
nodes = (
"225 781 OFFCURVE",
"205 864 OFFCURVE",
"205 948 CURVE SMOOTH",
"205 1193 OFFCURVE",
"362 1364 OFFCURVE",
"598 1380 CURVE",
"598 815 LINE",
"266 698 LINE"
);
},
{
closed = 1;
nodes = (
"700 815 LINE",
"700 1380 LINE",
"928 1361 OFFCURVE",
"1092 1185 OFFCURVE",
"1092 948 CURVE SMOOTH",
"1092 873 OFFCURVE",
"1072 790 OFFCURVE",
"1032 698 CURVE"
);
}
);
width = 1296;
}
);
note = g113;
},
{
glyphname = g114;
lastChange = "2016-11-10 14:11:51 +0000";
layers = (
{
layerId = "71450CB2-F408-4DB3-81C5-B92F6F6BD2DF";
paths = (
{
closed = 1;
nodes = (
"1221 -92 LINE",
"1104 -92 OFFCURVE",
"987 -68 OFFCURVE",
"870 -20 CURVE",
"1106 173 OFFCURVE",
"1241 414 OFFCURVE",
"1241 633 CURVE SMOOTH",
"1241 711 OFFCURVE",
"1223 788 OFFCURVE",
"1186 864 CURVE",
"1318 899 OFFCURVE",
"1386 981 OFFCURVE",
"1386 1094 CURVE SMOOTH",
"1386 1211 OFFCURVE",
"1303 1290 OFFCURVE",
"1182 1290 CURVE SMOOTH",
"1094 1290 OFFCURVE",
"1004 1225 OFFCURVE",
"932 1133 CURVE",
"897 1151 OFFCURVE",
"862 1165 OFFCURVE",
"825 1176 CURVE",
"967 1397 LINE",
"889 1446 LINE",
"791 1280 LINE",
"791 1485 LINE",
"698 1485 LINE",
"698 1280 LINE",
"600 1446 LINE",
"522 1397 LINE",
"662 1178 LINE",
"625 1169 OFFCURVE",
"588 1155 OFFCURVE",
"553 1137 CURVE",
"469 1240 OFFCURVE",
"383 1290 OFFCURVE",
"307 1290 CURVE SMOOTH",
"186 1290 OFFCURVE",
"102 1211 OFFCURVE",
"102 1094 CURVE SMOOTH",
"102 977 OFFCURVE",
"178 893 OFFCURVE",
"319 860 CURVE",
"288 779 OFFCURVE",
"272 691 OFFCURVE",
"272 596 CURVE SMOOTH",
"272 460 OFFCURVE",
"317 331 OFFCURVE",
"407 210 CURVE SMOOTH",
"587 -34 OFFCURVE",
"914 -195 OFFCURVE",
"1221 -195 CURVE"
);
},
{
closed = 1;
nodes = (
"380 506 OFFCURVE",
"375 550 OFFCURVE",
"375 596 CURVE SMOOTH",
"375 679 OFFCURVE",
"389 755 OFFCURVE",
"416 823 CURVE",
"496 758 OFFCURVE",
"528 699 OFFCURVE",
"528 623 CURVE SMOOTH",
"528 562 OFFCURVE",
"498 521 OFFCURVE",
"391 465 CURVE"
);
},
{
closed = 1;
nodes = (
"606 118 OFFCURVE",
"491 232 OFFCURVE",
"426 369 CURVE",
"585 446 OFFCURVE",
"631 518 OFFCURVE",
"631 623 CURVE SMOOTH",
"631 742 OFFCURVE",
"587 820 OFFCURVE",
"463 915 CURVE",
"532 1023 OFFCURVE",
"634 1085 OFFCURVE",
"737 1085 CURVE SMOOTH",
"841 1085 OFFCURVE",
"951 1022 OFFCURVE",
"1032 922 CURVE",
"904 826 OFFCURVE",
"858 744 OFFCURVE",
"858 623 CURVE SMOOTH",
"858 524 OFFCURVE",
"889 456 OFFCURVE",
"1065 367 CURVE",
"998 243 OFFCURVE",
"890 119 OFFCURVE",
"770 27 CURVE"
);
},
{
closed = 1;
nodes = (
"264 977 OFFCURVE",
"205 1026 OFFCURVE",
"205 1094 CURVE SMOOTH",
"205 1150 OFFCURVE",
"246 1188 OFFCURVE",
"307 1188 CURVE SMOOTH",
"360 1188 OFFCURVE",
"422 1140 OFFCURVE",
"469 1077 CURVE",
"430 1044 OFFCURVE",
"397 1004 OFFCURVE",
"369 956 CURVE"
);
},
{
closed = 1;
nodes = (
"999 511 OFFCURVE",
"961 560 OFFCURVE",
"961 623 CURVE SMOOTH",
"961 703 OFFCURVE",
"996 766 OFFCURVE",
"1087 834 CURVE",
"1122 763 OFFCURVE",
"1139 696 OFFCURVE",
"1139 633 CURVE SMOOTH",
"1139 578 OFFCURVE",
"1128 520 OFFCURVE",
"1106 459 CURVE"
);
},
{
closed = 1;
nodes = (
"1099 1000 OFFCURVE",
"1063 1039 OFFCURVE",
"1018 1075 CURVE",
"1077 1150 OFFCURVE",
"1132 1188 OFFCURVE",
"1182 1188 CURVE SMOOTH",
"1245 1188 OFFCURVE",
"1284 1149 OFFCURVE",
"1284 1094 CURVE SMOOTH",
"1284 1027 OFFCURVE",
"1232 981 OFFCURVE",
"1128 958 CURVE"
);
}
);
width = 1489;
}
);
note = g114;
},
{
glyphname = g115;
lastChange = "2016-11-10 14:11:51 +0000";
layers = (
{
layerId = "71450CB2-F408-4DB3-81C5-B92F6F6BD2DF";
paths = (
{
closed = 1;
nodes = (
"681 -20 OFFCURVE",
"887 282 OFFCURVE",
"887 707 CURVE SMOOTH",
"887 1116 OFFCURVE",
"711 1366 OFFCURVE",
"414 1366 CURVE SMOOTH",
"225 1366 OFFCURVE",
"102 1260 OFFCURVE",
"102 1087 CURVE SMOOTH",
"102 1011 OFFCURVE",
"138 936 OFFCURVE",
"210 863 CURVE SMOOTH",
"281 789 OFFCURVE",
"317 726 OFFCURVE",
"317 674 CURVE SMOOTH",
"317 635 OFFCURVE",
"297 589 OFFCURVE",
"257 537 CURVE SMOOTH",
"176 432 OFFCURVE",
"133 357 OFFCURVE",
"133 260 CURVE SMOOTH",
"133 85 OFFCURVE",
"243 -20 OFFCURVE",
"420 -20 CURVE SMOOTH"
);
},
{
closed = 1;
nodes = (
"299 82 OFFCURVE",
"236 156 OFFCURVE",
"236 260 CURVE SMOOTH",
"236 319 OFFCURVE",
"267 386 OFFCURVE",
"328 461 CURVE SMOOTH",
"389 535 OFFCURVE",
"420 606 OFFCURVE",
"420 674 CURVE SMOOTH",
"420 773 OFFCURVE",
"373 841 OFFCURVE",
"277 945 CURVE SMOOTH",
"229 996 OFFCURVE",
"205 1044 OFFCURVE",
"205 1087 CURVE SMOOTH",
"205 1195 OFFCURVE",
"290 1264 OFFCURVE",
"414 1264 CURVE SMOOTH",
"645 1264 OFFCURVE",
"782 1032 OFFCURVE",
"782 711 CURVE SMOOTH",
"782 356 OFFCURVE",
"615 82 OFFCURVE",
"420 82 CURVE SMOOTH"
);
}
);
width = 989;
}
);
note = g115;
},
{
glyphname = g116;
lastChange = "2016-11-10 14:11:51 +0000";
layers = (
{
layerId = "71450CB2-F408-4DB3-81C5-B92F6F6BD2DF";
paths = (
{
closed = 1;
nodes = (
"822 -20 OFFCURVE",
"1028 282 OFFCURVE",
"1028 707 CURVE SMOOTH",
"1028 924 OFFCURVE",
"982 1091 OFFCURVE",
"889 1208 CURVE",
"1071 1368 LINE",
"997 1456 LINE",
"807 1288 LINE",
"800 1294 OFFCURVE",
"787 1302 OFFCURVE",
"768 1313 CURVE",
"881 1536 LINE",
"780 1589 LINE",
"659 1354 LINE",
"621 1362 LINE",
"621 1618 LINE",
"506 1618 LINE",
"506 1364 LINE",
"457 1354 LINE",
"344 1589 LINE",
"242 1538 LINE",
"352 1309 LINE",
"325 1287 OFFCURVE",
"310 1273 OFFCURVE",
"305 1268 CURVE",
"115 1436 LINE",
"41 1348 LINE",
"252 1161 LINE",
"247 1131 OFFCURVE",
"244 1106 OFFCURVE",
"244 1087 CURVE SMOOTH",
"244 1010 OFFCURVE",
"280 935 OFFCURVE",
"352 862 CURVE SMOOTH",
"423 789 OFFCURVE",
"459 727 OFFCURVE",
"459 674 CURVE SMOOTH",
"459 638 OFFCURVE",
"443 598 OFFCURVE",
"410 555 CURVE SMOOTH",
"345 467 OFFCURVE",
"274 369 OFFCURVE",
"274 260 CURVE SMOOTH",
"274 85 OFFCURVE",
"384 -20 OFFCURVE",
"561 -20 CURVE SMOOTH"
);
},
{
closed = 1;
nodes = (
"440 82 OFFCURVE",
"377 156 OFFCURVE",
"377 260 CURVE SMOOTH",
"377 319 OFFCURVE",
"408 386 OFFCURVE",
"469 461 CURVE SMOOTH",
"530 535 OFFCURVE",
"561 606 OFFCURVE",
"561 674 CURVE SMOOTH",
"561 766 OFFCURVE",
"526 830 OFFCURVE",
"423 939 CURVE SMOOTH",
"372 993 OFFCURVE",
"346 1042 OFFCURVE",
"346 1087 CURVE SMOOTH",
"346 1195 OFFCURVE",
"431 1264 OFFCURVE",
"555 1264 CURVE SMOOTH",
"783 1264 OFFCURVE",
"924 1031 OFFCURVE",
"924 711 CURVE SMOOTH",
"924 356 OFFCURVE",
"758 82 OFFCURVE",
"561 82 CURVE SMOOTH"
);
}
);
width = 1174;
}
);
note = g116;
},
{
glyphname = g117;
lastChange = "2016-11-10 14:11:51 +0000";
layers = (
{
layerId = "71450CB2-F408-4DB3-81C5-B92F6F6BD2DF";
paths = (
{
closed = 1;
nodes = (
"483 -111 LINE",
"752 240 LINE",
"752 299 LINE",
"498 299 LINE",
"498 408 LINE",
"675 427 OFFCURVE",
"809 577 OFFCURVE",
"809 758 CURVE SMOOTH",
"809 938 OFFCURVE",
"678 1087 OFFCURVE",
"498 1108 CURVE",
"498 1214 LINE",
"752 1214 LINE",
"752 1274 LINE",
"483 1612 LINE",
"412 1612 LINE",
"141 1274 LINE",
"141 1214 LINE",
"395 1214 LINE",
"395 1106 LINE",
"228 1079 OFFCURVE",
"102 935 OFFCURVE",
"102 758 CURVE SMOOTH",
"102 582 OFFCURVE",
"226 437 OFFCURVE",
"395 410 CURVE",
"395 299 LINE",
"141 299 LINE",
"141 240 LINE",
"412 -111 LINE"
);
},
{
closed = 1;
nodes = (
"266 217 LINE",
"395 217 LINE",
"395 43 LINE"
);
},
{
closed = 1;
nodes = (
"498 217 LINE",
"627 217 LINE",
"498 43 LINE"
);
},
{
closed = 1;
nodes = (
"282 542 OFFCURVE",
"205 642 OFFCURVE",
"205 758 CURVE SMOOTH",
"205 875 OFFCURVE",
"283 974 OFFCURVE",
"395 1001 CURVE",
"395 514 LINE"
);
},
{
closed = 1;
nodes = (
"498 1006 LINE",
"621 985 OFFCURVE",
"707 879 OFFCURVE",
"707 758 CURVE SMOOTH",
"707 635 OFFCURVE",
"617 529 OFFCURVE",
"498 510 CURVE"
);
},
{
closed = 1;
nodes = (
"395 1462 LINE",
"395 1296 LINE",
"266 1296 LINE"
);
},
{
closed = 1;
nodes = (
"498 1462 LINE",
"627 1296 LINE",
"498 1296 LINE"
);
}
);
width = 911;
}
);
note = g117;
},
{
glyphname = g118;
lastChange = "2016-11-10 14:11:51 +0000";
layers = (
{
layerId = "71450CB2-F408-4DB3-81C5-B92F6F6BD2DF";
paths = (
{
closed = 1;
nodes = (
"408 0 LINE",
"443 33 OFFCURVE",
"502 52 OFFCURVE",
"583 57 CURVE SMOOTH",
"799 70 LINE",
"805 180 OFFCURVE",
"812 278 OFFCURVE",
"821 365 CURVE",
"844 359 OFFCURVE",
"870 356 OFFCURVE",
"899 356 CURVE SMOOTH",
"1076 356 OFFCURVE",
"1217 498 OFFCURVE",
"1217 674 CURVE SMOOTH",
"1217 842 OFFCURVE",
"1085 978 OFFCURVE",
"920 989 CURVE",
"944 1085 OFFCURVE",
"959 1140 OFFCURVE",
"965 1153 CURVE",
"970 1166 OFFCURVE",
"973 1177 OFFCURVE",
"973 1186 CURVE SMOOTH",
"973 1232 OFFCURVE",
"930 1272 OFFCURVE",
"844 1305 CURVE SMOOTH",
"757 1338 OFFCURVE",
"655 1354 OFFCURVE",
"537 1354 CURVE SMOOTH",
"416 1354 OFFCURVE",
"314 1337 OFFCURVE",
"229 1304 CURVE SMOOTH",
"144 1271 OFFCURVE",
"102 1231 OFFCURVE",
"102 1186 CURVE",
"106 1161 LINE",
"218 926 OFFCURVE",
"305 485 OFFCURVE",
"305 78 CURVE SMOOTH",
"305 0 LINE"
);
},
{
closed = 1;
nodes = (
"403 425 OFFCURVE",
"360 714 OFFCURVE",
"260 1057 CURVE",
"337 1031 OFFCURVE",
"429 1018 OFFCURVE",
"537 1018 CURVE SMOOTH",
"654 1018 OFFCURVE",
"753 1033 OFFCURVE",
"834 1063 CURVE",
"777 871 OFFCURVE",
"738 633 OFFCURVE",
"715 349 CURVE SMOOTH",
"700 164 LINE",
"581 161 OFFCURVE",
"484 158 OFFCURVE",
"408 121 CURVE"
);
},
{
closed = 1;
nodes = (
"875 459 OFFCURVE",
"852 462 OFFCURVE",
"831 469 CURVE",
"850 612 LINE",
"862 601 OFFCURVE",
"878 596 OFFCURVE",
"899 596 CURVE SMOOTH",
"942 596 OFFCURVE",
"977 631 OFFCURVE",
"977 674 CURVE SMOOTH",
"977 717 OFFCURVE",
"942 752 OFFCURVE",
"899 752 CURVE SMOOTH",
"888 752 OFFCURVE",
"879 750 OFFCURVE",
"870 745 CURVE",
"897 889 LINE",
"899 889 LINE SMOOTH",
"1018 889 OFFCURVE",
"1114 793 OFFCURVE",
"1114 674 CURVE SMOOTH",
"1114 555 OFFCURVE",
"1018 459 OFFCURVE",
"899 459 CURVE SMOOTH"
);
},
{
closed = 1;
nodes = (
"446 1120 OFFCURVE",
"370 1127 OFFCURVE",
"309 1140 CURVE SMOOTH",
"248 1153 OFFCURVE",
"217 1169 OFFCURVE",
"217 1186 CURVE SMOOTH",
"217 1203 OFFCURVE",
"247 1219 OFFCURVE",
"306 1232 CURVE SMOOTH",
"365 1245 OFFCURVE",
"442 1251 OFFCURVE",
"537 1251 CURVE SMOOTH",
"630 1251 OFFCURVE",
"708 1245 OFFCURVE",
"769 1232 CURVE SMOOTH",
"830 1219 OFFCURVE",
"860 1203 OFFCURVE",
"860 1186 CURVE SMOOTH",
"860 1169 OFFCURVE",
"829 1153 OFFCURVE",
"766 1140 CURVE SMOOTH",
"703 1127 OFFCURVE",
"626 1120 OFFCURVE",
"537 1120 CURVE SMOOTH"
);
}
);
width = 1319;
}
);
note = g118;
},
{
glyphname = g119;
lastChange = "2016-11-10 14:11:51 +0000";
layers = (
{
layerId = "71450CB2-F408-4DB3-81C5-B92F6F6BD2DF";
paths = (
{
closed = 1;
nodes = (
"807 -92 LINE",
"931 389 OFFCURVE",
"993 777 OFFCURVE",
"993 1071 CURVE SMOOTH",
"993 1216 OFFCURVE",
"975 1380 OFFCURVE",
"950 1485 CURVE",
"905 1485 LINE SMOOTH",
"697 1485 OFFCURVE",
"307 1414 OFFCURVE",
"102 1335 CURVE",
"102 1264 LINE",
"409 927 OFFCURVE",
"617 467 OFFCURVE",
"705 -92 CURVE"
);
},
{
closed = 1;
nodes = (
"721 389 OFFCURVE",
"618 692 OFFCURVE",
"457 967 CURVE",
"593 1062 OFFCURVE",
"728 1136 OFFCURVE",
"887 1167 CURVE",
"890 1136 OFFCURVE",
"891 1104 OFFCURVE",
"891 1071 CURVE SMOOTH",
"891 897 OFFCURVE",
"863 657 OFFCURVE",
"806 350 CURVE SMOOTH",
"762 109 LINE"
);
},
{
closed = 1;
nodes = (
"343 1140 OFFCURVE",
"285 1215 OFFCURVE",
"229 1278 CURVE",
"382 1327 OFFCURVE",
"670 1375 OFFCURVE",
"858 1380 CURVE",
"864 1353 OFFCURVE",
"870 1317 OFFCURVE",
"877 1272 CURVE",
"704 1239 OFFCURVE",
"554 1157 OFFCURVE",
"403 1053 CURVE"
);
}
);
width = 1178;
}
);
note = g119;
},
{
glyphname = g120;
lastChange = "2016-11-10 14:11:51 +0000";
layers = (
{
layerId = "71450CB2-F408-4DB3-81C5-B92F6F6BD2DF";
paths = (
{
closed = 1;
nodes = (
"558 -113 OFFCURVE",
"653 -23 OFFCURVE",
"653 92 CURVE SMOOTH",
"653 128 OFFCURVE",
"645 160 OFFCURVE",
"629 188 CURVE",
"722 261 OFFCURVE",
"768 388 OFFCURVE",
"768 569 CURVE SMOOTH",
"768 942 OFFCURVE",
"538 1298 OFFCURVE",
"174 1485 CURVE",
"102 1417 LINE",
"195 1310 OFFCURVE",
"254 1162 OFFCURVE",
"254 1030 CURVE SMOOTH",
"254 966 OFFCURVE",
"230 877 OFFCURVE",
"182 763 CURVE SMOOTH",
"133 649 OFFCURVE",
"109 548 OFFCURVE",
"109 461 CURVE SMOOTH",
"109 328 OFFCURVE",
"168 228 OFFCURVE",
"260 172 CURVE",
"249 147 OFFCURVE",
"244 120 OFFCURVE",
"244 92 CURVE SMOOTH",
"244 -23 OFFCURVE",
"340 -113 OFFCURVE",
"449 -113 CURVE SMOOTH"
);
},
{
closed = 1;
nodes = (
"394 -10 OFFCURVE",
"346 35 OFFCURVE",
"346 92 CURVE SMOOTH",
"346 110 OFFCURVE",
"349 124 OFFCURVE",
"354 133 CURVE",
"375 128 OFFCURVE",
"403 125 OFFCURVE",
"438 125 CURVE SMOOTH",
"477 125 OFFCURVE",
"510 130 OFFCURVE",
"537 139 CURVE",
"546 122 OFFCURVE",
"551 106 OFFCURVE",
"551 92 CURVE SMOOTH",
"551 37 OFFCURVE",
"505 -10 OFFCURVE",
"449 -10 CURVE SMOOTH"
);
},
{
closed = 1;
nodes = (
"306 227 OFFCURVE",
"211 321 OFFCURVE",
"211 461 CURVE SMOOTH",
"211 540 OFFCURVE",
"235 634 OFFCURVE",
"284 742 CURVE SMOOTH",
"332 849 OFFCURVE",
"356 945 OFFCURVE",
"356 1030 CURVE SMOOTH",
"356 1129 OFFCURVE",
"333 1220 OFFCURVE",
"287 1303 CURVE",
"522 1118 OFFCURVE",
"666 837 OFFCURVE",
"666 569 CURVE SMOOTH",
"666 356 OFFCURVE",
"583 227 OFFCURVE",
"438 227 CURVE SMOOTH"
);
}
);
width = 870;
}
);
note = g120;
},
{
glyphname = g121;
lastChange = "2016-11-10 14:11:51 +0000";
layers = (
{
layerId = "71450CB2-F408-4DB3-81C5-B92F6F6BD2DF";
paths = (
{
closed = 1;
nodes = (
"238 0 LINE",
"571 555 LINE",
"1026 555 LINE",
"1358 0 LINE",
"1460 0 LINE",
"1460 657 LINE",
"1081 657 LINE",
"858 1032 LINE",
"916 1118 OFFCURVE",
"999 1161 OFFCURVE",
"1106 1161 CURVE SMOOTH",
"1238 1161 OFFCURVE",
"1346 1073 OFFCURVE",
"1378 936 CURVE",
"1477 956 LINE",
"1445 1117 OFFCURVE",
"1299 1264 OFFCURVE",
"1108 1264 CURVE SMOOTH",
"975 1264 OFFCURVE",
"870 1216 OFFCURVE",
"795 1120 CURVE",
"715 1213 OFFCURVE",
"598 1264 OFFCURVE",
"471 1264 CURVE SMOOTH",
"283 1264 OFFCURVE",
"135 1124 OFFCURVE",
"102 956 CURVE",
"201 936 LINE",
"232 1073 OFFCURVE",
"335 1161 OFFCURVE",
"471 1161 CURVE SMOOTH",
"580 1161 OFFCURVE",
"676 1114 OFFCURVE",
"737 1030 CURVE",
"514 657 LINE",
"135 657 LINE",
"135 0 LINE"
);
},
{
closed = 1;
nodes = (
"236 219 OFFCURVE",
"238 271 OFFCURVE",
"238 330 CURVE SMOOTH",
"238 555 LINE",
"453 555 LINE",
"355 393 OFFCURVE",
"298 297 OFFCURVE",
"281 268 CURVE SMOOTH",
"264 238 OFFCURVE",
"248 207 OFFCURVE",
"231 174 CURVE"
);
},
{
closed = 1;
nodes = (
"799 934 LINE",
"965 657 LINE",
"633 657 LINE"
);
},
{
closed = 1;
nodes = (
"1350 204 OFFCURVE",
"1321 256 OFFCURVE",
"1278 330 CURVE SMOOTH",
"1143 555 LINE",
"1358 555 LINE",
"1358 330 LINE SMOOTH",
"1358 261 OFFCURVE",
"1360 209 OFFCURVE",
"1364 174 CURVE"
);
}
);
width = 1579;
}
);
note = g121;
},
{
glyphname = g122;
lastChange = "2016-11-10 14:11:51 +0000";
layers = (
{
layerId = "71450CB2-F408-4DB3-81C5-B92F6F6BD2DF";
paths = (
{
closed = 1;
nodes = (
"796 -20 OFFCURVE",
"993 136 OFFCURVE",
"993 324 CURVE SMOOTH",
"993 420 OFFCURVE",
"943 507 OFFCURVE",
"860 571 CURVE",
"895 606 OFFCURVE",
"913 649 OFFCURVE",
"913 698 CURVE SMOOTH",
"913 799 OFFCURVE",
"830 881 OFFCURVE",
"731 881 CURVE SMOOTH",
"714 881 OFFCURVE",
"699 879 OFFCURVE",
"686 874 CURVE",
"686 1462 LINE",
"408 1462 LINE",
"408 651 LINE",
"224 603 OFFCURVE",
"102 472 OFFCURVE",
"102 324 CURVE SMOOTH",
"102 132 OFFCURVE",
"303 -20 OFFCURVE",
"547 -20 CURVE SMOOTH"
);
},
{
closed = 1;
nodes = (
"358 82 OFFCURVE",
"205 189 OFFCURVE",
"205 324 CURVE SMOOTH",
"205 460 OFFCURVE",
"360 567 OFFCURVE",
"547 567 CURVE SMOOTH",
"734 567 OFFCURVE",
"891 459 OFFCURVE",
"891 324 CURVE SMOOTH",
"891 192 OFFCURVE",
"739 82 OFFCURVE",
"547 82 CURVE SMOOTH"
);
},
{
closed = 1;
nodes = (
"743 635 OFFCURVE",
"717 643 OFFCURVE",
"686 651 CURVE",
"686 762 LINE",
"699 773 OFFCURVE",
"714 778 OFFCURVE",
"731 778 CURVE SMOOTH",
"774 778 OFFCURVE",
"811 741 OFFCURVE",
"811 698 CURVE SMOOTH",
"811 666 OFFCURVE",
"791 638 OFFCURVE",
"762 627 CURVE"
);
},
{
closed = 1;
nodes = (
"510 1360 LINE",
"584 1360 LINE",
"584 668 LINE",
"565 670 LINE",
"529 670 LINE",
"510 668 LINE"
);
}
);
width = 1096;
}
);
note = g122;
},
{
glyphname = g123;
lastChange = "2016-11-10 14:11:51 +0000";
layers = (
{
layerId = "71450CB2-F408-4DB3-81C5-B92F6F6BD2DF";
paths = (
{
closed = 1;
nodes = (
"954 -20 OFFCURVE",
"1075 9 OFFCURVE",
"1187 68 CURVE SMOOTH",
"1411 185 OFFCURVE",
"1544 400 OFFCURVE",
"1544 629 CURVE SMOOTH",
"1544 742 OFFCURVE",
"1513 849 OFFCURVE",
"1450 950 CURVE SMOOTH",
"1325 1151 OFFCURVE",
"1088 1280 OFFCURVE",
"823 1280 CURVE SMOOTH",
"692 1280 OFFCURVE",
"571 1250 OFFCURVE",
"460 1191 CURVE SMOOTH",
"238 1072 OFFCURVE",
"102 858 OFFCURVE",
"102 629 CURVE SMOOTH",
"102 514 OFFCURVE",
"134 406 OFFCURVE",
"198 306 CURVE SMOOTH",
"325 105 OFFCURVE",
"563 -20 OFFCURVE",
"823 -20 CURVE SMOOTH"
);
},
{
closed = 1;
nodes = (
"486 82 OFFCURVE",
"205 329 OFFCURVE",
"205 629 CURVE SMOOTH",
"205 930 OFFCURVE",
"484 1178 OFFCURVE",
"823 1178 CURVE SMOOTH",
"1162 1178 OFFCURVE",
"1442 930 OFFCURVE",
"1442 629 CURVE SMOOTH",
"1442 532 OFFCURVE",
"1414 441 OFFCURVE",
"1359 356 CURVE SMOOTH",
"1248 187 OFFCURVE",
"1042 82 OFFCURVE",
"823 82 CURVE SMOOTH"
);
},
{
closed = 1;
nodes = (
"522 586 OFFCURVE",
"648 625 OFFCURVE",
"831 625 CURVE SMOOTH",
"998 625 OFFCURVE",
"1145 581 OFFCURVE",
"1249 506 CURVE",
"1329 557 LINE",
"1278 798 OFFCURVE",
"1092 950 OFFCURVE",
"817 950 CURVE SMOOTH",
"557 950 OFFCURVE",
"366 796 OFFCURVE",
"317 557 CURVE",
"397 506 LINE"
);
},
{
closed = 1;
nodes = (
"530 781 OFFCURVE",
"653 848 OFFCURVE",
"819 848 CURVE SMOOTH",
"992 848 OFFCURVE",
"1128 775 OFFCURVE",
"1196 647 CURVE",
"1085 700 OFFCURVE",
"958 727 OFFCURVE",
"815 727 CURVE SMOOTH",
"682 727 OFFCURVE",
"585 707 OFFCURVE",
"449 647 CURVE"
);
}
);
width = 1647;
}
);
note = g123;
},
{
glyphname = g124;
lastChange = "2016-11-10 14:11:51 +0000";
layers = (
{
layerId = "71450CB2-F408-4DB3-81C5-B92F6F6BD2DF";
paths = (
{
closed = 1;
nodes = (
"1674 -20 OFFCURVE",
"1776 78 OFFCURVE",
"1776 205 CURVE SMOOTH",
"1776 296 OFFCURVE",
"1723 373 OFFCURVE",
"1647 410 CURVE",
"1827 590 LINE",
"2122 590 LINE",
"2122 692 LINE",
"1827 692 LINE",
"1585 934 LINE",
"1513 934 LINE",
"1257 678 LINE",
"1257 606 LINE",
"1452 410 LINE",
"1376 373 OFFCURVE",
"1323 296 OFFCURVE",
"1323 205 CURVE SMOOTH",
"1323 82 OFFCURVE",
"1422 -20 OFFCURVE",
"1550 -20 CURVE SMOOTH"
);
},
{
closed = 1;
nodes = (
"606 82 OFFCURVE",
"551 137 OFFCURVE",
"551 205 CURVE SMOOTH",
"551 272 OFFCURVE",
"607 330 OFFCURVE",
"674 330 CURVE SMOOTH",
"742 330 OFFCURVE",
"799 273 OFFCURVE",
"799 205 CURVE SMOOTH",
"799 138 OFFCURVE",
"742 82 OFFCURVE",
"674 82 CURVE SMOOTH"
);
},
{
closed = 1;
nodes = (
"802 -20 OFFCURVE",
"901 82 OFFCURVE",
"901 205 CURVE SMOOTH",
"901 296 OFFCURVE",
"849 373 OFFCURVE",
"770 410 CURVE",
"967 606 LINE",
"967 678 LINE",
"709 934 LINE",
"637 934 LINE",
"397 692 LINE",
"102 692 LINE",
"102 590 LINE",
"397 590 LINE",
"575 410 LINE",
"499 373 OFFCURVE",
"449 296 OFFCURVE",
"449 205 CURVE SMOOTH",
"449 80 OFFCURVE",
"549 -20 OFFCURVE",
"674 -20 CURVE SMOOTH"
);
},
{
closed = 1;
nodes = (
"494 641 LINE",
"674 821 LINE",
"854 641 LINE",
"674 461 LINE"
);
},
{
closed = 1;
nodes = (
"1483 82 OFFCURVE",
"1425 138 OFFCURVE",
"1425 205 CURVE SMOOTH",
"1425 273 OFFCURVE",
"1482 330 OFFCURVE",
"1550 330 CURVE SMOOTH",
"1617 330 OFFCURVE",
"1673 273 OFFCURVE",
"1673 205 CURVE SMOOTH",
"1673 137 OFFCURVE",
"1618 82 OFFCURVE",
"1550 82 CURVE SMOOTH"
);
},
{
closed = 1;
nodes = (
"1163 469 LINE",
"1163 1098 LINE",
"1061 1098 LINE",
"1061 469 LINE"
);
},
{
closed = 1;
nodes = (
"1370 641 LINE",
"1550 821 LINE",
"1731 641 LINE",
"1550 461 LINE"
);
}
);
width = 2224;
}
);
note = g124;
},
{
glyphname = g125;
lastChange = "2016-11-10 14:11:51 +0000";
layers = (
{
layerId = "71450CB2-F408-4DB3-81C5-B92F6F6BD2DF";
paths = (
{
closed = 1;
nodes = (
"1181 -137 OFFCURVE",
"1333 -100 OFFCURVE",
"1474 -26 CURVE SMOOTH",
"1756 122 OFFCURVE",
"1933 400 OFFCURVE",
"1933 705 CURVE SMOOTH",
"1933 858 OFFCURVE",
"1892 999 OFFCURVE",
"1810 1129 CURVE SMOOTH",
"1646 1388 OFFCURVE",
"1346 1548 OFFCURVE",
"1018 1548 CURVE SMOOTH",
"853 1548 OFFCURVE",
"700 1511 OFFCURVE",
"560 1436 CURVE SMOOTH",
"280 1286 OFFCURVE",
"102 1012 OFFCURVE",
"102 705 CURVE SMOOTH",
"102 550 OFFCURVE",
"144 408 OFFCURVE",
"228 279 CURVE SMOOTH",
"395 19 OFFCURVE",
"693 -137 OFFCURVE",
"1018 -137 CURVE SMOOTH"
);
},
{
closed = 1;
nodes = (
"862 143 OFFCURVE",
"922 183 OFFCURVE",
"971 264 CURVE",
"891 319 LINE",
"862 270 OFFCURVE",
"826 246 OFFCURVE",
"782 246 CURVE SMOOTH",
"721 246 OFFCURVE",
"672 290 OFFCURVE",
"635 377 CURVE",
"946 377 LINE",
"946 479 LINE",
"600 479 LINE",
"593 508 OFFCURVE",
"588 538 OFFCURVE",
"584 569 CURVE",
"946 569 LINE",
"946 672 LINE",
"575 672 LINE",
"575 762 LINE",
"946 762 LINE",
"946 864 LINE",
"586 864 LINE",
"604 954 LINE",
"946 954 LINE",
"946 1057 LINE",
"641 1057 LINE",
"676 1130 OFFCURVE",
"723 1176 OFFCURVE",
"774 1176 CURVE SMOOTH",
"820 1176 OFFCURVE",
"857 1155 OFFCURVE",
"885 1114 CURVE",
"963 1176 LINE",
"912 1252 OFFCURVE",
"854 1278 OFFCURVE",
"774 1278 CURVE SMOOTH",
"591 1278 OFFCURVE",
"473 1048 OFFCURVE",
"473 711 CURVE SMOOTH",
"473 356 OFFCURVE",
"594 143 OFFCURVE",
"791 143 CURVE SMOOTH"
);
},
{
closed = 1;
nodes = (
"875 -35 OFFCURVE",
"740 -2 OFFCURVE",
"615 63 CURVE SMOOTH",
"363 193 OFFCURVE",
"205 437 OFFCURVE",
"205 705 CURVE SMOOTH",
"205 841 OFFCURVE",
"243 967 OFFCURVE",
"318 1082 CURVE SMOOTH",
"468 1312 OFFCURVE",
"733 1446 OFFCURVE",
"1018 1446 CURVE SMOOTH",
"1163 1446 OFFCURVE",
"1298 1413 OFFCURVE",
"1423 1348 CURVE SMOOTH",
"1673 1217 OFFCURVE",
"1831 974 OFFCURVE",
"1831 705 CURVE SMOOTH",
"1831 572 OFFCURVE",
"1795 448 OFFCURVE",
"1722 335 CURVE SMOOTH",
"1577 107 OFFCURVE",
"1310 -35 OFFCURVE",
"1018 -35 CURVE SMOOTH"
);
},
{
closed = 1;
nodes = (
"1386 143 OFFCURVE",
"1446 183 OFFCURVE",
"1495 264 CURVE",
"1415 319 LINE",
"1382 263 OFFCURVE",
"1348 246 OFFCURVE",
"1307 246 CURVE SMOOTH",
"1246 246 OFFCURVE",
"1196 290 OFFCURVE",
"1159 377 CURVE",
"1470 377 LINE",
"1470 479 LINE",
"1124 479 LINE",
"1117 508 OFFCURVE",
"1112 538 OFFCURVE",
"1108 569 CURVE",
"1470 569 LINE",
"1470 672 LINE",
"1100 672 LINE",
"1100 762 LINE",
"1470 762 LINE",
"1470 864 LINE",
"1110 864 LINE",
"1128 954 LINE",
"1470 954 LINE",
"1470 1057 LINE",
"1165 1057 LINE",
"1200 1130 OFFCURVE",
"1247 1176 OFFCURVE",
"1298 1176 CURVE SMOOTH",
"1344 1176 OFFCURVE",
"1381 1155 OFFCURVE",
"1409 1114 CURVE",
"1487 1176 LINE",
"1438 1252 OFFCURVE",
"1378 1278 OFFCURVE",
"1298 1278 CURVE SMOOTH",
"1115 1278 OFFCURVE",
"997 1048 OFFCURVE",
"997 711 CURVE SMOOTH",
"997 356 OFFCURVE",
"1118 143 OFFCURVE",
"1315 143 CURVE SMOOTH"
);
}
);
width = 2036;
}
);
note = g125;
},
{
glyphname = g126;
lastChange = "2016-11-10 14:11:51 +0000";
layers = (
{
layerId = "71450CB2-F408-4DB3-81C5-B92F6F6BD2DF";
paths = (
{
closed = 1;
nodes = (
"244 -20 LINE",
"1075 248 LINE",
"1075 322 LINE",
"473 502 LINE",
"1075 711 LINE",
"1075 784 LINE",
"444 963 LINE",
"1075 1190 LINE",
"1075 1264 LINE",
"244 1493 LINE",
"184 1493 LINE",
"184 -20 LINE"
);
}
);
width = 1178;
}
);
note = g126;
},
{
glyphname = g127;
lastChange = "2016-11-10 14:11:51 +0000";
layers = (
{
layerId = "71450CB2-F408-4DB3-81C5-B92F6F6BD2DF";
paths = (
{
closed = 1;
nodes = (
"287 -111 OFFCURVE",
"311 -74 OFFCURVE",
"334 -37 CURVE",
"489 -141 LINE",
"549 -57 LINE",
"385 51 LINE",
"413 103 OFFCURVE",
"435 151 OFFCURVE",
"451 195 CURVE",
"618 127 LINE",
"657 219 LINE",
"483 291 LINE",
"497 334 OFFCURVE",
"509 385 OFFCURVE",
"518 442 CURVE",
"705 412 LINE",
"723 512 LINE",
"532 543 LINE",
"535 564 OFFCURVE",
"538 612 OFFCURVE",
"543 688 CURVE",
"729 688 LINE",
"729 791 LINE",
"543 791 LINE",
"532 934 LINE",
"723 967 LINE",
"705 1067 LINE",
"518 1034 LINE",
"501 1115 OFFCURVE",
"489 1166 OFFCURVE",
"483 1188 CURVE",
"657 1260 LINE",
"618 1352 LINE",
"451 1282 LINE",
"434 1329 OFFCURVE",
"412 1377 OFFCURVE",
"387 1425 CURVE",
"549 1536 LINE",
"489 1620 LINE",
"336 1516 LINE",
"260 1626 LINE",
"178 1565 LINE",
"206 1528 OFFCURVE",
"230 1493 OFFCURVE",
"250 1458 CURVE",
"102 1360 LINE",
"162 1274 LINE",
"301 1368 LINE",
"316 1341 OFFCURVE",
"334 1299 OFFCURVE",
"356 1243 CURVE",
"186 1174 LINE",
"225 1081 LINE",
"387 1149 LINE",
"402 1094 OFFCURVE",
"412 1050 OFFCURVE",
"418 1018 CURVE",
"244 989 LINE",
"262 889 LINE",
"432 918 LINE",
"440 791 LINE",
"262 791 LINE",
"262 688 LINE",
"440 688 LINE",
"432 561 LINE",
"262 590 LINE",
"244 489 LINE",
"418 459 LINE",
"407 404 OFFCURVE",
"397 361 OFFCURVE",
"387 330 CURVE",
"225 397 LINE",
"186 305 LINE",
"354 236 LINE",
"337 189 OFFCURVE",
"319 146 OFFCURVE",
"299 109 CURVE",
"162 203 LINE",
"102 119 LINE",
"250 18 LINE",
"178 -86 LINE",
"260 -147 LINE"
);
}
);
width = 831;
}
);
note = g127;
},
{
glyphname = g128;
lastChange = "2016-11-10 14:11:51 +0000";
layers = (
{
layerId = "71450CB2-F408-4DB3-81C5-B92F6F6BD2DF";
paths = (
{
closed = 1;
nodes = (
"993 -156 OFFCURVE",
"1130 55 OFFCURVE",
"1130 315 CURVE SMOOTH",
"1130 415 OFFCURVE",
"1111 507 OFFCURVE",
"1073 590 CURVE",
"1120 632 OFFCURVE",
"1143 679 OFFCURVE",
"1143 731 CURVE SMOOTH",
"1143 783 OFFCURVE",
"1120 829 OFFCURVE",
"1075 868 CURVE",
"1112 949 OFFCURVE",
"1130 1039 OFFCURVE",
"1130 1139 CURVE SMOOTH",
"1130 1399 OFFCURVE",
"993 1610 OFFCURVE",
"829 1610 CURVE SMOOTH",
"689 1610 OFFCURVE",
"566 1456 OFFCURVE",
"537 1249 CURVE",
"102 1249 LINE",
"102 1174 LINE",
"227 1120 LINE",
"102 1073 LINE",
"102 1014 LINE",
"227 965 LINE",
"102 918 LINE",
"102 858 LINE",
"227 809 LINE",
"102 762 LINE",
"102 702 LINE",
"227 653 LINE",
"102 606 LINE",
"102 547 LINE",
"227 498 LINE",
"102 451 LINE",
"102 391 LINE",
"227 338 LINE",
"102 281 LINE",
"102 205 LINE",
"537 205 LINE",
"568 -3 OFFCURVE",
"689 -156 OFFCURVE",
"829 -156 CURVE SMOOTH"
);
},
{
closed = 1;
nodes = (
"742 -53 OFFCURVE",
"667 52 OFFCURVE",
"639 205 CURVE",
"725 205 LINE SMOOTH",
"814 205 OFFCURVE",
"887 276 OFFCURVE",
"887 367 CURVE SMOOTH",
"887 510 LINE",
"932 519 OFFCURVE",
"966 528 OFFCURVE",
"987 537 CURVE",
"1014 470 OFFCURVE",
"1028 396 OFFCURVE",
"1028 315 CURVE SMOOTH",
"1028 116 OFFCURVE",
"938 -53 OFFCURVE",
"829 -53 CURVE SMOOTH"
);
},
{
closed = 1;
nodes = (
"631 315 LINE SMOOTH",
"631 400 OFFCURVE",
"645 475 OFFCURVE",
"672 539 CURVE",
"706 524 OFFCURVE",
"743 514 OFFCURVE",
"784 510 CURVE",
"784 365 LINE SMOOTH",
"784 334 OFFCURVE",
"758 307 OFFCURVE",
"725 307 CURVE SMOOTH",
"631 307 LINE"
);
},
{
closed = 1;
nodes = (
"379 367 LINE",
"258 422 LINE",
"379 469 LINE",
"379 528 LINE",
"258 575 LINE",
"381 627 LINE",
"381 686 LINE",
"258 733 LINE",
"379 780 LINE",
"379 840 LINE",
"258 887 LINE",
"379 938 LINE",
"379 997 LINE",
"258 1044 LINE",
"379 1087 LINE",
"379 1147 LINE",
"528 1147 LINE",
"528 1139 LINE SMOOTH",
"528 1039 OFFCURVE",
"547 948 OFFCURVE",
"584 866 CURVE",
"541 823 OFFCURVE",
"520 778 OFFCURVE",
"520 731 CURVE SMOOTH",
"520 680 OFFCURVE",
"542 633 OFFCURVE",
"586 592 CURVE",
"547 513 OFFCURVE",
"528 421 OFFCURVE",
"528 315 CURVE SMOOTH",
"528 307 LINE",
"379 307 LINE"
);
},
{
closed = 1;
nodes = (
"719 610 OFFCURVE",
"623 666 OFFCURVE",
"623 731 CURVE SMOOTH",
"623 798 OFFCURVE",
"718 852 OFFCURVE",
"831 852 CURVE SMOOTH",
"944 852 OFFCURVE",
"1040 798 OFFCURVE",
"1040 731 CURVE SMOOTH",
"1040 664 OFFCURVE",
"942 610 OFFCURVE",
"831 610 CURVE SMOOTH"
);
},
{
closed = 1;
nodes = (
"644 983 OFFCURVE",
"631 1056 OFFCURVE",
"631 1139 CURVE SMOOTH",
"631 1147 LINE",
"725 1147 LINE SMOOTH",
"758 1147 OFFCURVE",
"784 1120 OFFCURVE",
"784 1087 CURVE SMOOTH",
"784 950 LINE",
"743 946 OFFCURVE",
"705 937 OFFCURVE",
"670 922 CURVE"
);
},
{
closed = 1;
nodes = (
"954 938 OFFCURVE",
"920 947 OFFCURVE",
"887 950 CURVE",
"887 1087 LINE SMOOTH",
"887 1176 OFFCURVE",
"816 1249 OFFCURVE",
"725 1249 CURVE SMOOTH",
"639 1249 LINE",
"666 1401 OFFCURVE",
"742 1507 OFFCURVE",
"829 1507 CURVE SMOOTH",
"938 1507 OFFCURVE",
"1028 1339 OFFCURVE",
"1028 1139 CURVE SMOOTH",
"1028 1057 OFFCURVE",
"1015 985 OFFCURVE",
"989 924 CURVE"
);
}
);
width = 1245;
}
);
note = g128;
},
{
glyphname = g129;
lastChange = "2016-11-10 14:11:51 +0000";
layers = (
{
layerId = "71450CB2-F408-4DB3-81C5-B92F6F6BD2DF";
paths = (
{
closed = 1;
nodes = (
"870 0 LINE",
"944 84 LINE",
"922 130 OFFCURVE",
"911 186 OFFCURVE",
"911 252 CURVE SMOOTH",
"911 441 OFFCURVE",
"1030 602 OFFCURVE",
"1174 602 CURVE SMOOTH",
"1321 602 OFFCURVE",
"1436 440 OFFCURVE",
"1436 252 CURVE SMOOTH",
"1436 193 OFFCURVE",
"1422 127 OFFCURVE",
"1403 84 CURVE",
"1477 0 LINE",
"2245 0 LINE",
"2245 20 LINE SMOOTH",
"2245 437 OFFCURVE",
"2009 820 OFFCURVE",
"1626 1004 CURVE",
"2048 1004 LINE",
"2048 1282 LINE",
"299 1282 LINE",
"299 1004 LINE",
"717 1004 LINE",
"340 823 OFFCURVE",
"102 440 OFFCURVE",
"102 20 CURVE SMOOTH",
"102 0 LINE"
);
},
{
closed = 1;
nodes = (
"226 335 OFFCURVE",
"324 543 OFFCURVE",
"473 700 CURVE",
"524 631 OFFCURVE",
"608 586 OFFCURVE",
"705 586 CURVE SMOOTH",
"828 586 OFFCURVE",
"938 661 OFFCURVE",
"979 776 CURVE",
"1030 731 OFFCURVE",
"1091 708 OFFCURVE",
"1161 705 CURVE",
"966 697 OFFCURVE",
"809 495 OFFCURVE",
"809 252 CURVE SMOOTH",
"809 198 OFFCURVE",
"816 148 OFFCURVE",
"829 102 CURVE",
"207 102 LINE"
);
},
{
closed = 1;
nodes = (
"638 688 OFFCURVE",
"582 721 OFFCURVE",
"547 772 CURVE",
"644 855 OFFCURVE",
"754 917 OFFCURVE",
"877 956 CURVE",
"889 932 OFFCURVE",
"895 906 OFFCURVE",
"895 877 CURVE SMOOTH",
"895 772 OFFCURVE",
"808 688 OFFCURVE",
"705 688 CURVE SMOOTH"
);
},
{
closed = 1;
nodes = (
"1070 807 OFFCURVE",
"988 890 OFFCURVE",
"985 983 CURVE",
"1055 997 OFFCURVE",
"1117 1004 OFFCURVE",
"1171 1004 CURVE SMOOTH",
"1225 1004 OFFCURVE",
"1289 997 OFFCURVE",
"1364 983 CURVE",
"1359 886 OFFCURVE",
"1277 807 OFFCURVE",
"1174 807 CURVE SMOOTH"
);
},
{
closed = 1;
nodes = (
"1531 148 OFFCURVE",
"1538 198 OFFCURVE",
"1538 252 CURVE SMOOTH",
"1538 493 OFFCURVE",
"1379 697 OFFCURVE",
"1186 705 CURVE",
"1254 708 OFFCURVE",
"1315 732 OFFCURVE",
"1368 778 CURVE",
"1409 661 OFFCURVE",
"1520 586 OFFCURVE",
"1645 586 CURVE SMOOTH",
"1740 586 OFFCURVE",
"1821 629 OFFCURVE",
"1874 698 CURVE",
"2022 541 OFFCURVE",
"2119 334 OFFCURVE",
"2138 102 CURVE",
"1518 102 LINE"
);
},
{
closed = 1;
nodes = (
"401 1180 LINE",
"1946 1180 LINE",
"1946 1106 LINE",
"401 1106 LINE"
);
},
{
closed = 1;
nodes = (
"1541 688 OFFCURVE",
"1454 772 OFFCURVE",
"1454 877 CURVE SMOOTH",
"1454 903 OFFCURVE",
"1459 929 OFFCURVE",
"1470 954 CURVE",
"1589 917 OFFCURVE",
"1699 855 OFFCURVE",
"1798 768 CURVE",
"1765 721 OFFCURVE",
"1709 688 OFFCURVE",
"1645 688 CURVE SMOOTH"
);
}
);
width = 2347;
}
);
note = g129;
},
{
glyphname = g130;
lastChange = "2016-11-10 14:11:51 +0000";
layers = (
{
layerId = "71450CB2-F408-4DB3-81C5-B92F6F6BD2DF";
paths = (
{
closed = 1;
nodes = (
"1487 -129 LINE",
"1487 645 LINE",
"1596 537 OFFCURVE",
"1692 453 OFFCURVE",
"1937 272 CURVE SMOOTH",
"2083 164 LINE",
"2308 463 LINE",
"2047 732 OFFCURVE",
"1773 914 OFFCURVE",
"1518 987 CURVE",
"1548 1026 LINE",
"1597 1098 OFFCURVE",
"1622 1178 OFFCURVE",
"1622 1266 CURVE SMOOTH",
"1622 1521 OFFCURVE",
"1460 1683 OFFCURVE",
"1204 1683 CURVE SMOOTH",
"964 1683 OFFCURVE",
"788 1519 OFFCURVE",
"788 1266 CURVE SMOOTH",
"788 1155 OFFCURVE",
"836 1044 OFFCURVE",
"893 987 CURVE",
"644 916 OFFCURVE",
"367 736 OFFCURVE",
"102 463 CURVE",
"328 164 LINE",
"471 272 LINE SMOOTH",
"696 439 OFFCURVE",
"807 529 OFFCURVE",
"924 645 CURVE",
"924 -129 LINE"
);
},
{
closed = 1;
nodes = (
"238 455 LINE",
"293 508 LINE",
"412 352 LINE",
"379 331 LINE",
"348 307 LINE"
);
},
{
closed = 1;
nodes = (
"356 561 LINE",
"416 610 LINE",
"537 449 LINE",
"524 437 OFFCURVE",
"504 422 OFFCURVE",
"477 403 CURVE"
);
},
{
closed = 1;
nodes = (
"479 659 LINE",
"543 702 LINE",
"662 547 LINE",
"602 498 LINE"
);
},
{
closed = 1;
nodes = (
"1184 111 OFFCURVE",
"1174 139 OFFCURVE",
"1174 195 CURVE SMOOTH",
"1174 252 OFFCURVE",
"1184 281 OFFCURVE",
"1204 281 CURVE SMOOTH",
"1213 281 OFFCURVE",
"1221 273 OFFCURVE",
"1228 258 CURVE",
"1234 243 OFFCURVE",
"1237 222 OFFCURVE",
"1237 195 CURVE SMOOTH",
"1237 168 OFFCURVE",
"1234 147 OFFCURVE",
"1228 133 CURVE SMOOTH",
"1221 118 OFFCURVE",
"1213 111 OFFCURVE",
"1204 111 CURVE SMOOTH"
);
},
{
closed = 1;
nodes = (
"612 748 LINE",
"741 828 OFFCURVE",
"860 879 OFFCURVE",
"971 901 CURVE",
"971 884 OFFCURVE",
"966 868 OFFCURVE",
"956 852 CURVE SMOOTH",
"946 835 OFFCURVE",
"938 818 OFFCURVE",
"932 799 CURVE",
"855 718 OFFCURVE",
"786 651 OFFCURVE",
"725 600 CURVE"
);
},
{
closed = 1;
nodes = (
"1268 29 OFFCURVE",
"1319 108 OFFCURVE",
"1319 205 CURVE SMOOTH",
"1319 252 OFFCURVE",
"1309 291 OFFCURVE",
"1290 322 CURVE",
"1309 353 OFFCURVE",
"1319 391 OFFCURVE",
"1319 438 CURVE SMOOTH",
"1319 485 OFFCURVE",
"1309 524 OFFCURVE",
"1290 555 CURVE",
"1309 586 OFFCURVE",
"1319 625 OFFCURVE",
"1319 672 CURVE SMOOTH",
"1319 772 OFFCURVE",
"1268 850 OFFCURVE",
"1204 850 CURVE SMOOTH",
"1140 850 OFFCURVE",
"1092 772 OFFCURVE",
"1092 672 CURVE SMOOTH",
"1092 627 OFFCURVE",
"1101 588 OFFCURVE",
"1118 555 CURVE",
"1101 524 OFFCURVE",
"1092 485 OFFCURVE",
"1092 438 CURVE SMOOTH",
"1092 391 OFFCURVE",
"1100 353 OFFCURVE",
"1116 322 CURVE",
"1100 291 OFFCURVE",
"1092 252 OFFCURVE",
"1092 205 CURVE SMOOTH",
"1092 106 OFFCURVE",
"1140 29 OFFCURVE",
"1204 29 CURVE SMOOTH"
);
},
{
closed = 1;
nodes = (
"1184 354 OFFCURVE",
"1174 382 OFFCURVE",
"1174 438 CURVE SMOOTH",
"1174 495 OFFCURVE",
"1184 524 OFFCURVE",
"1204 524 CURVE SMOOTH",
"1213 524 OFFCURVE",
"1221 517 OFFCURVE",
"1228 502 CURVE",
"1234 487 OFFCURVE",
"1237 465 OFFCURVE",
"1237 438 CURVE SMOOTH",
"1237 411 OFFCURVE",
"1234 391 OFFCURVE",
"1228 376 CURVE",
"1221 361 OFFCURVE",
"1213 354 OFFCURVE",
"1204 354 CURVE SMOOTH"
);
},
{
closed = 1;
nodes = (
"1184 598 OFFCURVE",
"1174 626 OFFCURVE",
"1174 682 CURVE SMOOTH",
"1174 739 OFFCURVE",
"1184 768 OFFCURVE",
"1204 768 CURVE SMOOTH",
"1213 768 OFFCURVE",
"1221 760 OFFCURVE",
"1228 745 CURVE",
"1234 730 OFFCURVE",
"1237 709 OFFCURVE",
"1237 682 CURVE SMOOTH",
"1237 655 OFFCURVE",
"1234 635 OFFCURVE",
"1228 620 CURVE",
"1221 605 OFFCURVE",
"1213 598 OFFCURVE",
"1204 598 CURVE SMOOTH"
);
},
{
closed = 1;
nodes = (
"1026 705 LINE SMOOTH",
"1026 744 OFFCURVE",
"1035 781 OFFCURVE",
"1052 816 CURVE SMOOTH",
"1069 850 OFFCURVE",
"1077 879 OFFCURVE",
"1077 903 CURVE SMOOTH",
"1077 941 OFFCURVE",
"1055 979 OFFCURVE",
"1012 1016 CURVE SMOOTH",
"924 1091 OFFCURVE",
"891 1182 OFFCURVE",
"891 1266 CURVE SMOOTH",
"891 1457 OFFCURVE",
"1015 1581 OFFCURVE",
"1204 1581 CURVE SMOOTH",
"1400 1581 OFFCURVE",
"1520 1461 OFFCURVE",
"1520 1266 CURVE SMOOTH",
"1520 1178 OFFCURVE",
"1485 1090 OFFCURVE",
"1398 1016 CURVE SMOOTH",
"1355 979 OFFCURVE",
"1333 941 OFFCURVE",
"1333 903 CURVE SMOOTH",
"1333 876 OFFCURVE",
"1342 846 OFFCURVE",
"1359 813 CURVE SMOOTH",
"1376 780 OFFCURVE",
"1384 744 OFFCURVE",
"1384 705 CURVE SMOOTH",
"1384 -27 LINE",
"1026 -27 LINE"
);
},
{
closed = 1;
nodes = (
"1613 662 OFFCURVE",
"1544 728 OFFCURVE",
"1479 799 CURVE",
"1472 818 OFFCURVE",
"1463 835 OFFCURVE",
"1454 852 CURVE SMOOTH",
"1445 868 OFFCURVE",
"1440 884 OFFCURVE",
"1440 901 CURVE",
"1547 880 OFFCURVE",
"1667 829 OFFCURVE",
"1798 748 CURVE",
"1686 600 LINE"
);
},
{
closed = 1;
nodes = (
"1747 547 LINE",
"1866 702 LINE",
"1929 659 LINE",
"1808 498 LINE"
);
},
{
closed = 1;
nodes = (
"1872 449 LINE",
"1995 610 LINE",
"2054 561 LINE",
"1933 403 LINE"
);
},
{
closed = 1;
nodes = (
"2030 332 LINE",
"1997 352 LINE",
"1999 354 LINE",
"2116 508 LINE",
"2173 455 LINE",
"2062 307 LINE"
);
}
);
width = 2410;
}
);
note = g130;
},
{
glyphname = g131;
lastChange = "2016-11-10 14:11:51 +0000";
layers = (
{
layerId = "71450CB2-F408-4DB3-81C5-B92F6F6BD2DF";
paths = (
{
closed = 1;
nodes = (
"608 -84 LINE",
"809 487 LINE",
"999 487 LINE",
"999 795 LINE",
"602 795 LINE",
"602 1104 LINE",
"721 1129 OFFCURVE",
"799 1232 OFFCURVE",
"799 1348 CURVE SMOOTH",
"799 1488 OFFCURVE",
"686 1597 OFFCURVE",
"549 1597 CURVE SMOOTH",
"412 1597 OFFCURVE",
"301 1489 OFFCURVE",
"301 1348 CURVE SMOOTH",
"301 1225 OFFCURVE",
"385 1125 OFFCURVE",
"500 1104 CURVE",
"500 795 LINE",
"102 795 LINE",
"102 487 LINE",
"303 487 LINE",
"506 -84 LINE"
);
},
{
closed = 1;
nodes = (
"545 111 OFFCURVE",
"529 164 OFFCURVE",
"508 223 CURVE SMOOTH",
"414 487 LINE",
"700 487 LINE",
"637 312 OFFCURVE",
"600 205 OFFCURVE",
"587 168 CURVE SMOOTH",
"574 130 OFFCURVE",
"564 96 OFFCURVE",
"557 66 CURVE"
);
},
{
closed = 1;
nodes = (
"205 692 LINE",
"897 692 LINE",
"897 590 LINE",
"205 590 LINE"
);
},
{
closed = 1;
nodes = (
"468 1202 OFFCURVE",
"403 1267 OFFCURVE",
"403 1348 CURVE SMOOTH",
"403 1427 OFFCURVE",
"466 1495 OFFCURVE",
"549 1495 CURVE SMOOTH",
"630 1495 OFFCURVE",
"696 1429 OFFCURVE",
"696 1348 CURVE SMOOTH",
"696 1264 OFFCURVE",
"629 1202 OFFCURVE",
"549 1202 CURVE SMOOTH"
);
}
);
width = 1102;
}
);
note = g131;
},
{
glyphname = g132;
lastChange = "2016-11-10 14:11:51 +0000";
layers = (
{
layerId = "71450CB2-F408-4DB3-81C5-B92F6F6BD2DF";
paths = (
{
closed = 1;
nodes = (
"1030 0 LINE",
"1030 102 LINE",
"934 102 LINE",
"934 254 LINE",
"1083 254 LINE",
"1083 530 LINE",
"1105 539 OFFCURVE",
"1130 552 OFFCURVE",
"1157 569 CURVE",
"1327 326 LINE",
"1313 303 LINE",
"1196 299 LINE",
"1196 217 LINE",
"1303 221 LINE",
"1303 216 OFFCURVE",
"1305 207 OFFCURVE",
"1309 195 CURVE",
"1221 119 LINE",
"1270 53 LINE",
"1360 129 LINE",
"1373 120 OFFCURVE",
"1390 114 OFFCURVE",
"1411 109 CURVE",
"1419 8 LINE",
"1501 12 LINE",
"1493 119 LINE",
"1512 128 OFFCURVE",
"1524 135 OFFCURVE",
"1530 141 CURVE",
"1618 90 LINE",
"1663 160 LINE",
"1571 215 LINE",
"1574 223 OFFCURVE",
"1575 233 OFFCURVE",
"1575 244 CURVE",
"1573 264 LINE",
"1663 283 LINE",
"1651 365 LINE",
"1534 342 LINE",
"1503 365 LINE",
"1548 444 LINE",
"1475 481 LINE",
"1417 379 LINE",
"1415 379 LINE",
"1237 635 LINE",
"1324 722 OFFCURVE",
"1376 839 OFFCURVE",
"1376 971 CURVE SMOOTH",
"1376 1235 OFFCURVE",
"1155 1454 OFFCURVE",
"883 1454 CURVE SMOOTH",
"612 1454 OFFCURVE",
"391 1238 OFFCURVE",
"391 971 CURVE SMOOTH",
"391 839 OFFCURVE",
"441 722 OFFCURVE",
"528 635 CURVE",
"348 379 LINE",
"291 481 LINE",
"217 444 LINE",
"262 365 LINE",
"231 342 LINE",
"115 365 LINE",
"102 283 LINE",
"193 264 LINE",
"190 244 LINE",
"190 231 OFFCURVE",
"191 221 OFFCURVE",
"193 215 CURVE",
"102 160 LINE",
"147 90 LINE",
"233 141 LINE",
"237 138 OFFCURVE",
"249 130 OFFCURVE",
"270 119 CURVE",
"264 12 LINE",
"346 8 LINE",
"352 109 LINE",
"374 114 OFFCURVE",
"391 120 OFFCURVE",
"403 129 CURVE",
"496 53 LINE",
"545 119 LINE",
"455 195 LINE",
"463 221 LINE",
"569 217 LINE",
"569 299 LINE",
"451 303 LINE",
"436 326 LINE",
"608 571 LINE",
"639 552 OFFCURVE",
"664 538 OFFCURVE",
"684 530 CURVE",
"684 254 LINE",
"831 254 LINE",
"831 102 LINE",
"737 102 LINE",
"737 0 LINE"
);
},
{
closed = 1;
nodes = (
"295 180 OFFCURVE",
"266 209 OFFCURVE",
"266 242 CURVE SMOOTH",
"266 277 OFFCURVE",
"295 305 OFFCURVE",
"330 305 CURVE SMOOTH",
"362 305 OFFCURVE",
"391 277 OFFCURVE",
"391 242 CURVE SMOOTH",
"391 209 OFFCURVE",
"362 180 OFFCURVE",
"330 180 CURVE SMOOTH"
);
},
{
closed = 1;
nodes = (
"355 203 OFFCURVE",
"369 217 OFFCURVE",
"369 236 CURVE SMOOTH",
"369 255 OFFCURVE",
"355 268 OFFCURVE",
"336 268 CURVE SMOOTH",
"317 268 OFFCURVE",
"303 255 OFFCURVE",
"303 236 CURVE SMOOTH",
"303 217 OFFCURVE",
"317 203 OFFCURVE",
"336 203 CURVE SMOOTH"
);
},
{
closed = 1;
nodes = (
"786 682 LINE",
"831 682 LINE",
"831 356 LINE",
"786 356 LINE"
);
},
{
closed = 1;
nodes = (
"638 670 OFFCURVE",
"602 702 OFFCURVE",
"575 737 CURVE",
"633 770 LINE",
"645 755 OFFCURVE",
"662 738 OFFCURVE",
"684 721 CURVE",
"684 643 LINE"
);
},
{
closed = 1;
nodes = (
"514 843 OFFCURVE",
"503 883 OFFCURVE",
"496 924 CURVE",
"565 924 LINE",
"568 903 OFFCURVE",
"576 875 OFFCURVE",
"590 840 CURVE",
"530 805 LINE"
);
},
{
closed = 1;
nodes = (
"934 682 LINE",
"981 682 LINE",
"981 356 LINE",
"934 356 LINE"
);
},
{
closed = 1;
nodes = (
"500 1048 OFFCURVE",
"510 1087 OFFCURVE",
"526 1124 CURVE",
"586 1090 LINE",
"575 1061 OFFCURVE",
"568 1033 OFFCURVE",
"565 1006 CURVE",
"496 1006 LINE"
);
},
{
closed = 1;
nodes = (
"1449 203 OFFCURVE",
"1462 217 OFFCURVE",
"1462 236 CURVE SMOOTH",
"1462 255 OFFCURVE",
"1449 268 OFFCURVE",
"1430 268 CURVE SMOOTH",
"1411 268 OFFCURVE",
"1397 255 OFFCURVE",
"1397 236 CURVE SMOOTH",
"1397 217 OFFCURVE",
"1411 203 OFFCURVE",
"1430 203 CURVE SMOOTH"
);
},
{
closed = 1;
nodes = (
"1403 180 OFFCURVE",
"1374 209 OFFCURVE",
"1374 242 CURVE SMOOTH",
"1374 277 OFFCURVE",
"1403 305 OFFCURVE",
"1436 305 CURVE SMOOTH",
"1471 305 OFFCURVE",
"1499 277 OFFCURVE",
"1499 242 CURVE SMOOTH",
"1499 209 OFFCURVE",
"1471 180 OFFCURVE",
"1436 180 CURVE SMOOTH"
);
},
{
closed = 1;
nodes = (
"1083 721 LINE",
"1103 737 OFFCURVE",
"1120 753 OFFCURVE",
"1133 770 CURVE",
"1190 737 LINE",
"1160 699 OFFCURVE",
"1124 668 OFFCURVE",
"1083 645 CURVE"
);
},
{
closed = 1;
nodes = (
"567 1194 LINE",
"588 1221 OFFCURVE",
"617 1250 OFFCURVE",
"655 1280 CURVE",
"690 1221 LINE",
"671 1207 OFFCURVE",
"650 1186 OFFCURVE",
"627 1159 CURVE"
);
},
{
closed = 1;
nodes = (
"707 821 OFFCURVE",
"666 889 OFFCURVE",
"666 969 CURVE SMOOTH",
"666 1090 OFFCURVE",
"762 1182 OFFCURVE",
"883 1182 CURVE SMOOTH",
"1004 1182 OFFCURVE",
"1102 1090 OFFCURVE",
"1102 969 CURVE SMOOTH",
"1102 889 OFFCURVE",
"1060 821 OFFCURVE",
"997 784 CURVE",
"934 784 LINE",
"934 848 LINE",
"981 867 OFFCURVE",
"1014 911 OFFCURVE",
"1014 967 CURVE SMOOTH",
"1014 1039 OFFCURVE",
"956 1098 OFFCURVE",
"883 1098 CURVE SMOOTH",
"810 1098 OFFCURVE",
"754 1042 OFFCURVE",
"754 967 CURVE SMOOTH",
"754 911 OFFCURVE",
"784 867 OFFCURVE",
"831 848 CURVE",
"831 784 LINE",
"768 784 LINE"
);
},
{
closed = 1;
nodes = (
"1176 840 LINE",
"1188 867 OFFCURVE",
"1196 895 OFFCURVE",
"1200 924 CURVE",
"1270 924 LINE",
"1266 884 OFFCURVE",
"1254 844 OFFCURVE",
"1235 805 CURVE"
);
},
{
closed = 1;
nodes = (
"727 1319 LINE",
"764 1336 OFFCURVE",
"802 1346 OFFCURVE",
"842 1350 CURVE",
"842 1282 LINE",
"815 1278 OFFCURVE",
"787 1271 OFFCURVE",
"760 1260 CURVE"
);
},
{
closed = 1;
nodes = (
"979 1271 OFFCURVE",
"952 1278 OFFCURVE",
"924 1282 CURVE",
"924 1350 LINE",
"960 1347 OFFCURVE",
"998 1336 OFFCURVE",
"1038 1319 CURVE",
"1004 1260 LINE"
);
},
{
closed = 1;
nodes = (
"1198 1036 OFFCURVE",
"1191 1064 OFFCURVE",
"1180 1090 CURVE",
"1239 1124 LINE",
"1257 1087 OFFCURVE",
"1268 1048 OFFCURVE",
"1272 1006 CURVE",
"1202 1006 LINE"
);
},
{
closed = 1;
nodes = (
"1124 1179 OFFCURVE",
"1103 1200 OFFCURVE",
"1075 1221 CURVE",
"1108 1280 LINE",
"1143 1257 OFFCURVE",
"1173 1228 OFFCURVE",
"1198 1194 CURVE",
"1139 1159 LINE"
);
}
);
width = 1765;
}
);
note = g132;
},
{
glyphname = g133;
lastChange = "2016-11-10 14:11:51 +0000";
layers = (
{
layerId = "71450CB2-F408-4DB3-81C5-B92F6F6BD2DF";
paths = (
{
closed = 1;
nodes = (
"1432 0 LINE",
"1432 1272 LINE",
"1024 1272 LINE",
"1019 1452 OFFCURVE",
"936 1565 OFFCURVE",
"807 1565 CURVE SMOOTH",
"672 1565 OFFCURVE",
"593 1452 OFFCURVE",
"590 1272 CURVE",
"184 1272 LINE",
"184 0 LINE"
);
},
{
closed = 1;
nodes = (
"590 557 LINE",
"590 102 LINE",
"319 102 LINE"
);
},
{
closed = 1;
nodes = (
"287 1059 LINE",
"530 659 LINE",
"287 250 LINE"
);
},
{
closed = 1;
nodes = (
"338 1169 LINE",
"590 1169 LINE",
"590 754 LINE"
);
},
{
closed = 1;
nodes = (
"692 1169 LINE",
"922 1169 LINE",
"922 102 LINE",
"692 102 LINE"
);
},
{
closed = 1;
nodes = (
"1024 559 LINE",
"1294 102 LINE",
"1024 102 LINE"
);
},
{
closed = 1;
nodes = (
"1202 461 OFFCURVE",
"1121 597 OFFCURVE",
"1085 659 CURVE",
"1329 1059 LINE",
"1329 250 LINE"
);
},
{
closed = 1;
nodes = (
"1024 1169 LINE",
"1278 1169 LINE",
"1024 752 LINE"
);
},
{
closed = 1;
nodes = (
"695 1384 OFFCURVE",
"735 1462 OFFCURVE",
"807 1462 CURVE SMOOTH",
"876 1462 OFFCURVE",
"919 1387 OFFCURVE",
"922 1272 CURVE",
"692 1272 LINE"
);
}
);
width = 1616;
}
);
note = g133;
},
{
glyphname = g134;
lastChange = "2016-11-10 14:11:51 +0000";
layers = (
{
layerId = "71450CB2-F408-4DB3-81C5-B92F6F6BD2DF";
paths = (
{
closed = 1;
nodes = (
"963 -76 OFFCURVE",
"1133 137 OFFCURVE",
"1133 410 CURVE",
"1130 463 LINE",
"1198 429 OFFCURVE",
"1264 380 OFFCURVE",
"1327 317 CURVE",
"1417 317 LINE",
"1417 422 LINE SMOOTH",
"1417 842 OFFCURVE",
"1204 1199 OFFCURVE",
"909 1292 CURVE",
"928 1319 OFFCURVE",
"938 1352 OFFCURVE",
"938 1389 CURVE SMOOTH",
"938 1486 OFFCURVE",
"861 1565 OFFCURVE",
"762 1565 CURVE SMOOTH",
"665 1565 OFFCURVE",
"586 1488 OFFCURVE",
"586 1389 CURVE SMOOTH",
"586 1353 OFFCURVE",
"595 1321 OFFCURVE",
"612 1292 CURVE",
"313 1196 OFFCURVE",
"102 837 OFFCURVE",
"102 422 CURVE SMOOTH",
"102 317 LINE",
"193 317 LINE",
"257 381 OFFCURVE",
"322 430 OFFCURVE",
"389 463 CURVE",
"387 438 LINE",
"387 410 LINE SMOOTH",
"387 142 OFFCURVE",
"558 -76 OFFCURVE",
"762 -76 CURVE SMOOTH"
);
},
{
closed = 1;
nodes = (
"613 27 OFFCURVE",
"489 202 OFFCURVE",
"489 410 CURVE SMOOTH",
"489 476 OFFCURVE",
"499 548 OFFCURVE",
"518 625 CURVE",
"399 591 OFFCURVE",
"295 536 OFFCURVE",
"205 461 CURVE",
"210 600 OFFCURVE",
"238 728 OFFCURVE",
"288 844 CURVE SMOOTH",
"388 1075 OFFCURVE",
"565 1212 OFFCURVE",
"762 1212 CURVE SMOOTH",
"1055 1212 OFFCURVE",
"1299 885 OFFCURVE",
"1315 461 CURVE",
"1219 538 OFFCURVE",
"1114 592 OFFCURVE",
"1001 625 CURVE",
"1020 556 OFFCURVE",
"1030 485 OFFCURVE",
"1030 410 CURVE SMOOTH",
"1030 195 OFFCURVE",
"907 27 OFFCURVE",
"762 27 CURVE SMOOTH"
);
},
{
closed = 1;
nodes = (
"721 1315 OFFCURVE",
"688 1348 OFFCURVE",
"688 1389 CURVE SMOOTH",
"688 1430 OFFCURVE",
"721 1462 OFFCURVE",
"762 1462 CURVE SMOOTH",
"803 1462 OFFCURVE",
"836 1430 OFFCURVE",
"836 1389 CURVE SMOOTH",
"836 1348 OFFCURVE",
"803 1315 OFFCURVE",
"762 1315 CURVE SMOOTH"
);
}
);
width = 1520;
}
);
note = g134;
},
{
glyphname = g135;
lastChange = "2016-11-10 14:11:51 +0000";
layers = (
{
layerId = "71450CB2-F408-4DB3-81C5-B92F6F6BD2DF";
paths = (
{
closed = 1;
nodes = (
"281 -20 LINE",
"713 143 LINE",
"1145 -20 LINE",
"1241 -20 LINE",
"1241 1235 LINE",
"827 1393 LINE",
"858 1423 OFFCURVE",
"874 1460 OFFCURVE",
"874 1505 CURVE SMOOTH",
"874 1594 OFFCURVE",
"802 1667 OFFCURVE",
"713 1667 CURVE SMOOTH",
"622 1667 OFFCURVE",
"553 1594 OFFCURVE",
"553 1505 CURVE SMOOTH",
"553 1459 OFFCURVE",
"568 1422 OFFCURVE",
"598 1393 CURVE",
"184 1235 LINE",
"184 -20 LINE"
);
},
{
closed = 1;
nodes = (
"287 1165 LINE",
"662 1311 LINE",
"662 1032 LINE",
"403 934 LINE",
"403 825 LINE",
"662 924 LINE",
"662 834 LINE",
"403 735 LINE",
"403 627 LINE",
"662 725 LINE",
"662 635 LINE",
"403 537 LINE",
"403 428 LINE",
"662 526 LINE",
"662 233 LINE",
"287 88 LINE"
);
},
{
closed = 1;
nodes = (
"764 233 LINE",
"764 526 LINE",
"1022 428 LINE",
"1022 537 LINE",
"764 635 LINE",
"764 725 LINE",
"1022 627 LINE",
"1022 735 LINE",
"764 834 LINE",
"764 924 LINE",
"1022 825 LINE",
"1022 934 LINE",
"764 1032 LINE",
"764 1311 LINE",
"1139 1165 LINE",
"1139 88 LINE"
);
},
{
closed = 1;
nodes = (
"676 1440 OFFCURVE",
"647 1468 OFFCURVE",
"647 1505 CURVE SMOOTH",
"647 1542 OFFCURVE",
"676 1573 OFFCURVE",
"713 1573 CURVE SMOOTH",
"750 1573 OFFCURVE",
"780 1542 OFFCURVE",
"780 1505 CURVE SMOOTH",
"780 1468 OFFCURVE",
"750 1440 OFFCURVE",
"713 1440 CURVE SMOOTH"
);
}
);
width = 1425;
}
);
note = g135;
},
{
glyphname = g136;
lastChange = "2016-11-10 14:11:51 +0000";
layers = (
{
layerId = "71450CB2-F408-4DB3-81C5-B92F6F6BD2DF";
paths = (
{
closed = 1;
nodes = (
"684 0 LINE",
"684 72 LINE",
"451 406 LINE",
"495 501 OFFCURVE",
"519 589 OFFCURVE",
"522 670 CURVE",
"530 670 LINE",
"567 539 OFFCURVE",
"674 463 OFFCURVE",
"811 463 CURVE SMOOTH",
"987 463 OFFCURVE",
"1102 587 OFFCURVE",
"1102 772 CURVE",
"999 772 LINE",
"999 643 OFFCURVE",
"930 565 OFFCURVE",
"811 565 CURVE SMOOTH",
"704 565 OFFCURVE",
"628 657 OFFCURVE",
"621 772 CURVE",
"516 772 LINE",
"492 897 LINE",
"478 950 OFFCURVE",
"470 995 OFFCURVE",
"467 1030 CURVE",
"621 1030 LINE",
"628 1146 OFFCURVE",
"706 1237 OFFCURVE",
"811 1237 CURVE SMOOTH",
"930 1237 OFFCURVE",
"999 1159 OFFCURVE",
"999 1030 CURVE",
"1102 1030 LINE",
"1102 1215 OFFCURVE",
"987 1339 OFFCURVE",
"811 1339 CURVE SMOOTH",
"672 1339 OFFCURVE",
"567 1262 OFFCURVE",
"530 1133 CURVE",
"465 1133 LINE",
"469 1226 OFFCURVE",
"490 1290 OFFCURVE",
"571 1413 CURVE",
"485 1470 LINE",
"390 1329 OFFCURVE",
"369 1256 OFFCURVE",
"362 1133 CURVE",
"334 1133 LINE SMOOTH",
"205 1133 OFFCURVE",
"102 1030 OFFCURVE",
"102 901 CURVE SMOOTH",
"102 772 OFFCURVE",
"205 670 OFFCURVE",
"334 670 CURVE SMOOTH",
"420 670 LINE",
"417 569 OFFCURVE",
"368 450 OFFCURVE",
"312 358 CURVE SMOOTH",
"284 311 OFFCURVE",
"222 216 OFFCURVE",
"127 72 CURVE",
"127 0 LINE"
);
},
{
closed = 1;
nodes = (
"329 187 OFFCURVE",
"372 254 OFFCURVE",
"397 301 CURVE",
"539 102 LINE",
"270 102 LINE"
);
},
{
closed = 1;
nodes = (
"262 772 OFFCURVE",
"205 829 OFFCURVE",
"205 901 CURVE SMOOTH",
"205 973 OFFCURVE",
"262 1030 OFFCURVE",
"334 1030 CURVE SMOOTH",
"365 1030 LINE",
"365 1009 OFFCURVE",
"369 980 OFFCURVE",
"378 942 CURVE SMOOTH",
"387 903 OFFCURVE",
"399 847 OFFCURVE",
"414 772 CURVE",
"334 772 LINE SMOOTH"
);
}
);
width = 1204;
}
);
note = g136;
},
{
glyphname = g137;
lastChange = "2016-11-10 14:11:51 +0000";
layers = (
{
layerId = "71450CB2-F408-4DB3-81C5-B92F6F6BD2DF";
paths = (
{
closed = 1;
nodes = (
"338 -20 OFFCURVE",
"420 85 OFFCURVE",
"467 260 CURVE",
"561 277 OFFCURVE",
"652 285 OFFCURVE",
"741 285 CURVE SMOOTH",
"829 285 OFFCURVE",
"921 277 OFFCURVE",
"1016 260 CURVE",
"1063 80 OFFCURVE",
"1149 -20 OFFCURVE",
"1253 -20 CURVE SMOOTH",
"1329 -20 OFFCURVE",
"1380 29 OFFCURVE",
"1380 98 CURVE SMOOTH",
"1380 207 OFFCURVE",
"1280 293 OFFCURVE",
"1100 342 CURVE",
"1089 393 OFFCURVE",
"1082 465 OFFCURVE",
"1079 559 CURVE",
"1317 559 LINE",
"1317 662 LINE",
"1079 662 LINE",
"1082 735 OFFCURVE",
"1089 803 OFFCURVE",
"1100 868 CURVE",
"1285 919 OFFCURVE",
"1380 1004 OFFCURVE",
"1380 1112 CURVE SMOOTH",
"1380 1180 OFFCURVE",
"1330 1231 OFFCURVE",
"1253 1231 CURVE SMOOTH",
"1148 1231 OFFCURVE",
"1063 1129 OFFCURVE",
"1016 950 CURVE",
"932 934 OFFCURVE",
"840 926 OFFCURVE",
"741 926 CURVE SMOOTH",
"641 926 OFFCURVE",
"550 934 OFFCURVE",
"467 950 CURVE",
"420 1125 OFFCURVE",
"338 1231 OFFCURVE",
"229 1231 CURVE SMOOTH",
"152 1231 OFFCURVE",
"102 1180 OFFCURVE",
"102 1112 CURVE SMOOTH",
"102 1003 OFFCURVE",
"199 919 OFFCURVE",
"383 868 CURVE",
"396 787 OFFCURVE",
"403 699 OFFCURVE",
"403 606 CURVE SMOOTH",
"403 513 OFFCURVE",
"396 425 OFFCURVE",
"383 342 CURVE",
"203 293 OFFCURVE",
"102 207 OFFCURVE",
"102 98 CURVE SMOOTH",
"102 30 OFFCURVE",
"153 -20 OFFCURVE",
"229 -20 CURVE SMOOTH"
);
},
{
closed = 1;
nodes = (
"214 82 OFFCURVE",
"205 94 OFFCURVE",
"205 117 CURVE SMOOTH",
"205 164 OFFCURVE",
"264 205 OFFCURVE",
"356 233 CURVE",
"324 133 OFFCURVE",
"280 82 OFFCURVE",
"233 82 CURVE SMOOTH"
);
},
{
closed = 1;
nodes = (
"255 1009 OFFCURVE",
"205 1048 OFFCURVE",
"205 1094 CURVE SMOOTH",
"205 1117 OFFCURVE",
"214 1128 OFFCURVE",
"233 1128 CURVE SMOOTH",
"280 1128 OFFCURVE",
"324 1076 OFFCURVE",
"356 977 CURVE"
);
},
{
closed = 1;
nodes = (
"500 436 OFFCURVE",
"506 517 OFFCURVE",
"506 606 CURVE SMOOTH",
"506 696 OFFCURVE",
"500 775 OFFCURVE",
"487 844 CURVE",
"570 830 OFFCURVE",
"654 823 OFFCURVE",
"741 823 CURVE SMOOTH",
"826 823 OFFCURVE",
"910 830 OFFCURVE",
"993 844 CURVE",
"985 788 OFFCURVE",
"980 727 OFFCURVE",
"977 662 CURVE",
"743 662 LINE",
"743 559 LINE",
"977 559 LINE",
"980 490 OFFCURVE",
"985 426 OFFCURVE",
"993 365 CURVE",
"914 380 OFFCURVE",
"830 387 OFFCURVE",
"741 387 CURVE SMOOTH",
"651 387 OFFCURVE",
"566 380 OFFCURVE",
"487 365 CURVE"
);
},
{
closed = 1;
nodes = (
"1204 82 OFFCURVE",
"1157 133 OFFCURVE",
"1126 233 CURVE",
"1218 205 OFFCURVE",
"1278 164 OFFCURVE",
"1278 117 CURVE SMOOTH",
"1278 94 OFFCURVE",
"1268 82 OFFCURVE",
"1249 82 CURVE SMOOTH"
);
},
{
closed = 1;
nodes = (
"1160 1078 OFFCURVE",
"1201 1128 OFFCURVE",
"1249 1128 CURVE SMOOTH",
"1268 1128 OFFCURVE",
"1278 1117 OFFCURVE",
"1278 1094 CURVE SMOOTH",
"1278 1048 OFFCURVE",
"1227 1009 OFFCURVE",
"1126 977 CURVE"
);
}
);
width = 1483;
}
);
note = g137;
},
{
glyphname = g138;
lastChange = "2016-11-10 14:11:51 +0000";
layers = (
{
layerId = "71450CB2-F408-4DB3-81C5-B92F6F6BD2DF";
paths = (
{
closed = 1;
nodes = (
"586 -25 LINE",
"997 297 LINE",
"936 379 LINE",
"600 115 LINE",
"600 893 LINE",
"936 631 LINE",
"997 713 LINE",
"694 948 LINE",
"794 1001 OFFCURVE",
"858 1105 OFFCURVE",
"858 1221 CURVE SMOOTH",
"858 1393 OFFCURVE",
"721 1530 OFFCURVE",
"549 1530 CURVE SMOOTH",
"373 1530 OFFCURVE",
"242 1390 OFFCURVE",
"242 1221 CURVE SMOOTH",
"242 1104 OFFCURVE",
"306 997 OFFCURVE",
"403 948 CURVE",
"102 713 LINE",
"164 631 LINE",
"498 895 LINE",
"498 115 LINE",
"166 377 LINE",
"104 295 LINE",
"514 -25 LINE"
);
},
{
closed = 1;
nodes = (
"433 1016 OFFCURVE",
"344 1106 OFFCURVE",
"344 1221 CURVE SMOOTH",
"344 1333 OFFCURVE",
"433 1427 OFFCURVE",
"549 1427 CURVE SMOOTH",
"664 1427 OFFCURVE",
"756 1337 OFFCURVE",
"756 1221 CURVE SMOOTH",
"756 1104 OFFCURVE",
"664 1016 OFFCURVE",
"549 1016 CURVE SMOOTH"
);
}
);
width = 1100;
}
);
note = g138;
},
{
glyphname = g139;
lastChange = "2016-11-10 14:11:51 +0000";
layers = (
{
layerId = "71450CB2-F408-4DB3-81C5-B92F6F6BD2DF";
paths = (
{
closed = 1;
nodes = (
"662 -20 OFFCURVE",
"805 136 OFFCURVE",
"805 385 CURVE SMOOTH",
"805 414 LINE",
"978 439 OFFCURVE",
"1106 587 OFFCURVE",
"1106 762 CURVE SMOOTH",
"1106 938 OFFCURVE",
"976 1086 OFFCURVE",
"805 1110 CURVE",
"805 1137 LINE SMOOTH",
"805 1317 OFFCURVE",
"902 1432 OFFCURVE",
"1053 1432 CURVE SMOOTH",
"1206 1432 OFFCURVE",
"1311 1304 OFFCURVE",
"1311 1112 CURVE",
"1413 1112 LINE",
"1413 1363 OFFCURVE",
"1266 1534 OFFCURVE",
"1053 1534 CURVE SMOOTH",
"852 1534 OFFCURVE",
"702 1376 OFFCURVE",
"702 1137 CURVE SMOOTH",
"702 1110 LINE",
"531 1086 OFFCURVE",
"403 935 OFFCURVE",
"403 762 CURVE SMOOTH",
"403 587 OFFCURVE",
"530 438 OFFCURVE",
"702 414 CURVE",
"702 379 LINE SMOOTH",
"702 194 OFFCURVE",
"605 82 OFFCURVE",
"453 82 CURVE SMOOTH",
"298 82 OFFCURVE",
"205 202 OFFCURVE",
"205 383 CURVE",
"102 383 LINE",
"102 135 OFFCURVE",
"244 -20 OFFCURVE",
"453 -20 CURVE SMOOTH"
);
},
{
closed = 1;
nodes = (
"587 542 OFFCURVE",
"506 645 OFFCURVE",
"506 762 CURVE SMOOTH",
"506 879 OFFCURVE",
"587 982 OFFCURVE",
"702 1006 CURVE",
"702 518 LINE"
);
},
{
closed = 1;
nodes = (
"805 1006 LINE",
"918 982 OFFCURVE",
"1004 882 OFFCURVE",
"1004 762 CURVE SMOOTH",
"1004 642 OFFCURVE",
"918 542 OFFCURVE",
"805 518 CURVE"
);
}
);
width = 1516;
}
);
note = g139;
},
{
glyphname = g140;
lastChange = "2016-11-10 14:11:51 +0000";
layers = (
{
layerId = "71450CB2-F408-4DB3-81C5-B92F6F6BD2DF";
paths = (
{
closed = 1;
nodes = (
"723 72 LINE",
"1298 -100 LINE",
"1343 -41 LINE",
"872 518 LINE",
"1298 391 LINE",
"1343 451 LINE",
"872 1010 LINE",
"1298 883 LINE",
"1343 942 LINE",
"774 1622 LINE",
"672 1622 LINE",
"102 942 LINE",
"147 883 LINE",
"573 1010 LINE",
"102 451 LINE",
"147 391 LINE",
"573 518 LINE",
"102 -41 LINE",
"147 -100 LINE"
);
},
{
closed = 1;
nodes = (
"672 475 LINE",
"672 162 LINE",
"319 59 LINE"
);
},
{
closed = 1;
nodes = (
"774 162 LINE",
"774 471 LINE",
"1126 59 LINE"
);
},
{
closed = 1;
nodes = (
"672 967 LINE",
"672 653 LINE",
"319 551 LINE"
);
},
{
closed = 1;
nodes = (
"774 653 LINE",
"774 963 LINE",
"1126 551 LINE"
);
},
{
closed = 1;
nodes = (
"672 1456 LINE",
"672 1145 LINE",
"319 1042 LINE"
);
},
{
closed = 1;
nodes = (
"774 1145 LINE",
"774 1458 LINE",
"1126 1042 LINE"
);
}
);
width = 1446;
}
);
note = g140;
},
{
glyphname = g141;
lastChange = "2016-11-10 14:11:51 +0000";
layers = (
{
layerId = "71450CB2-F408-4DB3-81C5-B92F6F6BD2DF";
paths = (
{
closed = 1;
nodes = (
"410 0 LINE",
"410 582 LINE",
"561 481 LINE SMOOTH",
"630 434 OFFCURVE",
"695 410 OFFCURVE",
"754 410 CURVE SMOOTH",
"827 410 OFFCURVE",
"894 481 OFFCURVE",
"899 584 CURVE",
"942 616 OFFCURVE",
"973 676 OFFCURVE",
"973 741 CURVE SMOOTH",
"973 860 OFFCURVE",
"767 950 OFFCURVE",
"576 1051 CURVE SMOOTH",
"410 1139 LINE",
"410 1165 LINE",
"481 1186 OFFCURVE",
"532 1251 OFFCURVE",
"532 1331 CURVE SMOOTH",
"532 1426 OFFCURVE",
"457 1505 OFFCURVE",
"358 1505 CURVE SMOOTH",
"262 1505 OFFCURVE",
"184 1427 OFFCURVE",
"184 1331 CURVE SMOOTH",
"184 1254 OFFCURVE",
"232 1188 OFFCURVE",
"307 1165 CURVE",
"307 0 LINE"
);
},
{
closed = 1;
nodes = (
"716 512 OFFCURVE",
"671 532 OFFCURVE",
"612 571 CURVE SMOOTH",
"410 707 LINE",
"410 782 LINE",
"635 633 LINE SMOOTH",
"692 595 OFFCURVE",
"744 572 OFFCURVE",
"793 563 CURVE",
"786 536 OFFCURVE",
"768 512 OFFCURVE",
"745 512 CURVE SMOOTH"
);
},
{
closed = 1;
nodes = (
"790 664 OFFCURVE",
"747 682 OFFCURVE",
"692 719 CURVE SMOOTH",
"410 907 LINE",
"410 1024 LINE",
"575 939 OFFCURVE",
"693 876 OFFCURVE",
"763 834 CURVE SMOOTH",
"833 792 OFFCURVE",
"868 759 OFFCURVE",
"868 735 CURVE SMOOTH",
"868 700 OFFCURVE",
"848 664 OFFCURVE",
"819 664 CURVE SMOOTH"
);
},
{
closed = 1;
nodes = (
"319 1260 OFFCURVE",
"287 1292 OFFCURVE",
"287 1331 CURVE SMOOTH",
"287 1370 OFFCURVE",
"319 1403 OFFCURVE",
"358 1403 CURVE SMOOTH",
"397 1403 OFFCURVE",
"430 1370 OFFCURVE",
"430 1331 CURVE SMOOTH",
"430 1292 OFFCURVE",
"397 1260 OFFCURVE",
"358 1260 CURVE SMOOTH"
);
}
);
width = 1012;
}
);
note = g141;
},
{
glyphname = g142;
lastChange = "2016-11-10 14:11:51 +0000";
layers = (
{
layerId = "71450CB2-F408-4DB3-81C5-B92F6F6BD2DF";
paths = (
{
closed = 1;
nodes = (
"376 -7 OFFCURVE",
"518 36 OFFCURVE",
"635 109 CURVE SMOOTH",
"869 253 OFFCURVE",
"983 506 OFFCURVE",
"983 739 CURVE SMOOTH",
"983 873 OFFCURVE",
"951 984 OFFCURVE",
"887 1071 CURVE",
"1032 1151 LINE",
"983 1241 LINE",
"813 1149 LINE",
"748 1201 OFFCURVE",
"675 1227 OFFCURVE",
"592 1227 CURVE",
"551 1225 LINE",
"554 1233 OFFCURVE",
"555 1242 OFFCURVE",
"555 1253 CURVE SMOOTH",
"555 1382 OFFCURVE",
"461 1495 OFFCURVE",
"346 1495 CURVE SMOOTH",
"265 1495 OFFCURVE",
"207 1427 OFFCURVE",
"207 1327 CURVE SMOOTH",
"207 1234 OFFCURVE",
"254 1151 OFFCURVE",
"326 1110 CURVE",
"278 1051 OFFCURVE",
"254 984 OFFCURVE",
"254 907 CURVE SMOOTH",
"254 881 OFFCURVE",
"255 863 OFFCURVE",
"258 852 CURVE",
"102 768 LINE",
"152 678 LINE",
"287 750 LINE",
"301 716 OFFCURVE",
"326 666 OFFCURVE",
"362 600 CURVE SMOOTH",
"398 534 OFFCURVE",
"416 474 OFFCURVE",
"416 420 CURVE SMOOTH",
"416 321 OFFCURVE",
"323 172 OFFCURVE",
"180 47 CURVE",
"211 -20 LINE"
);
},
{
closed = 1;
nodes = (
"467 199 OFFCURVE",
"518 306 OFFCURVE",
"518 420 CURVE SMOOTH",
"518 489 OFFCURVE",
"498 561 OFFCURVE",
"457 636 CURVE SMOOTH",
"416 711 OFFCURVE",
"390 766 OFFCURVE",
"377 799 CURVE",
"795 1022 LINE",
"852 949 OFFCURVE",
"881 854 OFFCURVE",
"881 739 CURVE SMOOTH",
"881 459 OFFCURVE",
"681 168 OFFCURVE",
"365 100 CURVE"
);
},
{
closed = 1;
nodes = (
"356 907 LINE SMOOTH",
"356 1031 OFFCURVE",
"451 1124 OFFCURVE",
"592 1124 CURVE SMOOTH",
"635 1124 OFFCURVE",
"674 1114 OFFCURVE",
"709 1094 CURVE",
"356 905 LINE"
);
},
{
closed = 1;
nodes = (
"359 1188 OFFCURVE",
"309 1259 OFFCURVE",
"309 1327 CURVE SMOOTH",
"309 1371 OFFCURVE",
"325 1393 OFFCURVE",
"356 1393 CURVE SMOOTH",
"403 1393 OFFCURVE",
"453 1320 OFFCURVE",
"453 1253 CURVE SMOOTH",
"453 1210 OFFCURVE",
"437 1188 OFFCURVE",
"406 1188 CURVE SMOOTH"
);
}
);
width = 1135;
}
);
note = g142;
},
{
glyphname = g143;
lastChange = "2016-11-10 14:11:51 +0000";
layers = (
{
layerId = "71450CB2-F408-4DB3-81C5-B92F6F6BD2DF";
paths = (
{
closed = 1;
nodes = (
"989 -20 OFFCURVE",
"1117 5 OFFCURVE",
"1232 54 CURVE SMOOTH",
"1460 153 OFFCURVE",
"1593 340 OFFCURVE",
"1593 561 CURVE SMOOTH",
"1593 596 LINE",
"899 596 LINE",
"899 758 LINE",
"1290 758 LINE",
"1290 829 LINE",
"899 1452 LINE",
"797 1452 LINE",
"406 829 LINE",
"406 758 LINE",
"797 758 LINE",
"797 596 LINE",
"102 596 LINE",
"102 561 LINE SMOOTH",
"102 451 OFFCURVE",
"134 351 OFFCURVE",
"198 262 CURVE SMOOTH",
"325 82 OFFCURVE",
"565 -20 OFFCURVE",
"846 -20 CURVE SMOOTH"
);
},
{
closed = 1;
nodes = (
"472 103 OFFCURVE",
"224 282 OFFCURVE",
"213 494 CURVE",
"797 494 LINE",
"797 84 LINE"
);
},
{
closed = 1;
nodes = (
"692 154 OFFCURVE",
"762 222 OFFCURVE",
"762 309 CURVE SMOOTH",
"762 397 OFFCURVE",
"692 467 OFFCURVE",
"604 467 CURVE SMOOTH",
"517 467 OFFCURVE",
"449 398 OFFCURVE",
"449 309 CURVE SMOOTH",
"449 221 OFFCURVE",
"516 154 OFFCURVE",
"604 154 CURVE SMOOTH"
);
},
{
closed = 1;
nodes = (
"573 256 OFFCURVE",
"551 278 OFFCURVE",
"551 309 CURVE SMOOTH",
"551 340 OFFCURVE",
"573 365 OFFCURVE",
"604 365 CURVE SMOOTH",
"635 365 OFFCURVE",
"659 340 OFFCURVE",
"659 309 CURVE SMOOTH",
"659 278 OFFCURVE",
"635 256 OFFCURVE",
"604 256 CURVE SMOOTH"
);
},
{
closed = 1;
nodes = (
"1175 154 OFFCURVE",
"1247 218 OFFCURVE",
"1247 309 CURVE SMOOTH",
"1247 401 OFFCURVE",
"1174 467 OFFCURVE",
"1090 467 CURVE SMOOTH",
"1005 467 OFFCURVE",
"934 400 OFFCURVE",
"934 309 CURVE SMOOTH",
"934 222 OFFCURVE",
"1002 154 OFFCURVE",
"1090 154 CURVE SMOOTH"
);
},
{
closed = 1;
nodes = (
"1059 256 OFFCURVE",
"1036 278 OFFCURVE",
"1036 309 CURVE SMOOTH",
"1036 340 OFFCURVE",
"1059 365 OFFCURVE",
"1090 365 CURVE SMOOTH",
"1121 365 OFFCURVE",
"1145 340 OFFCURVE",
"1145 309 CURVE SMOOTH",
"1145 278 OFFCURVE",
"1121 256 OFFCURVE",
"1090 256 CURVE SMOOTH"
);
},
{
closed = 1;
nodes = (
"899 494 LINE",
"1483 494 LINE",
"1468 281 OFFCURVE",
"1219 103 OFFCURVE",
"899 84 CURVE"
);
},
{
closed = 1;
nodes = (
"797 1264 LINE",
"797 860 LINE",
"545 860 LINE"
);
},
{
closed = 1;
nodes = (
"899 1264 LINE",
"1151 860 LINE",
"899 860 LINE"
);
}
);
width = 1696;
}
);
note = g143;
},
{
glyphname = g144;
lastChange = "2016-11-10 14:11:51 +0000";
layers = (
{
layerId = "71450CB2-F408-4DB3-81C5-B92F6F6BD2DF";
paths = (
{
closed = 1;
nodes = (
"635 -18 OFFCURVE",
"791 134 OFFCURVE",
"791 326 CURVE SMOOTH",
"791 390 OFFCURVE",
"772 453 OFFCURVE",
"733 516 CURVE",
"846 611 OFFCURVE",
"901 721 OFFCURVE",
"901 821 CURVE SMOOTH",
"901 997 OFFCURVE",
"745 1119 OFFCURVE",
"496 1128 CURVE",
"496 1591 LINE",
"393 1591 LINE",
"393 666 LINE",
"226 639 OFFCURVE",
"102 497 OFFCURVE",
"102 326 CURVE SMOOTH",
"102 134 OFFCURVE",
"259 -18 OFFCURVE",
"446 -18 CURVE SMOOTH"
);
},
{
closed = 1;
nodes = (
"313 84 OFFCURVE",
"205 194 OFFCURVE",
"205 326 CURVE SMOOTH",
"205 461 OFFCURVE",
"313 567 OFFCURVE",
"446 567 CURVE SMOOTH",
"579 567 OFFCURVE",
"688 461 OFFCURVE",
"688 326 CURVE SMOOTH",
"688 193 OFFCURVE",
"579 84 OFFCURVE",
"446 84 CURVE SMOOTH"
);
},
{
closed = 1;
nodes = (
"614 632 OFFCURVE",
"558 657 OFFCURVE",
"496 666 CURVE",
"496 1026 LINE",
"677 1019 OFFCURVE",
"799 940 OFFCURVE",
"799 821 CURVE SMOOTH",
"799 742 OFFCURVE",
"754 666 OFFCURVE",
"664 592 CURVE"
);
}
);
width = 1004;
}
);
note = g144;
},
{
glyphname = g145;
lastChange = "2016-11-10 14:11:51 +0000";
layers = (
{
layerId = "71450CB2-F408-4DB3-81C5-B92F6F6BD2DF";
paths = (
{
closed = 1;
nodes = (
"328 274 LINE",
"328 449 LINE",
"602 449 LINE",
"602 274 LINE",
"705 274 LINE",
"705 449 LINE",
"827 449 LINE",
"827 551 LINE",
"705 551 LINE",
"705 684 LINE",
"827 684 LINE",
"827 786 LINE",
"705 786 LINE",
"705 920 LINE",
"827 920 LINE",
"827 1022 LINE",
"705 1022 LINE",
"705 1196 LINE",
"602 1196 LINE",
"602 1022 LINE",
"328 1022 LINE",
"328 1196 LINE",
"225 1196 LINE",
"225 1022 LINE",
"102 1022 LINE",
"102 920 LINE",
"225 920 LINE",
"225 786 LINE",
"102 786 LINE",
"102 684 LINE",
"225 684 LINE",
"225 551 LINE",
"102 551 LINE",
"102 449 LINE",
"225 449 LINE",
"225 274 LINE"
);
},
{
closed = 1;
nodes = (
"328 684 LINE",
"602 684 LINE",
"602 551 LINE",
"328 551 LINE"
);
},
{
closed = 1;
nodes = (
"328 920 LINE",
"602 920 LINE",
"602 786 LINE",
"328 786 LINE"
);
}
);
width = 930;
}
);
note = g145;
},
{
glyphname = g146;
lastChange = "2016-11-10 14:11:51 +0000";
layers = (
{
layerId = "71450CB2-F408-4DB3-81C5-B92F6F6BD2DF";
paths = (
{
closed = 1;
nodes = (
"871 145 OFFCURVE",
"1077 347 OFFCURVE",
"1077 598 CURVE SMOOTH",
"1077 707 OFFCURVE",
"1042 804 OFFCURVE",
"971 891 CURVE",
"1147 1141 LINE",
"1063 1198 LINE",
"897 961 LINE",
"858 990 OFFCURVE",
"817 1012 OFFCURVE",
"774 1026 CURVE",
"877 1309 LINE",
"780 1341 LINE",
"674 1049 LINE",
"623 1053 LINE",
"597 1053 LINE",
"571 1051 LINE",
"469 1341 LINE",
"371 1309 LINE",
"471 1026 LINE",
"431 1013 OFFCURVE",
"391 991 OFFCURVE",
"350 961 CURVE",
"184 1198 LINE",
"102 1141 LINE",
"276 891 LINE",
"205 806 OFFCURVE",
"170 708 OFFCURVE",
"170 598 CURVE SMOOTH",
"170 350 OFFCURVE",
"372 145 OFFCURVE",
"623 145 CURVE SMOOTH"
);
},
{
closed = 1;
nodes = (
"431 248 OFFCURVE",
"272 407 OFFCURVE",
"272 598 CURVE SMOOTH",
"272 789 OFFCURVE",
"430 950 OFFCURVE",
"623 950 CURVE SMOOTH",
"819 950 OFFCURVE",
"975 793 OFFCURVE",
"975 598 CURVE SMOOTH",
"975 405 OFFCURVE",
"818 248 OFFCURVE",
"623 248 CURVE SMOOTH"
);
}
);
width = 1249;
}
);
note = g146;
},
{
glyphname = g147;
lastChange = "2016-11-10 14:11:51 +0000";
layers = (
{
layerId = "71450CB2-F408-4DB3-81C5-B92F6F6BD2DF";
paths = (
{
closed = 1;
nodes = (
"627 -115 LINE",
"627 430 LINE",
"793 270 LINE",
"862 344 LINE",
"610 590 LINE",
"539 590 LINE",
"289 344 LINE",
"358 270 LINE",
"524 430 LINE",
"524 -115 LINE"
);
},
{
closed = 1;
nodes = (
"422 705 LINE",
"422 776 LINE",
"176 1028 LINE",
"102 958 LINE",
"313 741 LINE",
"102 524 LINE",
"176 455 LINE"
);
},
{
closed = 1;
nodes = (
"1047 524 LINE",
"836 741 LINE",
"1047 958 LINE",
"973 1028 LINE",
"727 776 LINE",
"727 705 LINE",
"973 455 LINE"
);
},
{
closed = 1;
nodes = (
"610 895 LINE",
"862 1141 LINE",
"793 1214 LINE",
"627 1053 LINE",
"627 1599 LINE",
"524 1599 LINE",
"524 1053 LINE",
"358 1214 LINE",
"289 1141 LINE",
"539 895 LINE"
);
}
);
width = 1149;
}
);
note = g147;
},
